RedHatMono-MediumItalic.ufo
<glyph name="exclam" format="2">
  <advance width="600"/>
  <unicode hex="0021"/>
  <outline>
    <contour>
      <point x="250" y="227" type="line"/>
      <point x="334" y="227" type="line"/>
      <point x="455" y="727" type="line"/>
      <point x="343" y="727" type="line"/>
    </contour>
    <contour>
      <point x="254" y="-10" type="curve" smooth="yes"/>
      <point x="299" y="-10"/>
      <point x="340" y="33"/>
      <point x="340" y="80" type="curve" smooth="yes"/>
      <point x="340" y="121"/>
      <point x="310" y="152"/>
      <point x="272" y="152" type="curve" smooth="yes"/>
      <point x="224" y="152"/>
      <point x="184" y="111"/>
      <point x="184" y="62" type="curve" smooth="yes"/>
      <point x="184" y="21"/>
      <point x="213" y="-10"/>
    </contour>
  </outline>
</glyph>
<glyph name="numbersign" format="2">
  <advance width="600"/>
  <unicode hex="0023"/>
  <outline>
    <contour>
      <point x="-29" y="0" type="line"/>
      <point x="67" y="0" type="line"/>
      <point x="179" y="203" type="line"/>
      <point x="301" y="203" type="line"/>
      <point x="189" y="0" type="line"/>
      <point x="285" y="0" type="line"/>
      <point x="397" y="203" type="line"/>
      <point x="534" y="203" type="line"/>
      <point x="552" y="284" type="line"/>
      <point x="442" y="284" type="line"/>
      <point x="514" y="416" type="line"/>
      <point x="626" y="416" type="line"/>
      <point x="644" y="497" type="line"/>
      <point x="559" y="497" type="line"/>
      <point x="671" y="700" type="line"/>
      <point x="575" y="700" type="line"/>
      <point x="463" y="497" type="line"/>
      <point x="342" y="497" type="line"/>
      <point x="453" y="700" type="line"/>
      <point x="357" y="700" type="line"/>
      <point x="245" y="497" type="line"/>
      <point x="107" y="497" type="line"/>
      <point x="89" y="416" type="line"/>
      <point x="200" y="416" type="line"/>
      <point x="128" y="284" type="line"/>
      <point x="15" y="284" type="line"/>
      <point x="-2" y="203" type="line"/>
      <point x="83" y="203" type="line"/>
    </contour>
    <contour>
      <point x="224" y="284" type="line"/>
      <point x="296" y="416" type="line"/>
      <point x="418" y="416" type="line"/>
      <point x="346" y="284" type="line"/>
    </contour>
  </outline>
</glyph>
<glyph name="dollar" format="2">
  <advance width="600"/>
  <unicode hex="0024"/>
  <outline>
    <contour>
      <point x="193" y="-67" type="line"/>
      <point x="258" y="-67" type="line"/>
      <point x="276" y="17" type="line"/>
      <point x="277" y="17"/>
      <point x="279" y="17"/>
      <point x="280" y="17" type="curve" smooth="yes"/>
      <point x="429" y="17"/>
      <point x="529" y="100"/>
      <point x="529" y="218" type="curve" smooth="yes"/>
      <point x="529" y="299"/>
      <point x="485" y="352"/>
      <point x="358" y="397" type="curve"/>
      <point x="397" y="583" type="line"/>
      <point x="441" y="572"/>
      <point x="482" y="548"/>
      <point x="521" y="514" type="curve"/>
      <point x="582" y="592" type="line"/>
      <point x="534" y="633"/>
      <point x="476" y="662"/>
      <point x="418" y="674" type="curve"/>
      <point x="438" y="767" type="line"/>
      <point x="373" y="767" type="line"/>
      <point x="354" y="683" type="line"/>
      <point x="352" y="683"/>
      <point x="349" y="683"/>
      <point x="346" y="683" type="curve" smooth="yes"/>
      <point x="200" y="683"/>
      <point x="109" y="607"/>
      <point x="109" y="493" type="curve" smooth="yes"/>
      <point x="109" y="409"/>
      <point x="161" y="355"/>
      <point x="275" y="316" type="curve"/>
      <point x="233" y="117" type="line"/>
      <point x="185" y="128"/>
      <point x="138" y="154"/>
      <point x="91" y="193" type="curve"/>
      <point x="33" y="112" type="line"/>
      <point x="86" y="66"/>
      <point x="148" y="36"/>
      <point x="213" y="24" type="curve"/>
    </contour>
    <contour>
      <point x="297" y="415" type="line"/>
      <point x="237" y="438"/>
      <point x="213" y="462"/>
      <point x="213" y="501" type="curve" smooth="yes"/>
      <point x="213" y="554"/>
      <point x="260" y="589"/>
      <point x="334" y="590" type="curve"/>
    </contour>
    <contour>
      <point x="297" y="111" type="curve"/>
      <point x="336" y="297" type="line"/>
      <point x="405" y="270"/>
      <point x="425" y="245"/>
      <point x="425" y="210" type="curve" smooth="yes"/>
      <point x="425" y="154"/>
      <point x="373" y="113"/>
    </contour>
  </outline>
</glyph>
<glyph name="percent" format="2">
  <advance width="600"/>
  <unicode hex="0025"/>
  <outline>
    <contour>
      <point x="414" y="-5" type="curve" smooth="yes"/>
      <point x="495" y="-5"/>
      <point x="559" y="74"/>
      <point x="559" y="169" type="curve" smooth="yes"/>
      <point x="559" y="240"/>
      <point x="517" y="288"/>
      <point x="450" y="288" type="curve" smooth="yes"/>
      <point x="369" y="288"/>
      <point x="305" y="209"/>
      <point x="305" y="114" type="curve" smooth="yes"/>
      <point x="305" y="43"/>
      <point x="347" y="-5"/>
    </contour>
    <contour>
      <point x="419" y="53" type="curve" smooth="yes"/>
      <point x="387" y="53"/>
      <point x="368" y="76"/>
      <point x="368" y="115" type="curve" smooth="yes"/>
      <point x="368" y="179"/>
      <point x="402" y="230"/>
      <point x="444" y="230" type="curve" smooth="yes"/>
      <point x="477" y="230"/>
      <point x="496" y="207"/>
      <point x="496" y="167" type="curve" smooth="yes"/>
      <point x="496" y="104"/>
      <point x="462" y="53"/>
    </contour>
    <contour>
      <point x="192" y="414" type="curve" smooth="yes"/>
      <point x="273" y="414"/>
      <point x="337" y="493"/>
      <point x="337" y="588" type="curve" smooth="yes"/>
      <point x="337" y="659"/>
      <point x="295" y="707"/>
      <point x="228" y="707" type="curve" smooth="yes"/>
      <point x="147" y="707"/>
      <point x="83" y="628"/>
      <point x="83" y="533" type="curve" smooth="yes"/>
      <point x="83" y="462"/>
      <point x="125" y="414"/>
    </contour>
    <contour>
      <point x="197" y="472" type="curve" smooth="yes"/>
      <point x="165" y="472"/>
      <point x="146" y="495"/>
      <point x="146" y="534" type="curve" smooth="yes"/>
      <point x="146" y="597"/>
      <point x="180" y="649"/>
      <point x="222" y="649" type="curve" smooth="yes"/>
      <point x="255" y="649"/>
      <point x="274" y="626"/>
      <point x="274" y="586" type="curve" smooth="yes"/>
      <point x="274" y="523"/>
      <point x="240" y="472"/>
    </contour>
    <component base="fraction" xOffset="28"/>
  </outline>
</glyph>
<glyph name="ampersand" format="2">
  <advance width="600"/>
  <unicode hex="0026"/>
  <outline>
    <contour>
      <point x="474" y="-16" type="curve"/>
      <point x="550" y="53" type="line"/>
      <point x="530" y="71"/>
      <point x="510" y="92"/>
      <point x="473" y="133" type="curve"/>
      <point x="513" y="190"/>
      <point x="546" y="261"/>
      <point x="568" y="342" type="curve"/>
      <point x="478" y="357" type="line"/>
      <point x="464" y="299"/>
      <point x="442" y="247"/>
      <point x="412" y="202" type="curve"/>
      <point x="372" y="251"/>
      <point x="333" y="303"/>
      <point x="300" y="354" type="curve"/>
      <point x="436" y="420"/>
      <point x="487" y="478"/>
      <point x="487" y="566" type="curve" smooth="yes"/>
      <point x="487" y="652"/>
      <point x="421" y="711"/>
      <point x="325" y="711" type="curve" smooth="yes"/>
      <point x="216" y="711"/>
      <point x="137" y="629"/>
      <point x="137" y="515" type="curve" smooth="yes"/>
      <point x="137" y="472"/>
      <point x="147" y="431"/>
      <point x="170" y="383" type="curve"/>
      <point x="62" y="327"/>
      <point x="14" y="260"/>
      <point x="14" y="165" type="curve" smooth="yes"/>
      <point x="14" y="60"/>
      <point x="97" y="-11"/>
      <point x="219" y="-11" type="curve" smooth="yes"/>
      <point x="284" y="-11"/>
      <point x="346" y="13"/>
      <point x="402" y="59" type="curve"/>
      <point x="423" y="35"/>
      <point x="445" y="12"/>
    </contour>
    <contour>
      <point x="223" y="76" type="curve" smooth="yes"/>
      <point x="157" y="76"/>
      <point x="113" y="115"/>
      <point x="113" y="176" type="curve" smooth="yes"/>
      <point x="113" y="229"/>
      <point x="143" y="270"/>
      <point x="211" y="309" type="curve"/>
      <point x="247" y="250"/>
      <point x="293" y="187"/>
      <point x="345" y="125" type="curve"/>
      <point x="306" y="93"/>
      <point x="264" y="76"/>
    </contour>
    <contour>
      <point x="259" y="424" type="curve"/>
      <point x="243" y="457"/>
      <point x="236" y="488"/>
      <point x="236" y="524" type="curve" smooth="yes"/>
      <point x="236" y="584"/>
      <point x="272" y="629"/>
      <point x="322" y="629" type="curve" smooth="yes"/>
      <point x="363" y="629"/>
      <point x="390" y="601"/>
      <point x="390" y="558" type="curve" smooth="yes"/>
      <point x="390" y="505"/>
      <point x="355" y="469"/>
    </contour>
  </outline>
</glyph>
<glyph name="quotesingle" format="2">
  <advance width="600"/>
  <unicode hex="0027"/>
  <outline>
    <contour>
      <point x="312" y="489" type="line"/>
      <point x="391" y="489" type="line"/>
      <point x="459" y="750" type="line"/>
      <point x="352" y="750" type="line"/>
    </contour>
  </outline>
</glyph>
<glyph name="parenleft" format="2">
  <advance width="600"/>
  <unicode hex="0028"/>
  <outline>
    <contour>
      <point x="323" y="-222" type="curve"/>
      <point x="394" y="-149" type="line"/>
      <point x="294" y="-73"/>
      <point x="234" y="48"/>
      <point x="234" y="174" type="curve" smooth="yes"/>
      <point x="234" y="349"/>
      <point x="336" y="527"/>
      <point x="566" y="632" type="curve"/>
      <point x="522" y="713" type="line"/>
      <point x="250" y="597"/>
      <point x="130" y="377"/>
      <point x="130" y="168" type="curve" smooth="yes"/>
      <point x="130" y="10"/>
      <point x="201" y="-135"/>
    </contour>
  </outline>
</glyph>
<glyph name="parenright" format="2">
  <advance width="600"/>
  <unicode hex="0029"/>
  <outline>
    <contour>
      <point x="274" y="711" type="curve"/>
      <point x="203" y="639" type="line"/>
      <point x="303" y="563"/>
      <point x="362" y="441"/>
      <point x="362" y="315" type="curve" smooth="yes"/>
      <point x="362" y="141"/>
      <point x="261" y="-38"/>
      <point x="31" y="-143" type="curve"/>
      <point x="75" y="-223" type="line"/>
      <point x="346" y="-108"/>
      <point x="467" y="112"/>
      <point x="467" y="321" type="curve" smooth="yes"/>
      <point x="467" y="479"/>
      <point x="396" y="624"/>
    </contour>
  </outline>
</glyph>
<glyph name="asterisk" format="2">
  <advance width="600"/>
  <unicode hex="002A"/>
  <outline>
    <contour>
      <point x="280" y="326" type="line"/>
      <point x="351" y="326" type="line"/>
      <point x="375" y="448" type="line"/>
      <point x="461" y="374" type="line"/>
      <point x="513" y="433" type="line"/>
      <point x="420" y="508" type="line"/>
      <point x="545" y="570" type="line"/>
      <point x="516" y="637" type="line"/>
      <point x="403" y="577" type="line"/>
      <point x="429" y="700" type="line"/>
      <point x="359" y="700" type="line"/>
      <point x="335" y="579" type="line"/>
      <point x="247" y="654" type="line"/>
      <point x="197" y="596" type="line"/>
      <point x="291" y="519" type="line"/>
      <point x="167" y="458" type="line"/>
      <point x="193" y="390" type="line"/>
      <point x="308" y="451" type="line"/>
    </contour>
  </outline>
</glyph>
<glyph name="plus" format="2">
  <advance width="600"/>
  <unicode hex="002B"/>
  <outline>
    <contour>
      <point x="231" y="135" type="line"/>
      <point x="319" y="135" type="line"/>
      <point x="357" y="312" type="line"/>
      <point x="523" y="312" type="line"/>
      <point x="541" y="401" type="line"/>
      <point x="375" y="401" type="line"/>
      <point x="413" y="578" type="line"/>
      <point x="326" y="578" type="line"/>
      <point x="288" y="401" type="line"/>
      <point x="122" y="401" type="line"/>
      <point x="103" y="312" type="line"/>
      <point x="269" y="312" type="line"/>
    </contour>
  </outline>
</glyph>
<glyph name="comma" format="2">
  <advance width="600"/>
  <unicode hex="002C"/>
  <outline>
    <contour>
      <point x="97" y="-166" type="line"/>
      <point x="180" y="-166" type="line"/>
      <point x="340" y="98" type="line"/>
      <point x="207" y="98" type="line"/>
    </contour>
  </outline>
</glyph>
<glyph name="hyphen" format="2">
  <advance width="600"/>
  <unicode hex="002D"/>
  <outline>
    <contour>
      <point x="123" y="236" type="line"/>
      <point x="472" y="236" type="line"/>
      <point x="491" y="330" type="line"/>
      <point x="142" y="330" type="line"/>
    </contour>
  </outline>
</glyph>
<glyph name="period" format="2">
  <advance width="600"/>
  <unicode hex="002E"/>
  <outline>
    <contour>
      <point x="255" y="-10" type="curve" smooth="yes"/>
      <point x="304" y="-10"/>
      <point x="345" y="34"/>
      <point x="345" y="81" type="curve" smooth="yes"/>
      <point x="345" y="124"/>
      <point x="313" y="158"/>
      <point x="271" y="158" type="curve" smooth="yes"/>
      <point x="221" y="158"/>
      <point x="179" y="116"/>
      <point x="179" y="67" type="curve" smooth="yes"/>
      <point x="179" y="23"/>
      <point x="212" y="-10"/>
    </contour>
  </outline>
</glyph>
<glyph name="slash" format="2">
  <advance width="600"/>
  <unicode hex="002F"/>
  <outline>
    <contour>
      <point x="-89" y="-209" type="line"/>
      <point x="29" y="-209" type="line"/>
      <point x="622" y="700" type="line"/>
      <point x="504" y="700" type="line"/>
    </contour>
  </outline>
</glyph>
<glyph name="zero" format="2">
  <advance width="600"/>
  <unicode hex="0030"/>
  <outline>
    <contour>
      <point x="277" y="-10" type="curve" smooth="yes"/>
      <point x="445" y="-10"/>
      <point x="587" y="183"/>
      <point x="587" y="434" type="curve" smooth="yes"/>
      <point x="587" y="611"/>
      <point x="496" y="710"/>
      <point x="364" y="710" type="curve" smooth="yes"/>
      <point x="196" y="710"/>
      <point x="55" y="517"/>
      <point x="55" y="266" type="curve" smooth="yes"/>
      <point x="55" y="89"/>
      <point x="145" y="-10"/>
    </contour>
    <contour>
      <point x="280" y="86" type="curve" smooth="yes"/>
      <point x="251" y="86"/>
      <point x="226" y="97"/>
      <point x="207" y="117" type="curve"/>
      <point x="472" y="500" type="line"/>
      <point x="478" y="481"/>
      <point x="480" y="459"/>
      <point x="480" y="431" type="curve" smooth="yes"/>
      <point x="480" y="240"/>
      <point x="388" y="86"/>
    </contour>
    <contour>
      <point x="171" y="197" type="line"/>
      <point x="164" y="217"/>
      <point x="161" y="240"/>
      <point x="161" y="269" type="curve" smooth="yes"/>
      <point x="161" y="460"/>
      <point x="253" y="614"/>
      <point x="362" y="614" type="curve" smooth="yes"/>
      <point x="391" y="614"/>
      <point x="416" y="603"/>
      <point x="436" y="581" type="curve"/>
    </contour>
  </outline>
</glyph>
<glyph name="one" format="2">
  <advance width="600"/>
  <unicode hex="0031"/>
  <outline>
    <contour>
      <point x="40" y="0" type="line"/>
      <point x="514" y="0" type="line"/>
      <point x="534" y="94" type="line"/>
      <point x="346" y="94" type="line"/>
      <point x="475" y="700" type="line"/>
      <point x="407" y="700" type="line"/>
      <point x="169" y="607" type="line"/>
      <point x="147" y="503" type="line"/>
      <point x="340" y="579" type="line"/>
      <point x="236" y="94" type="line"/>
      <point x="59" y="94" type="line"/>
    </contour>
  </outline>
</glyph>
<glyph name="two" format="2">
  <advance width="600"/>
  <unicode hex="0032"/>
  <outline>
    <contour>
      <point x="18" y="0" type="line"/>
      <point x="486" y="0" type="line"/>
      <point x="507" y="93" type="line"/>
      <point x="183" y="92" type="line"/>
      <point x="463" y="339" type="line" smooth="yes"/>
      <point x="546" y="411"/>
      <point x="578" y="466"/>
      <point x="578" y="540" type="curve" smooth="yes"/>
      <point x="578" y="641"/>
      <point x="494" y="710"/>
      <point x="372" y="710" type="curve" smooth="yes"/>
      <point x="290" y="710"/>
      <point x="209" y="678"/>
      <point x="129" y="617" type="curve"/>
      <point x="177" y="538" type="line"/>
      <point x="250" y="591"/>
      <point x="302" y="614"/>
      <point x="359" y="614" type="curve" smooth="yes"/>
      <point x="425" y="614"/>
      <point x="471" y="579"/>
      <point x="471" y="526" type="curve" smooth="yes"/>
      <point x="471" y="483"/>
      <point x="449" y="446"/>
      <point x="394" y="397" type="curve" smooth="yes"/>
      <point x="34" y="78" type="line"/>
    </contour>
  </outline>
</glyph>
<glyph name="three" format="2">
  <advance width="600"/>
  <unicode hex="0033"/>
  <outline>
    <contour>
      <point x="272" y="-11" type="curve" smooth="yes"/>
      <point x="422" y="-11"/>
      <point x="536" y="81"/>
      <point x="536" y="204" type="curve" smooth="yes"/>
      <point x="536" y="270"/>
      <point x="494" y="324"/>
      <point x="423" y="346" type="curve"/>
      <point x="527" y="374"/>
      <point x="583" y="445"/>
      <point x="583" y="530" type="curve" smooth="yes"/>
      <point x="583" y="631"/>
      <point x="495" y="711"/>
      <point x="353" y="711" type="curve" smooth="yes"/>
      <point x="265" y="711"/>
      <point x="181" y="679"/>
      <point x="118" y="623" type="curve"/>
      <point x="174" y="547" type="line"/>
      <point x="230" y="593"/>
      <point x="285" y="614"/>
      <point x="348" y="614" type="curve" smooth="yes"/>
      <point x="426" y="614"/>
      <point x="472" y="569"/>
      <point x="472" y="513" type="curve" smooth="yes"/>
      <point x="472" y="449"/>
      <point x="413" y="399"/>
      <point x="336" y="399" type="curve" smooth="yes"/>
      <point x="263" y="399" type="line"/>
      <point x="244" y="307" type="line"/>
      <point x="307" y="307" type="line" smooth="yes"/>
      <point x="384" y="307"/>
      <point x="429" y="266"/>
      <point x="429" y="207" type="curve" smooth="yes"/>
      <point x="429" y="136"/>
      <point x="367" y="85"/>
      <point x="277" y="85" type="curve" smooth="yes"/>
      <point x="205" y="85"/>
      <point x="148" y="114"/>
      <point x="95" y="183" type="curve"/>
      <point x="14" y="120" type="line"/>
      <point x="72" y="38"/>
      <point x="164" y="-11"/>
    </contour>
  </outline>
</glyph>
<glyph name="four" format="2">
  <advance width="600"/>
  <unicode hex="0034"/>
  <outline>
    <contour>
      <point x="336" y="0" type="line"/>
      <point x="442" y="0" type="line"/>
      <point x="479" y="173" type="line"/>
      <point x="566" y="173" type="line"/>
      <point x="586" y="267" type="line"/>
      <point x="498" y="267" type="line"/>
      <point x="591" y="700" type="line"/>
      <point x="472" y="700" type="line"/>
      <point x="23" y="262" type="line"/>
      <point x="5" y="173" type="line"/>
      <point x="372" y="173" type="line"/>
    </contour>
    <contour>
      <point x="145" y="267" type="line"/>
      <point x="458" y="575" type="line"/>
      <point x="392" y="267" type="line"/>
    </contour>
  </outline>
</glyph>
<glyph name="five" format="2">
  <advance width="600"/>
  <unicode hex="0035"/>
  <outline>
    <contour>
      <point x="262" y="-10" type="curve" smooth="yes"/>
      <point x="417" y="-10"/>
      <point x="539" y="103"/>
      <point x="539" y="245" type="curve" smooth="yes"/>
      <point x="539" y="361"/>
      <point x="454" y="437"/>
      <point x="325" y="437" type="curve" smooth="yes"/>
      <point x="284" y="437"/>
      <point x="246" y="429"/>
      <point x="205" y="411" type="curve"/>
      <point x="255" y="606" type="line"/>
      <point x="581" y="606" type="line"/>
      <point x="602" y="700" type="line"/>
      <point x="183" y="700" type="line"/>
      <point x="95" y="354" type="line"/>
      <point x="164" y="324" type="line"/>
      <point x="210" y="344"/>
      <point x="248" y="353"/>
      <point x="285" y="353" type="curve" smooth="yes"/>
      <point x="372" y="353"/>
      <point x="429" y="305"/>
      <point x="429" y="231" type="curve" smooth="yes"/>
      <point x="429" y="148"/>
      <point x="360" y="84"/>
      <point x="269" y="84" type="curve" smooth="yes"/>
      <point x="197" y="84"/>
      <point x="142" y="111"/>
      <point x="90" y="173" type="curve"/>
      <point x="14" y="103" type="line"/>
      <point x="71" y="30"/>
      <point x="159" y="-10"/>
    </contour>
  </outline>
</glyph>
<glyph name="six" format="2">
  <advance width="600"/>
  <unicode hex="0036"/>
  <outline>
    <contour>
      <point x="303" y="-11" type="curve" smooth="yes"/>
      <point x="445" y="-11"/>
      <point x="565" y="94"/>
      <point x="565" y="239" type="curve" smooth="yes"/>
      <point x="565" y="350"/>
      <point x="478" y="435"/>
      <point x="354" y="435" type="curve" smooth="yes"/>
      <point x="282" y="435"/>
      <point x="215" y="401"/>
      <point x="163" y="340" type="curve"/>
      <point x="184" y="504"/>
      <point x="287" y="614"/>
      <point x="408" y="614" type="curve" smooth="yes"/>
      <point x="458" y="614"/>
      <point x="503" y="596"/>
      <point x="550" y="556" type="curve"/>
      <point x="615" y="637" type="line"/>
      <point x="561" y="684"/>
      <point x="494" y="711"/>
      <point x="413" y="711" type="curve" smooth="yes"/>
      <point x="214" y="711"/>
      <point x="53" y="532"/>
      <point x="53" y="275" type="curve" smooth="yes"/>
      <point x="53" y="96"/>
      <point x="161" y="-11"/>
    </contour>
    <contour>
      <point x="313" y="84" type="curve" smooth="yes"/>
      <point x="223" y="84"/>
      <point x="160" y="155"/>
      <point x="159" y="277" type="curve"/>
      <point x="205" y="323"/>
      <point x="265" y="350"/>
      <point x="326" y="350" type="curve" smooth="yes"/>
      <point x="406" y="350"/>
      <point x="459" y="300"/>
      <point x="459" y="230" type="curve" smooth="yes"/>
      <point x="459" y="147"/>
      <point x="396" y="84"/>
    </contour>
  </outline>
</glyph>
<glyph name="seven" format="2">
  <advance width="600"/>
  <unicode hex="0037"/>
  <outline>
    <contour>
      <point x="58" y="0" type="line"/>
      <point x="190" y="0" type="line"/>
      <point x="632" y="617" type="line"/>
      <point x="650" y="700" type="line"/>
      <point x="135" y="700" type="line"/>
      <point x="114" y="604" type="line"/>
      <point x="509" y="604" type="line"/>
    </contour>
  </outline>
</glyph>
<glyph name="eight" format="2">
  <advance width="600"/>
  <unicode hex="0038"/>
  <note>
Version created Tue Sep 18 15:49:42 2018
</note>
  <outline>
    <contour>
      <point x="276" y="-10" type="curve" smooth="yes"/>
      <point x="424" y="-10"/>
      <point x="545" y="80"/>
      <point x="545" y="205" type="curve" smooth="yes"/>
      <point x="545" y="273"/>
      <point x="499" y="329"/>
      <point x="432" y="356" type="curve"/>
      <point x="525" y="383"/>
      <point x="587" y="452"/>
      <point x="587" y="535" type="curve" smooth="yes"/>
      <point x="587" y="633"/>
      <point x="503" y="711"/>
      <point x="369" y="711" type="curve" smooth="yes"/>
      <point x="233" y="711"/>
      <point x="119" y="624"/>
      <point x="119" y="504" type="curve" smooth="yes"/>
      <point x="119" y="448"/>
      <point x="152" y="400"/>
      <point x="209" y="373" type="curve"/>
      <point x="103" y="350"/>
      <point x="30" y="271"/>
      <point x="30" y="179" type="curve" smooth="yes"/>
      <point x="30" y="70"/>
      <point x="129" y="-10"/>
    </contour>
    <contour>
      <point x="346" y="404" type="curve" smooth="yes"/>
      <point x="273" y="404"/>
      <point x="225" y="447"/>
      <point x="225" y="503" type="curve" smooth="yes"/>
      <point x="225" y="571"/>
      <point x="286" y="622"/>
      <point x="360" y="622" type="curve" smooth="yes"/>
      <point x="438" y="622"/>
      <point x="480" y="579"/>
      <point x="480" y="522" type="curve" smooth="yes"/>
      <point x="480" y="456"/>
      <point x="419" y="404"/>
    </contour>
    <contour>
      <point x="285" y="79" type="curve" smooth="yes"/>
      <point x="197" y="79"/>
      <point x="140" y="130"/>
      <point x="140" y="195" type="curve" smooth="yes"/>
      <point x="140" y="267"/>
      <point x="203" y="320"/>
      <point x="293" y="320" type="curve" smooth="yes"/>
      <point x="380" y="320"/>
      <point x="437" y="270"/>
      <point x="437" y="206" type="curve" smooth="yes"/>
      <point x="437" y="133"/>
      <point x="374" y="79"/>
    </contour>
  </outline>
</glyph>
<glyph name="less" format="2">
  <advance width="600"/>
  <unicode hex="003C"/>
  <outline>
    <contour>
      <point x="400" y="76" type="line"/>
      <point x="469" y="142" type="line"/>
      <point x="259" y="343" type="line"/>
      <point x="558" y="548" type="line"/>
      <point x="511" y="620" type="line"/>
      <point x="123" y="348" type="line"/>
    </contour>
  </outline>
</glyph>
<glyph name="greater" format="2">
  <advance width="600"/>
  <unicode hex="003E"/>
  <outline>
    <contour>
      <point x="241" y="620" type="line"/>
      <point x="172" y="554" type="line"/>
      <point x="382" y="354" type="line"/>
      <point x="84" y="148" type="line"/>
      <point x="130" y="76" type="line"/>
      <point x="518" y="348" type="line"/>
    </contour>
  </outline>
</glyph>
<glyph name="question" format="2">
  <advance width="600"/>
  <unicode hex="003F"/>
  <outline>
    <contour>
      <point x="220" y="228" type="curve"/>
      <point x="311" y="228" type="line"/>
      <point x="327" y="361"/>
      <point x="573" y="346"/>
      <point x="573" y="546" type="curve" smooth="yes"/>
      <point x="573" y="640"/>
      <point x="491" y="708"/>
      <point x="373" y="708" type="curve" smooth="yes"/>
      <point x="283" y="708"/>
      <point x="195" y="663"/>
      <point x="136" y="583" type="curve"/>
      <point x="214" y="533" type="line"/>
      <point x="252" y="582"/>
      <point x="306" y="611"/>
      <point x="361" y="611" type="curve" smooth="yes"/>
      <point x="424" y="611"/>
      <point x="465" y="579"/>
      <point x="465" y="531" type="curve" smooth="yes"/>
      <point x="465" y="400"/>
      <point x="239" y="419"/>
    </contour>
    <contour>
      <point x="230" y="-10" type="curve" smooth="yes"/>
      <point x="276" y="-10"/>
      <point x="317" y="33"/>
      <point x="317" y="80" type="curve" smooth="yes"/>
      <point x="317" y="121"/>
      <point x="287" y="152"/>
      <point x="248" y="152" type="curve" smooth="yes"/>
      <point x="201" y="152"/>
      <point x="160" y="111"/>
      <point x="160" y="62" type="curve" smooth="yes"/>
      <point x="160" y="21"/>
      <point x="190" y="-10"/>
    </contour>
  </outline>
</glyph>
<glyph name="at" format="2">
  <advance width="600"/>
  <unicode hex="0040"/>
  <outline>
    <contour>
      <point x="279" y="-144" type="curve" smooth="yes"/>
      <point x="342" y="-144"/>
      <point x="409" y="-125"/>
      <point x="462" y="-94" type="curve"/>
      <point x="438" y="-49" type="line"/>
      <point x="393" y="-76"/>
      <point x="336" y="-94"/>
      <point x="281" y="-94" type="curve" smooth="yes"/>
      <point x="151" y="-94"/>
      <point x="57" y="4"/>
      <point x="57" y="169" type="curve" smooth="yes"/>
      <point x="57" y="366"/>
      <point x="182" y="530"/>
      <point x="335" y="530" type="curve" smooth="yes"/>
      <point x="455" y="530"/>
      <point x="540" y="439"/>
      <point x="540" y="302" type="curve" smooth="yes"/>
      <point x="540" y="190"/>
      <point x="494" y="103"/>
      <point x="442" y="103" type="curve" smooth="yes"/>
      <point x="416" y="103"/>
      <point x="408" y="122"/>
      <point x="414" y="153" type="curve" smooth="yes"/>
      <point x="462" y="368" type="line"/>
      <point x="391" y="368" type="line"/>
      <point x="386" y="344" type="line"/>
      <point x="365" y="367"/>
      <point x="334" y="381"/>
      <point x="301" y="381" type="curve" smooth="yes"/>
      <point x="207" y="381"/>
      <point x="135" y="297"/>
      <point x="135" y="188" type="curve" smooth="yes"/>
      <point x="135" y="107"/>
      <point x="188" y="49"/>
      <point x="256" y="49" type="curve" smooth="yes"/>
      <point x="290" y="49"/>
      <point x="325" y="61"/>
      <point x="357" y="86" type="curve"/>
      <point x="371" y="64"/>
      <point x="397" y="52"/>
      <point x="430" y="52" type="curve" smooth="yes"/>
      <point x="521" y="52"/>
      <point x="591" y="152"/>
      <point x="591" y="307" type="curve" smooth="yes"/>
      <point x="591" y="469"/>
      <point x="484" y="580"/>
      <point x="337" y="580" type="curve" smooth="yes"/>
      <point x="148" y="580"/>
      <point x="5" y="387"/>
      <point x="5" y="166" type="curve" smooth="yes"/>
      <point x="5" y="-22"/>
      <point x="118" y="-144"/>
    </contour>
    <contour>
      <point x="277" y="111" type="curve" smooth="yes"/>
      <point x="233" y="111"/>
      <point x="204" y="145"/>
      <point x="204" y="195" type="curve" smooth="yes"/>
      <point x="204" y="260"/>
      <point x="244" y="317"/>
      <point x="303" y="317" type="curve" smooth="yes"/>
      <point x="332" y="317"/>
      <point x="357" y="301"/>
      <point x="370" y="274" type="curve"/>
      <point x="346" y="165" type="line" smooth="yes"/>
      <point x="344" y="156"/>
      <point x="344" y="147"/>
      <point x="344" y="139" type="curve"/>
      <point x="326" y="121"/>
      <point x="302" y="111"/>
    </contour>
  </outline>
</glyph>
<glyph name="A" format="2">
  <advance width="600"/>
  <unicode hex="0041"/>
  <anchor x="395" y="700" name="top"/>
  <anchor x="538" y="0" name="bottom"/>
  <outline>
    <contour>
      <point x="-45" y="0" type="line"/>
      <point x="75" y="0" type="line"/>
      <point x="162" y="169" type="line"/>
      <point x="403" y="169" type="line"/>
      <point x="418" y="0" type="line"/>
      <point x="538" y="0" type="line"/>
      <point x="468" y="700" type="line"/>
      <point x="324" y="700" type="line"/>
    </contour>
    <contour>
      <point x="209" y="262" type="line"/>
      <point x="369" y="572" type="line"/>
      <point x="397" y="262" type="line"/>
    </contour>
  </outline>
</glyph>
<glyph name="B" format="2">
  <advance width="600"/>
  <unicode hex="0042"/>
  <outline>
    <contour>
      <point x="31" y="0" type="line"/>
      <point x="292" y="0" type="line" smooth="yes"/>
      <point x="435" y="0"/>
      <point x="545" y="94"/>
      <point x="545" y="216" type="curve" smooth="yes"/>
      <point x="545" y="283"/>
      <point x="506" y="333"/>
      <point x="442" y="357" type="curve"/>
      <point x="527" y="386"/>
      <point x="584" y="455"/>
      <point x="584" y="540" type="curve" smooth="yes"/>
      <point x="584" y="637"/>
      <point x="508" y="700"/>
      <point x="390" y="700" type="curve" smooth="yes"/>
      <point x="180" y="700" type="line"/>
    </contour>
    <contour>
      <point x="236" y="405" type="line"/>
      <point x="278" y="602" type="line"/>
      <point x="366" y="602" type="line" smooth="yes"/>
      <point x="427" y="602"/>
      <point x="463" y="570"/>
      <point x="463" y="518" type="curve" smooth="yes"/>
      <point x="463" y="452"/>
      <point x="412" y="405"/>
      <point x="338" y="405" type="curve" smooth="yes"/>
    </contour>
    <contour>
      <point x="170" y="98" type="line"/>
      <point x="216" y="313" type="line"/>
      <point x="318" y="313" type="line" smooth="yes"/>
      <point x="386" y="313"/>
      <point x="427" y="278"/>
      <point x="427" y="221" type="curve" smooth="yes"/>
      <point x="427" y="149"/>
      <point x="370" y="98"/>
      <point x="289" y="98" type="curve" smooth="yes"/>
    </contour>
  </outline>
</glyph>
<glyph name="C" format="2">
  <advance width="600"/>
  <unicode hex="0043"/>
  <guideline x="190" y="280" angle="0.0" identifier="XzmC9agYa3"/>
  <anchor x="372" y="700" name="top"/>
  <anchor x="282" y="0" name="bottom"/>
  <outline>
    <contour>
      <point x="285" y="-10" type="curve" smooth="yes"/>
      <point x="413" y="-10"/>
      <point x="512" y="79"/>
      <point x="563" y="215" type="curve"/>
      <point x="456" y="249" type="line"/>
      <point x="424" y="155"/>
      <point x="364" y="97"/>
      <point x="293" y="97" type="curve" smooth="yes"/>
      <point x="221" y="97"/>
      <point x="169" y="162"/>
      <point x="169" y="287" type="curve" smooth="yes"/>
      <point x="169" y="462"/>
      <point x="249" y="603"/>
      <point x="354" y="603" type="curve" smooth="yes"/>
      <point x="420" y="603"/>
      <point x="469" y="552"/>
      <point x="480" y="454" type="curve"/>
      <point x="597" y="479" type="line"/>
      <point x="577" y="628"/>
      <point x="486" y="710"/>
      <point x="361" y="710" type="curve" smooth="yes"/>
      <point x="184" y="710"/>
      <point x="49" y="523"/>
      <point x="49" y="277" type="curve" smooth="yes"/>
      <point x="49" y="91"/>
      <point x="151" y="-10"/>
    </contour>
  </outline>
</glyph>
<glyph name="D" format="2">
  <advance width="600"/>
  <unicode hex="0044"/>
  <anchor x="380" y="700" name="top"/>
  <outline>
    <contour>
      <point x="18" y="0" type="line"/>
      <point x="236" y="0" type="line" smooth="yes"/>
      <point x="440" y="0"/>
      <point x="594" y="176"/>
      <point x="594" y="418" type="curve" smooth="yes"/>
      <point x="594" y="599"/>
      <point x="486" y="700"/>
      <point x="329" y="700" type="curve" smooth="yes"/>
      <point x="167" y="700" type="line"/>
    </contour>
    <contour>
      <point x="321" y="597" type="line" smooth="yes"/>
      <point x="419" y="597"/>
      <point x="475" y="537"/>
      <point x="475" y="414" type="curve" smooth="yes"/>
      <point x="475" y="240"/>
      <point x="380" y="103"/>
      <point x="237" y="103" type="curve" smooth="yes"/>
      <point x="159" y="103" type="line"/>
      <point x="265" y="597" type="line"/>
    </contour>
  </outline>
</glyph>
<glyph name="E" format="2">
  <advance width="600"/>
  <unicode hex="0045"/>
  <anchor x="407" y="700" name="top"/>
  <anchor x="496" y="0" name="bottom"/>
  <outline>
    <contour>
      <point x="32" y="0" type="line"/>
      <point x="496" y="0" type="line"/>
      <point x="518" y="102" type="line"/>
      <point x="172" y="102" type="line"/>
      <point x="215" y="303" type="line"/>
      <point x="440" y="303" type="line"/>
      <point x="461" y="403" type="line"/>
      <point x="236" y="403" type="line"/>
      <point x="278" y="598" type="line"/>
      <point x="618" y="598" type="line"/>
      <point x="641" y="700" type="line"/>
      <point x="181" y="700" type="line"/>
    </contour>
  </outline>
</glyph>
<glyph name="F" format="2">
  <advance width="600"/>
  <unicode hex="0046"/>
  <outline>
    <contour>
      <point x="35" y="0" type="line"/>
      <point x="153" y="0" type="line"/>
      <point x="217" y="298" type="line"/>
      <point x="449" y="298" type="line"/>
      <point x="470" y="398" type="line"/>
      <point x="238" y="398" type="line"/>
      <point x="281" y="598" type="line"/>
      <point x="623" y="598" type="line"/>
      <point x="646" y="700" type="line"/>
      <point x="184" y="700" type="line"/>
    </contour>
  </outline>
</glyph>
<glyph name="G" format="2">
  <advance width="600"/>
  <unicode hex="0047"/>
  <anchor x="373" y="700" name="top"/>
  <anchor x="287" y="0" name="bottom"/>
  <outline>
    <contour>
      <point x="288" y="-10" type="curve" smooth="yes"/>
      <point x="445" y="-10"/>
      <point x="564" y="130"/>
      <point x="592" y="347" type="curve" smooth="yes"/>
      <point x="597" y="382" type="line"/>
      <point x="347" y="382" type="line"/>
      <point x="325" y="280" type="line"/>
      <point x="461" y="280" type="line"/>
      <point x="437" y="168"/>
      <point x="373" y="97"/>
      <point x="296" y="97" type="curve" smooth="yes"/>
      <point x="218" y="97"/>
      <point x="167" y="159"/>
      <point x="167" y="274" type="curve" smooth="yes"/>
      <point x="167" y="457"/>
      <point x="252" y="603"/>
      <point x="360" y="603" type="curve" smooth="yes"/>
      <point x="421" y="603"/>
      <point x="466" y="556"/>
      <point x="480" y="474" type="curve"/>
      <point x="594" y="504" type="line"/>
      <point x="568" y="637"/>
      <point x="477" y="710"/>
      <point x="363" y="710" type="curve" smooth="yes"/>
      <point x="188" y="710"/>
      <point x="48" y="514"/>
      <point x="48" y="269" type="curve" smooth="yes"/>
      <point x="48" y="94"/>
      <point x="145" y="-10"/>
    </contour>
  </outline>
</glyph>
<glyph name="H" format="2">
  <advance width="600"/>
  <unicode hex="0048"/>
  <anchor x="395" y="700" name="top"/>
  <outline>
    <contour>
      <point x="7" y="0" type="line"/>
      <point x="127" y="0" type="line"/>
      <point x="191" y="300" type="line"/>
      <point x="430" y="300" type="line"/>
      <point x="366" y="0" type="line"/>
      <point x="486" y="0" type="line"/>
      <point x="635" y="700" type="line"/>
      <point x="515" y="700" type="line"/>
      <point x="452" y="405" type="line"/>
      <point x="213" y="405" type="line"/>
      <point x="276" y="700" type="line"/>
      <point x="156" y="700" type="line"/>
    </contour>
  </outline>
</glyph>
<glyph name="I" format="2">
  <advance width="600"/>
  <unicode hex="0049"/>
  <anchor x="395" y="700" name="top"/>
  <anchor x="482" y="0" name="bottom"/>
  <outline>
    <contour>
      <point x="10" y="0" type="line"/>
      <point x="483" y="0" type="line"/>
      <point x="504" y="101" type="line"/>
      <point x="328" y="101" type="line"/>
      <point x="435" y="599" type="line"/>
      <point x="610" y="599" type="line"/>
      <point x="632" y="700" type="line"/>
      <point x="159" y="700" type="line"/>
      <point x="138" y="599" type="line"/>
      <point x="315" y="599" type="line"/>
      <point x="208" y="101" type="line"/>
      <point x="32" y="101" type="line"/>
    </contour>
  </outline>
</glyph>
<glyph name="J" format="2">
  <advance width="600"/>
  <unicode hex="004A"/>
  <anchor x="570" y="700" name="top"/>
  <outline>
    <contour>
      <point x="265" y="-11" type="curve" smooth="yes"/>
      <point x="406" y="-11"/>
      <point x="497" y="74"/>
      <point x="532" y="234" type="curve" smooth="yes"/>
      <point x="631" y="700" type="line"/>
      <point x="512" y="700" type="line"/>
      <point x="415" y="248" type="line" smooth="yes"/>
      <point x="392" y="139"/>
      <point x="340" y="97"/>
      <point x="268" y="97" type="curve" smooth="yes"/>
      <point x="193" y="97"/>
      <point x="149" y="147"/>
      <point x="135" y="230" type="curve"/>
      <point x="23" y="203" type="line"/>
      <point x="41" y="63"/>
      <point x="134" y="-11"/>
    </contour>
  </outline>
</glyph>
<glyph name="K" format="2">
  <advance width="600"/>
  <unicode hex="004B"/>
  <anchor x="244" y="0" name="bottom"/>
  <outline>
    <contour>
      <point x="18" y="0" type="line"/>
      <point x="137" y="0" type="line"/>
      <point x="207" y="327" type="line"/>
      <point x="386" y="0" type="line"/>
      <point x="525" y="0" type="line"/>
      <point x="316" y="359" type="line"/>
      <point x="667" y="700" type="line"/>
      <point x="526" y="700" type="line"/>
      <point x="221" y="398" type="line"/>
      <point x="286" y="700" type="line"/>
      <point x="167" y="700" type="line"/>
    </contour>
  </outline>
</glyph>
<glyph name="L" format="2">
  <advance width="600"/>
  <unicode hex="004C"/>
  <anchor x="242" y="700" name="top"/>
  <anchor x="282" y="0" name="bottom"/>
  <outline>
    <contour>
      <point x="36" y="0" type="line"/>
      <point x="497" y="0" type="line"/>
      <point x="519" y="102" type="line"/>
      <point x="176" y="102" type="line"/>
      <point x="303" y="700" type="line"/>
      <point x="185" y="700" type="line"/>
    </contour>
  </outline>
</glyph>
<glyph name="M" format="2">
  <advance width="600"/>
  <unicode hex="004D"/>
  <outline>
    <contour>
      <point x="-3" y="0" type="line"/>
      <point x="100" y="0" type="line"/>
      <point x="215" y="542" type="line"/>
      <point x="288" y="191" type="line"/>
      <point x="505" y="534" type="line"/>
      <point x="392" y="0" type="line"/>
      <point x="496" y="0" type="line"/>
      <point x="644" y="700" type="line"/>
      <point x="509" y="700" type="line"/>
      <point x="334" y="419" type="line"/>
      <point x="278" y="700" type="line"/>
      <point x="146" y="700" type="line"/>
    </contour>
  </outline>
</glyph>
<glyph name="N" format="2">
  <advance width="600"/>
  <unicode hex="004E"/>
  <anchor x="400" y="700" name="top"/>
  <anchor x="244" y="0" name="bottom"/>
  <outline>
    <contour>
      <point x="10" y="0" type="line"/>
      <point x="113" y="0" type="line"/>
      <point x="219" y="513" type="line"/>
      <point x="375" y="0" type="line"/>
      <point x="483" y="0" type="line"/>
      <point x="632" y="700" type="line"/>
      <point x="529" y="700" type="line"/>
      <point x="428" y="206" type="line"/>
      <point x="278" y="700" type="line"/>
      <point x="159" y="700" type="line"/>
    </contour>
  </outline>
</glyph>
<glyph name="O" format="2">
  <advance width="600"/>
  <unicode hex="004F"/>
  <anchor x="380" y="700" name="top"/>
  <outline>
    <contour>
      <point x="277" y="-11" type="curve" smooth="yes"/>
      <point x="450" y="-11"/>
      <point x="594" y="181"/>
      <point x="594" y="432" type="curve" smooth="yes"/>
      <point x="594" y="608"/>
      <point x="498" y="711"/>
      <point x="364" y="711" type="curve" smooth="yes"/>
      <point x="191" y="711"/>
      <point x="47" y="519"/>
      <point x="47" y="268" type="curve" smooth="yes"/>
      <point x="47" y="92"/>
      <point x="143" y="-11"/>
    </contour>
    <contour>
      <point x="282" y="96" type="curve" smooth="yes"/>
      <point x="212" y="96"/>
      <point x="166" y="160"/>
      <point x="166" y="273" type="curve" smooth="yes"/>
      <point x="166" y="458"/>
      <point x="253" y="604"/>
      <point x="357" y="604" type="curve" smooth="yes"/>
      <point x="428" y="604"/>
      <point x="475" y="540"/>
      <point x="475" y="427" type="curve" smooth="yes"/>
      <point x="475" y="242"/>
      <point x="387" y="96"/>
    </contour>
  </outline>
</glyph>
<glyph name="P" format="2">
  <advance width="600"/>
  <unicode hex="0050"/>
  <outline>
    <contour>
      <point x="24" y="0" type="line"/>
      <point x="143" y="0" type="line"/>
      <point x="200" y="267" type="line"/>
      <point x="346" y="267" type="line" smooth="yes"/>
      <point x="494" y="267"/>
      <point x="605" y="369"/>
      <point x="605" y="506" type="curve" smooth="yes"/>
      <point x="605" y="625"/>
      <point x="522" y="700"/>
      <point x="393" y="700" type="curve" smooth="yes"/>
      <point x="173" y="700" type="line"/>
    </contour>
    <contour>
      <point x="220" y="366" type="line"/>
      <point x="270" y="599" type="line"/>
      <point x="367" y="599" type="line" smooth="yes"/>
      <point x="441" y="599"/>
      <point x="486" y="561"/>
      <point x="486" y="498" type="curve" smooth="yes"/>
      <point x="486" y="419"/>
      <point x="426" y="366"/>
      <point x="338" y="366" type="curve" smooth="yes"/>
    </contour>
  </outline>
</glyph>
<glyph name="Q" format="2">
  <advance width="600"/>
  <unicode hex="0051"/>
  <outline>
    <contour>
      <point x="277" y="-11" type="curve" smooth="yes"/>
      <point x="318" y="-11"/>
      <point x="358" y="0"/>
      <point x="395" y="21" type="curve"/>
      <point x="423" y="-26" type="line"/>
      <point x="529" y="-14" type="line"/>
      <point x="472" y="82" type="line"/>
      <point x="546" y="162"/>
      <point x="594" y="287"/>
      <point x="594" y="432" type="curve" smooth="yes"/>
      <point x="594" y="608"/>
      <point x="498" y="711"/>
      <point x="364" y="711" type="curve" smooth="yes"/>
      <point x="191" y="711"/>
      <point x="47" y="519"/>
      <point x="47" y="268" type="curve" smooth="yes"/>
      <point x="47" y="92"/>
      <point x="143" y="-11"/>
    </contour>
    <contour>
      <point x="282" y="96" type="curve" smooth="yes"/>
      <point x="212" y="96"/>
      <point x="166" y="160"/>
      <point x="166" y="273" type="curve" smooth="yes"/>
      <point x="166" y="458"/>
      <point x="253" y="604"/>
      <point x="357" y="604" type="curve" smooth="yes"/>
      <point x="428" y="604"/>
      <point x="475" y="540"/>
      <point x="475" y="427" type="curve" smooth="yes"/>
      <point x="475" y="331"/>
      <point x="451" y="245"/>
      <point x="412" y="186" type="curve"/>
      <point x="375" y="247" type="line"/>
      <point x="270" y="235" type="line"/>
      <point x="340" y="115" type="line"/>
      <point x="323" y="103"/>
      <point x="303" y="96"/>
    </contour>
  </outline>
</glyph>
<glyph name="R" format="2">
  <advance width="600"/>
  <unicode hex="0052"/>
  <anchor x="406" y="700" name="top"/>
  <anchor x="257" y="0" name="bottom"/>
  <outline>
    <contour>
      <point x="28" y="0" type="line"/>
      <point x="146" y="0" type="line"/>
      <point x="206" y="281" type="line"/>
      <point x="305" y="281" type="line"/>
      <point x="397" y="0" type="line"/>
      <point x="521" y="0" type="line"/>
      <point x="420" y="291" type="line"/>
      <point x="524" y="319"/>
      <point x="596" y="404"/>
      <point x="596" y="511" type="curve" smooth="yes"/>
      <point x="596" y="625"/>
      <point x="515" y="700"/>
      <point x="390" y="700" type="curve" smooth="yes"/>
      <point x="177" y="700" type="line"/>
    </contour>
    <contour>
      <point x="227" y="377" type="line"/>
      <point x="274" y="599" type="line"/>
      <point x="371" y="599" type="line" smooth="yes"/>
      <point x="436" y="599"/>
      <point x="477" y="561"/>
      <point x="477" y="502" type="curve" smooth="yes"/>
      <point x="477" y="429"/>
      <point x="421" y="377"/>
      <point x="342" y="377" type="curve" smooth="yes"/>
    </contour>
  </outline>
</glyph>
<glyph name="S" format="2">
  <advance width="600"/>
  <unicode hex="0053"/>
  <anchor x="377" y="700" name="top"/>
  <anchor x="286" y="0" name="bottom"/>
  <outline>
    <contour>
      <point x="300" y="-11" type="curve" smooth="yes"/>
      <point x="442" y="-11"/>
      <point x="551" y="77"/>
      <point x="551" y="209" type="curve" smooth="yes"/>
      <point x="551" y="436"/>
      <point x="222" y="374"/>
      <point x="222" y="517" type="curve" smooth="yes"/>
      <point x="222" y="571"/>
      <point x="268" y="612"/>
      <point x="345" y="612" type="curve" smooth="yes"/>
      <point x="414" y="612"/>
      <point x="481" y="581"/>
      <point x="544" y="523" type="curve"/>
      <point x="613" y="605" type="line"/>
      <point x="541" y="676"/>
      <point x="446" y="711"/>
      <point x="347" y="711" type="curve" smooth="yes"/>
      <point x="201" y="711"/>
      <point x="108" y="623"/>
      <point x="108" y="506" type="curve" smooth="yes"/>
      <point x="108" y="274"/>
      <point x="433" y="346"/>
      <point x="433" y="197" type="curve" smooth="yes"/>
      <point x="433" y="132"/>
      <point x="377" y="88"/>
      <point x="303" y="88" type="curve" smooth="yes"/>
      <point x="230" y="88"/>
      <point x="156" y="125"/>
      <point x="88" y="196" type="curve"/>
      <point x="19" y="114" type="line"/>
      <point x="93" y="32"/>
      <point x="197" y="-11"/>
    </contour>
  </outline>
</glyph>
<glyph name="T" format="2">
  <advance width="600"/>
  <unicode hex="0054"/>
  <anchor x="395" y="700" name="top"/>
  <anchor x="246" y="0" name="bottom"/>
  <outline>
    <contour>
      <point x="187" y="0" type="line"/>
      <point x="307" y="0" type="line"/>
      <point x="434" y="596" type="line"/>
      <point x="651" y="596" type="line"/>
      <point x="673" y="700" type="line"/>
      <point x="118" y="700" type="line"/>
      <point x="96" y="596" type="line"/>
      <point x="314" y="596" type="line"/>
    </contour>
  </outline>
</glyph>
<glyph name="U" format="2">
  <advance width="600"/>
  <unicode hex="0055"/>
  <anchor x="392" y="700" name="top"/>
  <anchor x="353" y="0" name="bottom"/>
  <outline>
    <contour>
      <point x="274" y="-11" type="curve" smooth="yes"/>
      <point x="422" y="-11"/>
      <point x="512" y="82"/>
      <point x="545" y="236" type="curve" smooth="yes"/>
      <point x="645" y="700" type="line"/>
      <point x="525" y="700" type="line"/>
      <point x="428" y="247" type="line" smooth="yes"/>
      <point x="408" y="153"/>
      <point x="361" y="97"/>
      <point x="279" y="97" type="curve" smooth="yes"/>
      <point x="197" y="97"/>
      <point x="151" y="159"/>
      <point x="172" y="258" type="curve" smooth="yes"/>
      <point x="267" y="700" type="line"/>
      <point x="147" y="700" type="line"/>
      <point x="54" y="268" type="line" smooth="yes"/>
      <point x="17" y="92"/>
      <point x="118" y="-11"/>
    </contour>
  </outline>
</glyph>
<glyph name="V" format="2">
  <advance width="600"/>
  <unicode hex="0056"/>
  <outline>
    <contour>
      <point x="174" y="0" type="line"/>
      <point x="318" y="0" type="line"/>
      <point x="687" y="700" type="line"/>
      <point x="567" y="700" type="line"/>
      <point x="274" y="128" type="line"/>
      <point x="225" y="700" type="line"/>
      <point x="104" y="700" type="line"/>
    </contour>
  </outline>
</glyph>
<glyph name="W" format="2">
  <advance width="600"/>
  <unicode hex="0057"/>
  <anchor x="396" y="700" name="top"/>
  <outline>
    <contour>
      <point x="46" y="0" type="line"/>
      <point x="155" y="0" type="line"/>
      <point x="353" y="493" type="line"/>
      <point x="342" y="0" type="line"/>
      <point x="449" y="0" type="line"/>
      <point x="678" y="700" type="line"/>
      <point x="577" y="700" type="line"/>
      <point x="433" y="237" type="line"/>
      <point x="442" y="700" type="line"/>
      <point x="351" y="700" type="line"/>
      <point x="166" y="247" type="line"/>
      <point x="219" y="700" type="line"/>
      <point x="113" y="700" type="line"/>
    </contour>
  </outline>
</glyph>
<glyph name="X" format="2">
  <advance width="600"/>
  <unicode hex="0058"/>
  <outline>
    <contour>
      <point x="-37" y="0" type="line"/>
      <point x="96" y="0" type="line"/>
      <point x="305" y="261" type="line"/>
      <point x="407" y="0" type="line"/>
      <point x="530" y="0" type="line"/>
      <point x="387" y="354" type="line"/>
      <point x="669" y="700" type="line"/>
      <point x="536" y="700" type="line"/>
      <point x="348" y="464" type="line"/>
      <point x="256" y="700" type="line"/>
      <point x="133" y="700" type="line"/>
      <point x="266" y="371" type="line"/>
    </contour>
  </outline>
</glyph>
<glyph name="Y" format="2">
  <advance width="600"/>
  <unicode hex="0059"/>
  <anchor x="395" y="700" name="top"/>
  <outline>
    <contour>
      <point x="186" y="0" type="line"/>
      <point x="306" y="0" type="line"/>
      <point x="366" y="283" type="line"/>
      <point x="687" y="700" type="line"/>
      <point x="561" y="700" type="line"/>
      <point x="331" y="397" type="line"/>
      <point x="230" y="700" type="line"/>
      <point x="105" y="700" type="line"/>
      <point x="247" y="287" type="line"/>
    </contour>
  </outline>
</glyph>
<glyph name="Z" format="2">
  <advance width="600"/>
  <unicode hex="005A"/>
  <anchor x="393" y="700" name="top"/>
  <outline>
    <contour>
      <point x="-4" y="0" type="line"/>
      <point x="498" y="0" type="line"/>
      <point x="520" y="102" type="line"/>
      <point x="175" y="100" type="line"/>
      <point x="624" y="620" type="line"/>
      <point x="642" y="700" type="line"/>
      <point x="149" y="700" type="line"/>
      <point x="126" y="598" type="line"/>
      <point x="464" y="601" type="line"/>
      <point x="13" y="80" type="line"/>
    </contour>
  </outline>
</glyph>
<glyph name="bracketleft" format="2">
  <advance width="600"/>
  <unicode hex="005B"/>
  <outline>
    <contour>
      <point x="57" y="-215" type="line"/>
      <point x="376" y="-215" type="line"/>
      <point x="395" y="-125" type="line"/>
      <point x="180" y="-125" type="line"/>
      <point x="337" y="610" type="line"/>
      <point x="552" y="610" type="line"/>
      <point x="571" y="700" type="line"/>
      <point x="252" y="700" type="line"/>
    </contour>
  </outline>
</glyph>
<glyph name="backslash" format="2">
  <advance width="600"/>
  <unicode hex="005C"/>
  <outline>
    <contour>
      <point x="378" y="-209" type="line"/>
      <point x="485" y="-209" type="line"/>
      <point x="278" y="700" type="line"/>
      <point x="170" y="700" type="line"/>
    </contour>
  </outline>
</glyph>
<glyph name="bracketright" format="2">
  <advance width="600"/>
  <unicode hex="005D"/>
  <outline>
    <contour>
      <point x="540" y="700" type="line"/>
      <point x="220" y="700" type="line"/>
      <point x="201" y="610" type="line"/>
      <point x="416" y="610" type="line"/>
      <point x="259" y="-125" type="line"/>
      <point x="44" y="-125" type="line"/>
      <point x="25" y="-215" type="line"/>
      <point x="344" y="-215" type="line"/>
    </contour>
  </outline>
</glyph>
<glyph name="asciicircum" format="2">
  <advance width="600"/>
  <unicode hex="005E"/>
  <outline>
    <contour>
      <point x="100" y="350" type="line"/>
      <point x="195" y="350" type="line"/>
      <point x="379" y="611" type="line"/>
      <point x="452" y="350" type="line"/>
      <point x="541" y="350" type="line"/>
      <point x="443" y="700" type="line"/>
      <point x="349" y="700" type="line"/>
    </contour>
  </outline>
</glyph>
<glyph name="underscore" format="2">
  <advance width="600"/>
  <unicode hex="005F"/>
  <outline>
    <contour>
      <point x="-21" y="-161" type="line"/>
      <point x="446" y="-161" type="line"/>
      <point x="463" y="-80" type="line"/>
      <point x="-4" y="-80" type="line"/>
    </contour>
  </outline>
</glyph>
<glyph name="grave" format="2">
  <advance width="600"/>
  <unicode hex="0060"/>
  <outline>
    <contour>
      <point x="355" y="603" type="line"/>
      <point x="455" y="603" type="line"/>
      <point x="334" y="736" type="line"/>
      <point x="191" y="736" type="line"/>
    </contour>
  </outline>
</glyph>
<glyph name="a" format="2">
  <advance width="600"/>
  <unicode hex="0061"/>
  <anchor x="332" y="501" name="top"/>
  <anchor x="451" y="0" name="bottom"/>
  <outline>
    <contour>
      <point x="211" y="-7" type="curve" smooth="yes"/>
      <point x="259" y="-7"/>
      <point x="302" y="7"/>
      <point x="350" y="43" type="curve"/>
      <point x="341" y="0" type="line"/>
      <point x="451" y="0" type="line"/>
      <point x="518" y="304" type="line" smooth="yes"/>
      <point x="545" y="428"/>
      <point x="470" y="508"/>
      <point x="326" y="508" type="curve" smooth="yes"/>
      <point x="265" y="508"/>
      <point x="203" y="494"/>
      <point x="132" y="464" type="curve"/>
      <point x="160" y="382" type="line"/>
      <point x="217" y="405"/>
      <point x="261" y="416"/>
      <point x="300" y="416" type="curve" smooth="yes"/>
      <point x="388" y="416"/>
      <point x="424" y="377"/>
      <point x="407" y="300" type="curve" smooth="yes"/>
      <point x="397" y="254" type="line"/>
      <point x="355" y="279"/>
      <point x="302" y="292"/>
      <point x="249" y="292" type="curve" smooth="yes"/>
      <point x="126" y="292"/>
      <point x="47" y="229"/>
      <point x="47" y="130" type="curve" smooth="yes"/>
      <point x="47" y="46"/>
      <point x="111" y="-7"/>
    </contour>
    <contour>
      <point x="150" y="140" type="curve" smooth="yes"/>
      <point x="150" y="189"/>
      <point x="194" y="220"/>
      <point x="262" y="220" type="curve" smooth="yes"/>
      <point x="311" y="220"/>
      <point x="351" y="210"/>
      <point x="382" y="190" type="curve"/>
      <point x="364" y="107" type="line"/>
      <point x="328" y="81"/>
      <point x="291" y="70"/>
      <point x="249" y="70" type="curve" smooth="yes"/>
      <point x="187" y="70"/>
      <point x="150" y="97"/>
    </contour>
  </outline>
</glyph>
<glyph name="b" format="2">
  <advance width="600"/>
  <unicode hex="0062"/>
  <outline>
    <contour>
      <point x="299" y="-6" type="curve" smooth="yes"/>
      <point x="439" y="-6"/>
      <point x="552" y="124"/>
      <point x="552" y="280" type="curve" smooth="yes"/>
      <point x="552" y="407"/>
      <point x="470" y="504"/>
      <point x="362" y="504" type="curve" smooth="yes"/>
      <point x="312" y="504"/>
      <point x="267" y="487"/>
      <point x="229" y="448" type="curve"/>
      <point x="289" y="737" type="line"/>
      <point x="175" y="717" type="line"/>
      <point x="23" y="0" type="line"/>
      <point x="133" y="0" type="line"/>
      <point x="149" y="73" type="line"/>
      <point x="180" y="23"/>
      <point x="235" y="-6"/>
    </contour>
    <contour>
      <point x="166" y="151" type="curve"/>
      <point x="212" y="367" type="line"/>
      <point x="241" y="396"/>
      <point x="280" y="413"/>
      <point x="319" y="413" type="curve" smooth="yes"/>
      <point x="395" y="413"/>
      <point x="443" y="354"/>
      <point x="443" y="272" type="curve" smooth="yes"/>
      <point x="443" y="169"/>
      <point x="372" y="88"/>
      <point x="280" y="88" type="curve" smooth="yes"/>
      <point x="232" y="88"/>
      <point x="189" y="113"/>
    </contour>
  </outline>
</glyph>
<glyph name="c" format="2">
  <advance width="600"/>
  <unicode hex="0063"/>
  <anchor x="341" y="501" name="top"/>
  <anchor x="283" y="0" name="bottom"/>
  <outline>
    <contour>
      <point x="285" y="-10" type="curve" smooth="yes"/>
      <point x="376" y="-10"/>
      <point x="455" y="27"/>
      <point x="509" y="96" type="curve"/>
      <point x="438" y="156" type="line"/>
      <point x="402" y="114"/>
      <point x="354" y="86"/>
      <point x="299" y="86" type="curve" smooth="yes"/>
      <point x="221" y="86"/>
      <point x="164" y="144"/>
      <point x="164" y="228" type="curve" smooth="yes"/>
      <point x="164" y="329"/>
      <point x="235" y="411"/>
      <point x="330" y="411" type="curve" smooth="yes"/>
      <point x="394" y="411"/>
      <point x="438" y="375"/>
      <point x="461" y="323" type="curve"/>
      <point x="553" y="378" type="line"/>
      <point x="519" y="455"/>
      <point x="437" y="509"/>
      <point x="335" y="509" type="curve" smooth="yes"/>
      <point x="179" y="509"/>
      <point x="54" y="380"/>
      <point x="54" y="218" type="curve" smooth="yes"/>
      <point x="54" y="85"/>
      <point x="150" y="-10"/>
    </contour>
  </outline>
</glyph>
<glyph name="e" format="2">
  <advance width="600"/>
  <unicode hex="0065"/>
  <anchor x="331" y="501" name="top"/>
  <anchor x="368" y="0" name="bottom"/>
  <outline>
    <contour>
      <point x="293" y="-10" type="curve" smooth="yes"/>
      <point x="371" y="-10"/>
      <point x="442" y="18"/>
      <point x="493" y="68" type="curve"/>
      <point x="438" y="136" type="line"/>
      <point x="395" y="100"/>
      <point x="352" y="83"/>
      <point x="304" y="83" type="curve" smooth="yes"/>
      <point x="224" y="83"/>
      <point x="164" y="139"/>
      <point x="160" y="223" type="curve"/>
      <point x="542" y="223" type="line"/>
      <point x="545" y="243"/>
      <point x="547" y="263"/>
      <point x="547" y="286" type="curve" smooth="yes"/>
      <point x="547" y="417"/>
      <point x="456" y="509"/>
      <point x="326" y="509" type="curve" smooth="yes"/>
      <point x="175" y="509"/>
      <point x="52" y="380"/>
      <point x="52" y="225" type="curve" smooth="yes"/>
      <point x="52" y="87"/>
      <point x="153" y="-10"/>
    </contour>
    <contour>
      <point x="169" y="294" type="line"/>
      <point x="190" y="366"/>
      <point x="249" y="417"/>
      <point x="321" y="417" type="curve" smooth="yes"/>
      <point x="392" y="417"/>
      <point x="442" y="366"/>
      <point x="445" y="294" type="curve"/>
    </contour>
  </outline>
</glyph>
<glyph name="f" format="2">
  <advance width="600"/>
  <unicode hex="0066"/>
  <outline>
    <contour>
      <point x="150" y="0" type="line"/>
      <point x="264" y="0" type="line"/>
      <point x="351" y="411" type="line"/>
      <point x="564" y="411" type="line"/>
      <point x="583" y="501" type="line"/>
      <point x="370" y="501" type="line"/>
      <point x="384" y="567" type="line" smooth="yes"/>
      <point x="398" y="634"/>
      <point x="428" y="657"/>
      <point x="489" y="657" type="curve" smooth="yes"/>
      <point x="526" y="657"/>
      <point x="563" y="651"/>
      <point x="607" y="631" type="curve"/>
      <point x="628" y="728" type="line"/>
      <point x="587" y="745"/>
      <point x="536" y="755"/>
      <point x="491" y="755" type="curve" smooth="yes"/>
      <point x="373" y="755"/>
      <point x="299" y="699"/>
      <point x="276" y="590" type="curve" smooth="yes"/>
      <point x="257" y="501" type="line"/>
      <point x="97" y="501" type="line"/>
      <point x="78" y="411" type="line"/>
      <point x="238" y="411" type="line"/>
    </contour>
  </outline>
</glyph>
<glyph name="g" format="2">
  <advance width="600"/>
  <unicode hex="0067"/>
  <anchor x="344" y="501" name="top"/>
  <outline>
    <contour>
      <point x="237" y="-219" type="curve" smooth="yes"/>
      <point x="354" y="-219"/>
      <point x="435" y="-157"/>
      <point x="459" y="-42" type="curve" smooth="yes"/>
      <point x="575" y="501" type="line"/>
      <point x="465" y="501" type="line"/>
      <point x="451" y="431" type="line"/>
      <point x="419" y="478"/>
      <point x="366" y="505"/>
      <point x="304" y="505" type="curve" smooth="yes"/>
      <point x="164" y="505"/>
      <point x="47" y="375"/>
      <point x="47" y="220" type="curve" smooth="yes"/>
      <point x="47" y="93"/>
      <point x="126" y="-5"/>
      <point x="233" y="-5" type="curve"/>
      <point x="284" y="-5"/>
      <point x="331" y="13"/>
      <point x="370" y="53" type="curve"/>
      <point x="352" y="-30" type="line" smooth="yes"/>
      <point x="339" y="-93"/>
      <point x="298" y="-127"/>
      <point x="236" y="-127" type="curve" smooth="yes"/>
      <point x="182" y="-127"/>
      <point x="125" y="-106"/>
      <point x="68" y="-66" type="curve"/>
      <point x="19" y="-147" type="line"/>
      <point x="78" y="-192"/>
      <point x="160" y="-219"/>
    </contour>
    <contour>
      <point x="281" y="87" type="curve"/>
      <point x="205" y="87"/>
      <point x="156" y="146"/>
      <point x="156" y="228" type="curve" smooth="yes"/>
      <point x="156" y="331"/>
      <point x="227" y="411"/>
      <point x="319" y="411" type="curve" smooth="yes"/>
      <point x="366" y="411"/>
      <point x="409" y="388"/>
      <point x="433" y="351" type="curve"/>
      <point x="387" y="131" type="line"/>
      <point x="356" y="103"/>
      <point x="319" y="87"/>
    </contour>
  </outline>
</glyph>
<glyph name="h" format="2">
  <advance width="600"/>
  <unicode hex="0068"/>
  <anchor x="236" y="700" name="top"/>
  <outline>
    <contour>
      <point x="31" y="0" type="line"/>
      <point x="143" y="0" type="line"/>
      <point x="220" y="360" type="line"/>
      <point x="254" y="399"/>
      <point x="294" y="418"/>
      <point x="337" y="418" type="curve" smooth="yes"/>
      <point x="404" y="418"/>
      <point x="439" y="367"/>
      <point x="422" y="292" type="curve" smooth="yes"/>
      <point x="360" y="0" type="line"/>
      <point x="472" y="0" type="line"/>
      <point x="539" y="316" type="line" smooth="yes"/>
      <point x="563" y="429"/>
      <point x="506" y="508"/>
      <point x="399" y="508" type="curve" smooth="yes"/>
      <point x="337" y="508"/>
      <point x="281" y="479"/>
      <point x="233" y="423" type="curve"/>
      <point x="300" y="737" type="line"/>
      <point x="184" y="717" type="line"/>
    </contour>
  </outline>
</glyph>
<glyph name="i" format="2">
  <advance width="600"/>
  <unicode hex="0069"/>
  <note>
Version created Wed Nov 11 16:21:20 2020
</note>
  <anchor x="355" y="501" name="top"/>
  <anchor x="445" y="0" name="bottom"/>
  <outline>
    <contour>
      <point x="376" y="600" type="curve" smooth="yes"/>
      <point x="425" y="600"/>
      <point x="465" y="640"/>
      <point x="465" y="688" type="curve" smooth="yes"/>
      <point x="465" y="728"/>
      <point x="432" y="760"/>
      <point x="392" y="760" type="curve" smooth="yes"/>
      <point x="345" y="760"/>
      <point x="304" y="718"/>
      <point x="304" y="671" type="curve" smooth="yes"/>
      <point x="304" y="631"/>
      <point x="335" y="600"/>
    </contour>
    <contour>
      <point x="374" y="-9" type="curve" smooth="yes"/>
      <point x="411" y="-9"/>
      <point x="454" y="-3"/>
      <point x="488" y="10" type="curve"/>
      <point x="508" y="106" type="line"/>
      <point x="469" y="92"/>
      <point x="439" y="88"/>
      <point x="407" y="88" type="curve" smooth="yes"/>
      <point x="348" y="88"/>
      <point x="322" y="115"/>
      <point x="336" y="182" type="curve" smooth="yes"/>
      <point x="406" y="501" type="line"/>
      <point x="113" y="501" type="line"/>
      <point x="93" y="411" type="line"/>
      <point x="273" y="411" type="line"/>
      <point x="223" y="185" type="line" smooth="yes"/>
      <point x="195" y="60"/>
      <point x="256" y="-9"/>
    </contour>
  </outline>
</glyph>
<glyph name="j" format="2">
  <advance width="600"/>
  <unicode hex="006A"/>
  <outline>
    <contour>
      <point x="468" y="600" type="curve" smooth="yes"/>
      <point x="517" y="600"/>
      <point x="557" y="640"/>
      <point x="557" y="688" type="curve" smooth="yes"/>
      <point x="557" y="728"/>
      <point x="525" y="760"/>
      <point x="485" y="760" type="curve" smooth="yes"/>
      <point x="438" y="760"/>
      <point x="396" y="718"/>
      <point x="396" y="671" type="curve" smooth="yes"/>
      <point x="396" y="631"/>
      <point x="427" y="600"/>
    </contour>
    <contour>
      <point x="167" y="-219" type="curve" smooth="yes"/>
      <point x="282" y="-219"/>
      <point x="355" y="-168"/>
      <point x="380" y="-46" type="curve" smooth="yes"/>
      <point x="497" y="501" type="line"/>
      <point x="140" y="501" type="line"/>
      <point x="121" y="411" type="line"/>
      <point x="364" y="411" type="line"/>
      <point x="271" y="-22" type="line" smooth="yes"/>
      <point x="255" y="-95"/>
      <point x="225" y="-121"/>
      <point x="164" y="-121" type="curve" smooth="yes"/>
      <point x="120" y="-121"/>
      <point x="71" y="-107"/>
      <point x="14" y="-81" type="curve"/>
      <point x="-6" y="-178" type="line"/>
      <point x="43" y="-204"/>
      <point x="106" y="-219"/>
    </contour>
  </outline>
</glyph>
<glyph name="k" format="2">
  <advance width="600"/>
  <unicode hex="006B"/>
  <anchor x="250" y="0" name="bottom"/>
  <outline>
    <contour>
      <point x="36" y="0" type="line"/>
      <point x="148" y="0" type="line"/>
      <point x="196" y="231" type="line"/>
      <point x="375" y="0" type="line"/>
      <point x="511" y="0" type="line"/>
      <point x="308" y="254" type="line"/>
      <point x="606" y="501" type="line"/>
      <point x="467" y="501" type="line"/>
      <point x="207" y="281" type="line"/>
      <point x="304" y="737" type="line"/>
      <point x="189" y="717" type="line"/>
    </contour>
  </outline>
</glyph>
<glyph name="l" format="2">
  <advance width="600"/>
  <unicode hex="006C"/>
  <guideline x="269" y="472" angle="77.99999999999999" color="0.999,0.001,0.001,0.999" identifier="fcRuPTquRh"/>
  <anchor x="369" y="700" name="top"/>
  <anchor x="336" y="0" name="bottom"/>
  <outline>
    <contour>
      <point x="357" y="-9" type="curve" smooth="yes"/>
      <point x="394" y="-9"/>
      <point x="437" y="-3"/>
      <point x="472" y="10" type="curve"/>
      <point x="492" y="106" type="line"/>
      <point x="453" y="92"/>
      <point x="423" y="88"/>
      <point x="391" y="88" type="curve" smooth="yes"/>
      <point x="331" y="88"/>
      <point x="305" y="115"/>
      <point x="320" y="182" type="curve" smooth="yes"/>
      <point x="436" y="727" type="line"/>
      <point x="143" y="727" type="line"/>
      <point x="124" y="638" type="line"/>
      <point x="303" y="638" type="line"/>
      <point x="207" y="185" type="line" smooth="yes"/>
      <point x="180" y="60"/>
      <point x="240" y="-9"/>
    </contour>
  </outline>
</glyph>
<glyph name="m" format="2">
  <advance width="600"/>
  <unicode hex="006D"/>
  <outline>
    <contour>
      <point x="-2" y="0" type="line"/>
      <point x="95" y="0" type="line"/>
      <point x="181" y="401" type="line"/>
      <point x="196" y="418"/>
      <point x="212" y="426"/>
      <point x="232" y="426" type="curve" smooth="yes"/>
      <point x="266" y="426"/>
      <point x="285" y="395"/>
      <point x="275" y="351" type="curve" smooth="yes"/>
      <point x="201" y="0" type="line"/>
      <point x="298" y="0" type="line"/>
      <point x="376" y="370" type="line" smooth="yes"/>
      <point x="378" y="379"/>
      <point x="379" y="389"/>
      <point x="379" y="398" type="curve"/>
      <point x="394" y="417"/>
      <point x="412" y="426"/>
      <point x="433" y="426" type="curve" smooth="yes"/>
      <point x="467" y="426"/>
      <point x="485" y="395"/>
      <point x="476" y="351" type="curve" smooth="yes"/>
      <point x="401" y="0" type="line"/>
      <point x="498" y="0" type="line"/>
      <point x="578" y="374" type="line" smooth="yes"/>
      <point x="594" y="454"/>
      <point x="553" y="509"/>
      <point x="485" y="509" type="curve" smooth="yes"/>
      <point x="442" y="509"/>
      <point x="404" y="488"/>
      <point x="374" y="446" type="curve"/>
      <point x="361" y="485"/>
      <point x="328" y="509"/>
      <point x="284" y="509" type="curve" smooth="yes"/>
      <point x="250" y="509"/>
      <point x="220" y="492"/>
      <point x="193" y="460" type="curve"/>
      <point x="202" y="501" type="line"/>
      <point x="105" y="501" type="line"/>
    </contour>
  </outline>
</glyph>
<glyph name="n" format="2">
  <advance width="600"/>
  <unicode hex="006E"/>
  <guideline x="431" y="366" angle="168.0" identifier="ekDTT1ueO0"/>
  <anchor x="358" y="501" name="top"/>
  <anchor x="246" y="0" name="bottom"/>
  <outline>
    <contour>
      <point x="28" y="0" type="line"/>
      <point x="139" y="0" type="line"/>
      <point x="217" y="360" type="line"/>
      <point x="250" y="399"/>
      <point x="290" y="418"/>
      <point x="334" y="418" type="curve" smooth="yes"/>
      <point x="401" y="418"/>
      <point x="435" y="367"/>
      <point x="419" y="292" type="curve" smooth="yes"/>
      <point x="357" y="0" type="line"/>
      <point x="469" y="0" type="line"/>
      <point x="536" y="316" type="line" smooth="yes"/>
      <point x="560" y="429"/>
      <point x="503" y="508"/>
      <point x="396" y="508" type="curve" smooth="yes"/>
      <point x="334" y="508"/>
      <point x="278" y="479"/>
      <point x="231" y="423" type="curve"/>
      <point x="247" y="501" type="line"/>
      <point x="135" y="501" type="line"/>
    </contour>
  </outline>
</glyph>
<glyph name="o" format="2">
  <advance width="600"/>
  <unicode hex="006F"/>
  <anchor x="334" y="498" name="top"/>
  <outline>
    <contour>
      <point x="276" y="-10" type="curve" smooth="yes"/>
      <point x="425" y="-10"/>
      <point x="547" y="119"/>
      <point x="547" y="276" type="curve" smooth="yes"/>
      <point x="547" y="412"/>
      <point x="454" y="509"/>
      <point x="322" y="509" type="curve" smooth="yes"/>
      <point x="173" y="509"/>
      <point x="52" y="381"/>
      <point x="52" y="224" type="curve" smooth="yes"/>
      <point x="52" y="88"/>
      <point x="147" y="-10"/>
    </contour>
    <contour>
      <point x="283" y="88" type="curve" smooth="yes"/>
      <point x="210" y="88"/>
      <point x="161" y="143"/>
      <point x="161" y="227" type="curve" smooth="yes"/>
      <point x="161" y="330"/>
      <point x="230" y="412"/>
      <point x="316" y="412" type="curve" smooth="yes"/>
      <point x="390" y="412"/>
      <point x="437" y="356"/>
      <point x="437" y="273" type="curve" smooth="yes"/>
      <point x="437" y="168"/>
      <point x="370" y="88"/>
    </contour>
  </outline>
</glyph>
<glyph name="p" format="2">
  <advance width="600"/>
  <unicode hex="0070"/>
  <outline>
    <contour>
      <point x="-22" y="-209" type="line"/>
      <point x="89" y="-209" type="line"/>
      <point x="150" y="72" type="line"/>
      <point x="180" y="23"/>
      <point x="236" y="-5"/>
      <point x="299" y="-5" type="curve" smooth="yes"/>
      <point x="439" y="-5"/>
      <point x="552" y="125"/>
      <point x="552" y="280" type="curve" smooth="yes"/>
      <point x="552" y="408"/>
      <point x="470" y="505"/>
      <point x="362" y="505" type="curve"/>
      <point x="312" y="505"/>
      <point x="267" y="488"/>
      <point x="230" y="450" type="curve"/>
      <point x="240" y="501" type="line"/>
      <point x="130" y="501" type="line"/>
    </contour>
    <contour>
      <point x="280" y="89" type="curve" smooth="yes"/>
      <point x="233" y="89"/>
      <point x="189" y="113"/>
      <point x="166" y="151" type="curve"/>
      <point x="214" y="370" type="line"/>
      <point x="243" y="398"/>
      <point x="281" y="414"/>
      <point x="319" y="414" type="curve"/>
      <point x="395" y="414"/>
      <point x="443" y="355"/>
      <point x="443" y="272" type="curve" smooth="yes"/>
      <point x="443" y="169"/>
      <point x="372" y="89"/>
    </contour>
  </outline>
</glyph>
<glyph name="q" format="2">
  <advance width="600"/>
  <unicode hex="0071"/>
  <outline>
    <contour>
      <point x="314" y="-209" type="line"/>
      <point x="426" y="-209" type="line"/>
      <point x="577" y="501" type="line"/>
      <point x="467" y="501" type="line"/>
      <point x="452" y="428" type="line"/>
      <point x="422" y="476"/>
      <point x="367" y="505"/>
      <point x="303" y="505" type="curve" smooth="yes"/>
      <point x="163" y="505"/>
      <point x="47" y="375"/>
      <point x="47" y="219" type="curve" smooth="yes"/>
      <point x="47" y="92"/>
      <point x="126" y="-5"/>
      <point x="234" y="-5" type="curve" smooth="yes"/>
      <point x="286" y="-5"/>
      <point x="331" y="13"/>
      <point x="370" y="53" type="curve"/>
    </contour>
    <contour>
      <point x="280" y="86" type="curve" smooth="yes"/>
      <point x="204" y="86"/>
      <point x="156" y="145"/>
      <point x="156" y="227" type="curve" smooth="yes"/>
      <point x="156" y="331"/>
      <point x="227" y="411"/>
      <point x="319" y="411" type="curve" smooth="yes"/>
      <point x="367" y="411"/>
      <point x="410" y="387"/>
      <point x="433" y="349" type="curve"/>
      <point x="387" y="131" type="line"/>
      <point x="356" y="102"/>
      <point x="318" y="86"/>
    </contour>
  </outline>
</glyph>
<glyph name="r" format="2">
  <advance width="600"/>
  <unicode hex="0072"/>
  <anchor x="440" y="501" name="top"/>
  <anchor x="203" y="0" name="bottom"/>
  <outline>
    <contour>
      <point x="23" y="0" type="line"/>
      <point x="392" y="0" type="line"/>
      <point x="411" y="89" type="line"/>
      <point x="280" y="89" type="line"/>
      <point x="329" y="322" type="line"/>
      <point x="370" y="380"/>
      <point x="423" y="410"/>
      <point x="486" y="410" type="curve" smooth="yes"/>
      <point x="515" y="410"/>
      <point x="557" y="401"/>
      <point x="587" y="383" type="curve"/>
      <point x="610" y="487" type="line"/>
      <point x="584" y="503"/>
      <point x="555" y="510"/>
      <point x="522" y="510" type="curve" smooth="yes"/>
      <point x="447" y="510"/>
      <point x="389" y="468"/>
      <point x="343" y="385" type="curve"/>
      <point x="367" y="501" type="line"/>
      <point x="130" y="501" type="line"/>
      <point x="111" y="411" type="line"/>
      <point x="235" y="411" type="line"/>
      <point x="167" y="89" type="line"/>
      <point x="43" y="89" type="line"/>
    </contour>
  </outline>
</glyph>
<glyph name="s" format="2">
  <advance width="600"/>
  <unicode hex="0073"/>
  <anchor x="312" y="501" name="top"/>
  <anchor x="274" y="0" name="bottom"/>
  <outline>
    <contour>
      <point x="284" y="-10" type="curve" smooth="yes"/>
      <point x="406" y="-10"/>
      <point x="497" y="58"/>
      <point x="497" y="153" type="curve"/>
      <point x="497" y="338"/>
      <point x="201" y="262"/>
      <point x="201" y="364" type="curve" smooth="yes"/>
      <point x="201" y="400"/>
      <point x="235" y="423"/>
      <point x="295" y="423" type="curve" smooth="yes"/>
      <point x="351" y="423"/>
      <point x="411" y="398"/>
      <point x="464" y="352" type="curve"/>
      <point x="522" y="424" type="line"/>
      <point x="461" y="480"/>
      <point x="381" y="509"/>
      <point x="297" y="509" type="curve" smooth="yes"/>
      <point x="173" y="509"/>
      <point x="102" y="447"/>
      <point x="102" y="354" type="curve" smooth="yes"/>
      <point x="102" y="162"/>
      <point x="392" y="244"/>
      <point x="392" y="143" type="curve"/>
      <point x="392" y="103"/>
      <point x="352" y="76"/>
      <point x="290" y="76" type="curve" smooth="yes"/>
      <point x="229" y="76"/>
      <point x="171" y="96"/>
      <point x="104" y="156" type="curve"/>
      <point x="46" y="83" type="line"/>
      <point x="104" y="25"/>
      <point x="195" y="-10"/>
    </contour>
  </outline>
</glyph>
<glyph name="t" format="2">
  <advance width="600"/>
  <unicode hex="0074"/>
  <anchor x="312" y="0" name="bottom"/>
  <outline>
    <contour>
      <point x="343" y="-9" type="curve" smooth="yes"/>
      <point x="384" y="-9"/>
      <point x="434" y="0"/>
      <point x="470" y="14" type="curve"/>
      <point x="490" y="109" type="line"/>
      <point x="447" y="95"/>
      <point x="410" y="88"/>
      <point x="376" y="88" type="curve" smooth="yes"/>
      <point x="307" y="88"/>
      <point x="278" y="113"/>
      <point x="292" y="178" type="curve" smooth="yes"/>
      <point x="342" y="411" type="line"/>
      <point x="553" y="411" type="line"/>
      <point x="572" y="501" type="line"/>
      <point x="361" y="501" type="line"/>
      <point x="395" y="663" type="line"/>
      <point x="277" y="639" type="line"/>
      <point x="247" y="501" type="line"/>
      <point x="88" y="501" type="line"/>
      <point x="69" y="411" type="line"/>
      <point x="228" y="411" type="line"/>
      <point x="178" y="174" type="line" smooth="yes"/>
      <point x="154" y="61"/>
      <point x="215" y="-9"/>
    </contour>
  </outline>
</glyph>
<glyph name="u" format="2">
  <advance width="600"/>
  <unicode hex="0075"/>
  <anchor x="348" y="501" name="top"/>
  <anchor x="465" y="0" name="bottom"/>
  <outline>
    <contour>
      <point x="204" y="-7" type="curve" smooth="yes"/>
      <point x="266" y="-7"/>
      <point x="322" y="22"/>
      <point x="369" y="77" type="curve"/>
      <point x="353" y="0" type="line"/>
      <point x="465" y="0" type="line"/>
      <point x="572" y="501" type="line"/>
      <point x="461" y="501" type="line"/>
      <point x="383" y="141" type="line"/>
      <point x="350" y="102"/>
      <point x="310" y="82"/>
      <point x="266" y="82" type="curve" smooth="yes"/>
      <point x="199" y="82"/>
      <point x="165" y="133"/>
      <point x="181" y="209" type="curve" smooth="yes"/>
      <point x="243" y="501" type="line"/>
      <point x="131" y="501" type="line"/>
      <point x="64" y="185" type="line" smooth="yes"/>
      <point x="40" y="71"/>
      <point x="97" y="-7"/>
    </contour>
  </outline>
</glyph>
<glyph name="v" format="2">
  <advance width="600"/>
  <unicode hex="0076"/>
  <outline>
    <contour>
      <point x="190" y="0" type="line"/>
      <point x="298" y="0" type="line"/>
      <point x="615" y="501" type="line"/>
      <point x="494" y="501" type="line"/>
      <point x="273" y="132" type="line"/>
      <point x="206" y="501" type="line"/>
      <point x="91" y="501" type="line"/>
    </contour>
  </outline>
</glyph>
<glyph name="w" format="2">
  <advance width="600"/>
  <unicode hex="0077"/>
  <anchor x="355" y="501" name="top"/>
  <outline>
    <contour>
      <point x="72" y="0" type="line"/>
      <point x="168" y="0" type="line"/>
      <point x="323" y="354" type="line"/>
      <point x="326" y="0" type="line"/>
      <point x="419" y="0" type="line"/>
      <point x="623" y="501" type="line"/>
      <point x="532" y="501" type="line"/>
      <point x="404" y="157" type="line"/>
      <point x="397" y="501" type="line"/>
      <point x="311" y="501" type="line"/>
      <point x="157" y="156" type="line"/>
      <point x="175" y="501" type="line"/>
      <point x="83" y="501" type="line"/>
    </contour>
  </outline>
</glyph>
<glyph name="x" format="2">
  <advance width="600"/>
  <unicode hex="0078"/>
  <outline>
    <contour>
      <point x="-16" y="0" type="line"/>
      <point x="117" y="0" type="line"/>
      <point x="285" y="175" type="line"/>
      <point x="380" y="0" type="line"/>
      <point x="503" y="0" type="line"/>
      <point x="363" y="251" type="line"/>
      <point x="607" y="501" type="line"/>
      <point x="474" y="501" type="line"/>
      <point x="317" y="337" type="line"/>
      <point x="231" y="501" type="line"/>
      <point x="108" y="501" type="line"/>
      <point x="239" y="262" type="line"/>
    </contour>
  </outline>
</glyph>
<glyph name="y" format="2">
  <advance width="600"/>
  <unicode hex="0079"/>
  <anchor x="343" y="501" name="top"/>
  <outline>
    <contour>
      <point x="60" y="-219" type="curve" smooth="yes"/>
      <point x="141" y="-219"/>
      <point x="188" y="-188"/>
      <point x="242" y="-99" type="curve" smooth="yes"/>
      <point x="607" y="501" type="line"/>
      <point x="486" y="501" type="line"/>
      <point x="261" y="116" type="line"/>
      <point x="204" y="501" type="line"/>
      <point x="90" y="501" type="line"/>
      <point x="175" y="-12" type="line"/>
      <point x="141" y="-67" type="line" smooth="yes"/>
      <point x="118" y="-107"/>
      <point x="101" y="-118"/>
      <point x="63" y="-118" type="curve" smooth="yes"/>
      <point x="40" y="-118"/>
      <point x="9" y="-110"/>
      <point x="-20" y="-97" type="curve"/>
      <point x="-41" y="-195" type="line"/>
      <point x="-9" y="-211"/>
      <point x="31" y="-219"/>
    </contour>
  </outline>
</glyph>
<glyph name="z" format="2">
  <advance width="600"/>
  <unicode hex="007A"/>
  <anchor x="350" y="501" name="top"/>
  <outline>
    <contour>
      <point x="25" y="0" type="line"/>
      <point x="468" y="0" type="line"/>
      <point x="489" y="97" type="line"/>
      <point x="196" y="96" type="line"/>
      <point x="554" y="418" type="line"/>
      <point x="571" y="501" type="line"/>
      <point x="135" y="501" type="line"/>
      <point x="116" y="402" type="line"/>
      <point x="398" y="404" type="line"/>
      <point x="42" y="83" type="line"/>
    </contour>
  </outline>
</glyph>
<glyph name="braceleft" format="2">
  <advance width="600"/>
  <unicode hex="007B"/>
  <outline>
    <contour>
      <point x="270" y="-220" type="curve" smooth="yes"/>
      <point x="307" y="-220"/>
      <point x="343" y="-212"/>
      <point x="378" y="-196" type="curve"/>
      <point x="370" y="-115" type="line"/>
      <point x="347" y="-125"/>
      <point x="317" y="-133"/>
      <point x="291" y="-133" type="curve" smooth="yes"/>
      <point x="248" y="-133"/>
      <point x="224" y="-112"/>
      <point x="224" y="-80" type="curve" smooth="yes"/>
      <point x="224" y="-18"/>
      <point x="346" y="68"/>
      <point x="346" y="147" type="curve" smooth="yes"/>
      <point x="346" y="190"/>
      <point x="317" y="226"/>
      <point x="269" y="241" type="curve"/>
      <point x="336" y="255"/>
      <point x="389" y="305"/>
      <point x="389" y="372" type="curve" smooth="yes"/>
      <point x="389" y="428"/>
      <point x="351" y="494"/>
      <point x="351" y="544" type="curve" smooth="yes"/>
      <point x="351" y="589"/>
      <point x="380" y="622"/>
      <point x="437" y="622" type="curve" smooth="yes"/>
      <point x="467" y="622"/>
      <point x="495" y="613"/>
      <point x="525" y="595" type="curve"/>
      <point x="561" y="676" type="line"/>
      <point x="520" y="699"/>
      <point x="480" y="710"/>
      <point x="432" y="710" type="curve" smooth="yes"/>
      <point x="319" y="710"/>
      <point x="256" y="640"/>
      <point x="256" y="553" type="curve" smooth="yes"/>
      <point x="256" y="485"/>
      <point x="296" y="427"/>
      <point x="296" y="375" type="curve" smooth="yes"/>
      <point x="296" y="325"/>
      <point x="255" y="289"/>
      <point x="201" y="289" type="curve" smooth="yes"/>
      <point x="114" y="289" type="line"/>
      <point x="96" y="203" type="line"/>
      <point x="183" y="203" type="line" smooth="yes"/>
      <point x="225" y="203"/>
      <point x="250" y="178"/>
      <point x="250" y="145" type="curve" smooth="yes"/>
      <point x="250" y="75"/>
      <point x="119" y="-2"/>
      <point x="119" y="-102" type="curve" smooth="yes"/>
      <point x="119" y="-169"/>
      <point x="175" y="-220"/>
    </contour>
  </outline>
</glyph>
<glyph name="bar" format="2">
  <advance width="600"/>
  <unicode hex="007C"/>
  <outline>
    <contour>
      <point x="151" y="-209" type="line"/>
      <point x="252" y="-209" type="line"/>
      <point x="447" y="700" type="line"/>
      <point x="345" y="700" type="line"/>
    </contour>
  </outline>
</glyph>
<glyph name="braceright" format="2">
  <advance width="600"/>
  <unicode hex="007D"/>
  <outline>
    <contour>
      <point x="327" y="710" type="curve" smooth="yes"/>
      <point x="290" y="710"/>
      <point x="254" y="701"/>
      <point x="219" y="686" type="curve"/>
      <point x="227" y="604" type="line"/>
      <point x="250" y="614"/>
      <point x="280" y="622"/>
      <point x="306" y="622" type="curve" smooth="yes"/>
      <point x="349" y="622"/>
      <point x="373" y="601"/>
      <point x="373" y="570" type="curve" smooth="yes"/>
      <point x="373" y="507"/>
      <point x="251" y="422"/>
      <point x="251" y="342" type="curve" smooth="yes"/>
      <point x="251" y="299"/>
      <point x="280" y="263"/>
      <point x="328" y="248" type="curve"/>
      <point x="261" y="234"/>
      <point x="208" y="185"/>
      <point x="208" y="117" type="curve" smooth="yes"/>
      <point x="208" y="61"/>
      <point x="246" y="-4"/>
      <point x="246" y="-55" type="curve" smooth="yes"/>
      <point x="246" y="-99"/>
      <point x="217" y="-133"/>
      <point x="160" y="-133" type="curve" smooth="yes"/>
      <point x="130" y="-133"/>
      <point x="102" y="-123"/>
      <point x="71" y="-106" type="curve"/>
      <point x="36" y="-186" type="line"/>
      <point x="77" y="-210"/>
      <point x="117" y="-221"/>
      <point x="165" y="-221" type="curve" smooth="yes"/>
      <point x="278" y="-221"/>
      <point x="341" y="-151"/>
      <point x="341" y="-64" type="curve" smooth="yes"/>
      <point x="341" y="5"/>
      <point x="301" y="62"/>
      <point x="301" y="114" type="curve" smooth="yes"/>
      <point x="301" y="164"/>
      <point x="342" y="200"/>
      <point x="396" y="200" type="curve" smooth="yes"/>
      <point x="483" y="200" type="line"/>
      <point x="501" y="287" type="line"/>
      <point x="413" y="287" type="line" smooth="yes"/>
      <point x="372" y="287"/>
      <point x="347" y="311"/>
      <point x="347" y="344" type="curve" smooth="yes"/>
      <point x="347" y="414"/>
      <point x="478" y="492"/>
      <point x="478" y="591" type="curve" smooth="yes"/>
      <point x="478" y="659"/>
      <point x="422" y="710"/>
    </contour>
  </outline>
</glyph>
<glyph name="asciitilde" format="2">
  <advance width="600"/>
  <unicode hex="007E"/>
  <outline>
    <contour>
      <point x="143" y="302" type="line"/>
      <point x="160" y="353"/>
      <point x="185" y="378"/>
      <point x="216" y="378" type="curve" smooth="yes"/>
      <point x="232" y="378"/>
      <point x="246" y="373"/>
      <point x="274" y="356" type="curve" smooth="yes"/>
      <point x="340" y="313" type="line" smooth="yes"/>
      <point x="379" y="289"/>
      <point x="408" y="279"/>
      <point x="438" y="279" type="curve" smooth="yes"/>
      <point x="501" y="279"/>
      <point x="553" y="330"/>
      <point x="584" y="426" type="curve"/>
      <point x="508" y="444" type="line"/>
      <point x="490" y="392"/>
      <point x="466" y="367"/>
      <point x="435" y="367" type="curve" smooth="yes"/>
      <point x="419" y="367"/>
      <point x="404" y="373"/>
      <point x="377" y="390" type="curve" smooth="yes"/>
      <point x="311" y="432" type="line" smooth="yes"/>
      <point x="271" y="457"/>
      <point x="242" y="467"/>
      <point x="213" y="467" type="curve" smooth="yes"/>
      <point x="150" y="467"/>
      <point x="98" y="415"/>
      <point x="67" y="320" type="curve"/>
    </contour>
  </outline>
</glyph>
<glyph name="exclamdown" format="2">
  <advance width="600"/>
  <unicode hex="00A1"/>
  <outline>
    <contour>
      <point x="354" y="291" type="line"/>
      <point x="269" y="291" type="line"/>
      <point x="148" y="-209" type="line"/>
      <point x="260" y="-209" type="line"/>
    </contour>
    <contour>
      <point x="350" y="528" type="curve" smooth="yes"/>
      <point x="304" y="528"/>
      <point x="263" y="485"/>
      <point x="263" y="438" type="curve" smooth="yes"/>
      <point x="263" y="397"/>
      <point x="293" y="366"/>
      <point x="332" y="366" type="curve" smooth="yes"/>
      <point x="379" y="366"/>
      <point x="420" y="407"/>
      <point x="420" y="456" type="curve" smooth="yes"/>
      <point x="420" y="496"/>
      <point x="390" y="528"/>
    </contour>
  </outline>
</glyph>
<glyph name="cent" format="2">
  <advance width="600"/>
  <unicode hex="00A2"/>
  <outline>
    <contour>
      <point x="199" y="-115" type="line"/>
      <point x="263" y="-115" type="line"/>
      <point x="285" y="-10" type="line"/>
      <point x="286" y="-10"/>
      <point x="287" y="-10"/>
      <point x="287" y="-10" type="curve" smooth="yes"/>
      <point x="378" y="-10"/>
      <point x="457" y="27"/>
      <point x="511" y="96" type="curve"/>
      <point x="440" y="156" type="line"/>
      <point x="405" y="115"/>
      <point x="359" y="88"/>
      <point x="306" y="86" type="curve"/>
      <point x="374" y="405" type="line"/>
      <point x="415" y="393"/>
      <point x="445" y="363"/>
      <point x="464" y="323" type="curve"/>
      <point x="555" y="378" type="line"/>
      <point x="528" y="440"/>
      <point x="469" y="487"/>
      <point x="394" y="503" type="curve"/>
      <point x="418" y="615" type="line"/>
      <point x="354" y="615" type="line"/>
      <point x="332" y="509" type="line"/>
      <point x="179" y="506"/>
      <point x="56" y="379"/>
      <point x="56" y="218" type="curve" smooth="yes"/>
      <point x="56" y="107"/>
      <point x="123" y="23"/>
      <point x="223" y="-3" type="curve"/>
    </contour>
    <contour>
      <point x="166" y="228" type="curve" smooth="yes"/>
      <point x="166" y="321"/>
      <point x="227" y="398"/>
      <point x="310" y="409" type="curve"/>
      <point x="245" y="99" type="line"/>
      <point x="197" y="118"/>
      <point x="166" y="166"/>
    </contour>
  </outline>
</glyph>
<glyph name="sterling" format="2">
  <advance width="600"/>
  <unicode hex="00A3"/>
  <outline>
    <contour>
      <point x="384" y="-25" type="curve" smooth="yes"/>
      <point x="451" y="-25"/>
      <point x="505" y="7"/>
      <point x="549" y="75" type="curve"/>
      <point x="477" y="128" type="line"/>
      <point x="450" y="90"/>
      <point x="422" y="71"/>
      <point x="385" y="71" type="curve" smooth="yes"/>
      <point x="346" y="71"/>
      <point x="292" y="96"/>
      <point x="238" y="113" type="curve"/>
      <point x="268" y="143"/>
      <point x="282" y="190"/>
      <point x="282" y="246" type="curve" smooth="yes"/>
      <point x="282" y="256"/>
      <point x="282" y="271"/>
      <point x="281" y="288" type="curve"/>
      <point x="405" y="288" type="line"/>
      <point x="419" y="357" type="line"/>
      <point x="277" y="357" type="line"/>
      <point x="275" y="399"/>
      <point x="273" y="441"/>
      <point x="273" y="464" type="curve" smooth="yes"/>
      <point x="273" y="557"/>
      <point x="321" y="617"/>
      <point x="393" y="617" type="curve" smooth="yes"/>
      <point x="457" y="617"/>
      <point x="493" y="575"/>
      <point x="507" y="500" type="curve"/>
      <point x="606" y="523" type="line"/>
      <point x="582" y="643"/>
      <point x="511" y="711"/>
      <point x="394" y="711" type="curve" smooth="yes"/>
      <point x="264" y="711"/>
      <point x="168" y="611"/>
      <point x="168" y="463" type="curve" smooth="yes"/>
      <point x="168" y="438"/>
      <point x="170" y="398"/>
      <point x="173" y="357" type="curve"/>
      <point x="86" y="357" type="line"/>
      <point x="72" y="288" type="line"/>
      <point x="178" y="288" type="line"/>
      <point x="179" y="265"/>
      <point x="180" y="243"/>
      <point x="180" y="226" type="curve" smooth="yes"/>
      <point x="180" y="185"/>
      <point x="169" y="153"/>
      <point x="149" y="129" type="curve"/>
      <point x="81" y="126"/>
      <point x="27" y="90"/>
      <point x="-16" y="26" type="curve"/>
      <point x="58" y="-28" type="line"/>
      <point x="87" y="12"/>
      <point x="116" y="35"/>
      <point x="152" y="35" type="curve" smooth="yes"/>
      <point x="213" y="35"/>
      <point x="298" y="-25"/>
    </contour>
  </outline>
</glyph>
<glyph name="uni00A4" format="2">
  <advance width="600"/>
  <unicode hex="00A4"/>
  <outline>
    <contour>
      <point x="83" y="53" type="line"/>
      <point x="178" y="148" type="line"/>
      <point x="222" y="117"/>
      <point x="276" y="98"/>
      <point x="336" y="98" type="curve" smooth="yes"/>
      <point x="395" y="98"/>
      <point x="448" y="116"/>
      <point x="492" y="148" type="curve"/>
      <point x="588" y="52" type="line"/>
      <point x="644" y="109" type="line"/>
      <point x="549" y="204" type="line"/>
      <point x="582" y="248"/>
      <point x="601" y="303"/>
      <point x="601" y="362" type="curve" smooth="yes"/>
      <point x="601" y="423"/>
      <point x="581" y="478"/>
      <point x="548" y="522" type="curve"/>
      <point x="643" y="618" type="line"/>
      <point x="588" y="673" type="line"/>
      <point x="492" y="577" type="line"/>
      <point x="448" y="609"/>
      <point x="395" y="627"/>
      <point x="336" y="627" type="curve" smooth="yes"/>
      <point x="277" y="627"/>
      <point x="224" y="609"/>
      <point x="180" y="577" type="curve"/>
      <point x="84" y="674" type="line"/>
      <point x="28" y="617" type="line"/>
      <point x="122" y="521" type="line"/>
      <point x="89" y="477"/>
      <point x="70" y="423"/>
      <point x="70" y="362" type="curve" smooth="yes"/>
      <point x="70" y="302"/>
      <point x="89" y="247"/>
      <point x="122" y="203" type="curve"/>
      <point x="28" y="109" type="line"/>
    </contour>
    <contour>
      <point x="336" y="196" type="curve" smooth="yes"/>
      <point x="247" y="196"/>
      <point x="177" y="269"/>
      <point x="177" y="362" type="curve" smooth="yes"/>
      <point x="177" y="456"/>
      <point x="247" y="530"/>
      <point x="336" y="530" type="curve" smooth="yes"/>
      <point x="424" y="530"/>
      <point x="494" y="456"/>
      <point x="494" y="362" type="curve" smooth="yes"/>
      <point x="494" y="269"/>
      <point x="425" y="196"/>
    </contour>
  </outline>
</glyph>
<glyph name="yen" format="2">
  <advance width="600"/>
  <unicode hex="00A5"/>
  <outline>
    <contour>
      <point x="186" y="0" type="line"/>
      <point x="306" y="0" type="line"/>
      <point x="334" y="132" type="line"/>
      <point x="501" y="132" type="line"/>
      <point x="515" y="198" type="line"/>
      <point x="348" y="198" type="line"/>
      <point x="362" y="263" type="line"/>
      <point x="529" y="263" type="line"/>
      <point x="542" y="330" type="line"/>
      <point x="402" y="330" type="line"/>
      <point x="687" y="700" type="line"/>
      <point x="561" y="700" type="line"/>
      <point x="331" y="397" type="line"/>
      <point x="230" y="700" type="line"/>
      <point x="105" y="700" type="line"/>
      <point x="233" y="330" type="line"/>
      <point x="90" y="330" type="line"/>
      <point x="77" y="263" type="line"/>
      <point x="242" y="263" type="line"/>
      <point x="228" y="198" type="line"/>
      <point x="63" y="198" type="line"/>
      <point x="49" y="132" type="line"/>
      <point x="214" y="132" type="line"/>
    </contour>
  </outline>
</glyph>
<glyph name="uni00A6" format="2">
  <advance width="600"/>
  <unicode hex="00A6"/>
  <outline>
    <contour>
      <point x="255" y="287" type="line"/>
      <point x="359" y="287" type="line"/>
      <point x="448" y="700" type="line"/>
      <point x="343" y="700" type="line"/>
    </contour>
    <contour>
      <point x="150" y="-209" type="line"/>
      <point x="254" y="-209" type="line"/>
      <point x="342" y="204" type="line"/>
      <point x="238" y="204" type="line"/>
    </contour>
  </outline>
</glyph>
<glyph name="section" format="2">
  <advance width="600"/>
  <unicode hex="00A7"/>
  <outline>
    <contour>
      <point x="259" y="-50" type="curve" smooth="yes"/>
      <point x="363" y="-50"/>
      <point x="437" y="14"/>
      <point x="437" y="104" type="curve" smooth="yes"/>
      <point x="437" y="133"/>
      <point x="428" y="157"/>
      <point x="411" y="178" type="curve"/>
      <point x="491" y="196"/>
      <point x="541" y="252"/>
      <point x="541" y="328" type="curve" smooth="yes"/>
      <point x="541" y="383"/>
      <point x="511" y="420"/>
      <point x="432" y="461" type="curve" smooth="yes"/>
      <point x="339" y="509" type="line" smooth="yes"/>
      <point x="307" y="525"/>
      <point x="294" y="543"/>
      <point x="294" y="569" type="curve" smooth="yes"/>
      <point x="294" y="607"/>
      <point x="325" y="634"/>
      <point x="369" y="634" type="curve" smooth="yes"/>
      <point x="413" y="634"/>
      <point x="463" y="612"/>
      <point x="514" y="570" type="curve"/>
      <point x="571" y="637" type="line"/>
      <point x="514" y="684"/>
      <point x="443" y="711"/>
      <point x="373" y="711" type="curve" smooth="yes"/>
      <point x="270" y="711"/>
      <point x="197" y="647"/>
      <point x="197" y="557" type="curve" smooth="yes"/>
      <point x="197" y="528"/>
      <point x="205" y="503"/>
      <point x="223" y="482" type="curve"/>
      <point x="143" y="463"/>
      <point x="92" y="408"/>
      <point x="92" y="333" type="curve" smooth="yes"/>
      <point x="92" y="278"/>
      <point x="123" y="240"/>
      <point x="200" y="200" type="curve" smooth="yes"/>
      <point x="293" y="152" type="line" smooth="yes"/>
      <point x="324" y="135"/>
      <point x="338" y="117"/>
      <point x="338" y="92" type="curve" smooth="yes"/>
      <point x="338" y="53"/>
      <point x="308" y="27"/>
      <point x="263" y="27" type="curve" smooth="yes"/>
      <point x="219" y="27"/>
      <point x="170" y="48"/>
      <point x="118" y="90" type="curve"/>
      <point x="61" y="24" type="line"/>
      <point x="118" y="-24"/>
      <point x="189" y="-50"/>
    </contour>
    <contour>
      <point x="349" y="228" type="curve"/>
      <point x="241" y="282" type="line" smooth="yes"/>
      <point x="202" y="302"/>
      <point x="185" y="324"/>
      <point x="185" y="352" type="curve" smooth="yes"/>
      <point x="185" y="397"/>
      <point x="227" y="429"/>
      <point x="285" y="431" type="curve"/>
      <point x="391" y="379" type="line" smooth="yes"/>
      <point x="430" y="359"/>
      <point x="448" y="337"/>
      <point x="448" y="309" type="curve" smooth="yes"/>
      <point x="448" y="264"/>
      <point x="407" y="231"/>
    </contour>
  </outline>
</glyph>
<glyph name="dieresis" format="2">
  <advance width="600"/>
  <unicode hex="00A8"/>
  <outline>
    <contour>
      <point x="272" y="603" type="curve" smooth="yes"/>
      <point x="314" y="603"/>
      <point x="350" y="640"/>
      <point x="350" y="681" type="curve" smooth="yes"/>
      <point x="350" y="717"/>
      <point x="322" y="745"/>
      <point x="287" y="745" type="curve" smooth="yes"/>
      <point x="245" y="745"/>
      <point x="209" y="709"/>
      <point x="209" y="667" type="curve" smooth="yes"/>
      <point x="209" y="631"/>
      <point x="236" y="603"/>
    </contour>
    <contour>
      <point x="486" y="603" type="curve" smooth="yes"/>
      <point x="528" y="603"/>
      <point x="564" y="640"/>
      <point x="564" y="681" type="curve" smooth="yes"/>
      <point x="564" y="717"/>
      <point x="536" y="745"/>
      <point x="501" y="745" type="curve" smooth="yes"/>
      <point x="459" y="745"/>
      <point x="423" y="708"/>
      <point x="423" y="667" type="curve" smooth="yes"/>
      <point x="423" y="631"/>
      <point x="450" y="603"/>
    </contour>
  </outline>
</glyph>
<glyph name="copyright" format="2">
  <advance width="600"/>
  <unicode hex="00A9"/>
  <outline>
    <contour>
      <point x="309" y="163" type="curve" smooth="yes"/>
      <point x="354" y="163"/>
      <point x="400" y="181"/>
      <point x="435" y="215" type="curve"/>
      <point x="400" y="272" type="line"/>
      <point x="371" y="247"/>
      <point x="345" y="236"/>
      <point x="318" y="236" type="curve" smooth="yes"/>
      <point x="268" y="236"/>
      <point x="235" y="273"/>
      <point x="235" y="331" type="curve" smooth="yes"/>
      <point x="235" y="403"/>
      <point x="283" y="466"/>
      <point x="344" y="466" type="curve" smooth="yes"/>
      <point x="377" y="466"/>
      <point x="405" y="447"/>
      <point x="427" y="414" type="curve"/>
      <point x="483" y="462" type="line"/>
      <point x="449" y="512"/>
      <point x="400" y="538"/>
      <point x="346" y="538" type="curve" smooth="yes"/>
      <point x="246" y="538"/>
      <point x="160" y="439"/>
      <point x="160" y="325" type="curve" smooth="yes"/>
      <point x="160" y="230"/>
      <point x="224" y="163"/>
    </contour>
    <contour>
      <point x="277" y="-11" type="curve" smooth="yes"/>
      <point x="465" y="-11"/>
      <point x="608" y="186"/>
      <point x="608" y="421" type="curve" smooth="yes"/>
      <point x="608" y="587"/>
      <point x="512" y="711"/>
      <point x="364" y="711" type="curve" smooth="yes"/>
      <point x="176" y="711"/>
      <point x="33" y="514"/>
      <point x="33" y="279" type="curve" smooth="yes"/>
      <point x="33" y="113"/>
      <point x="129" y="-11"/>
    </contour>
    <contour>
      <point x="280" y="39" type="curve" smooth="yes"/>
      <point x="161" y="39"/>
      <point x="85" y="142"/>
      <point x="85" y="288" type="curve" smooth="yes"/>
      <point x="85" y="480"/>
      <point x="203" y="661"/>
      <point x="361" y="661" type="curve" smooth="yes"/>
      <point x="481" y="661"/>
      <point x="556" y="558"/>
      <point x="556" y="412" type="curve" smooth="yes"/>
      <point x="556" y="220"/>
      <point x="438" y="39"/>
    </contour>
  </outline>
</glyph>
<glyph name="ordfeminine" format="2">
  <advance width="600"/>
  <unicode hex="00AA"/>
  <outline>
    <contour>
      <point x="269" y="308" type="curve" smooth="yes"/>
      <point x="308" y="308"/>
      <point x="345" y="321"/>
      <point x="381" y="345" type="curve"/>
      <point x="375" y="315" type="line"/>
      <point x="464" y="315" type="line"/>
      <point x="514" y="548" type="line" smooth="yes"/>
      <point x="535" y="646"/>
      <point x="476" y="710"/>
      <point x="362" y="710" type="curve" smooth="yes"/>
      <point x="314" y="710"/>
      <point x="261" y="699"/>
      <point x="208" y="678" type="curve"/>
      <point x="228" y="609" type="line"/>
      <point x="272" y="625"/>
      <point x="309" y="633"/>
      <point x="341" y="633" type="curve" smooth="yes"/>
      <point x="409" y="633"/>
      <point x="437" y="604"/>
      <point x="426" y="551" type="curve" smooth="yes"/>
      <point x="419" y="518" type="line"/>
      <point x="386" y="534"/>
      <point x="346" y="543"/>
      <point x="307" y="543" type="curve" smooth="yes"/>
      <point x="203" y="543"/>
      <point x="141" y="491"/>
      <point x="141" y="414" type="curve" smooth="yes"/>
      <point x="141" y="351"/>
      <point x="190" y="308"/>
    </contour>
    <contour>
      <point x="304" y="375" type="curve" smooth="yes"/>
      <point x="256" y="375"/>
      <point x="228" y="392"/>
      <point x="228" y="423" type="curve" smooth="yes"/>
      <point x="228" y="458"/>
      <point x="260" y="483"/>
      <point x="312" y="483" type="curve" smooth="yes"/>
      <point x="349" y="483"/>
      <point x="381" y="473"/>
      <point x="406" y="459" type="curve"/>
      <point x="393" y="401" type="line"/>
      <point x="366" y="383"/>
      <point x="335" y="375"/>
    </contour>
  </outline>
</glyph>
<glyph name="guillemotleft" format="2">
  <advance width="600"/>
  <unicode hex="00AB"/>
  <outline>
    <contour>
      <point x="164" y="0" type="line"/>
      <point x="276" y="0" type="line"/>
      <point x="128" y="249" type="line"/>
      <point x="382" y="501" type="line"/>
      <point x="266" y="501" type="line"/>
      <point x="11" y="251" type="line"/>
    </contour>
    <contour>
      <point x="406" y="0" type="line"/>
      <point x="518" y="0" type="line"/>
      <point x="370" y="249" type="line"/>
      <point x="624" y="501" type="line"/>
      <point x="508" y="501" type="line"/>
      <point x="254" y="251" type="line"/>
    </contour>
  </outline>
</glyph>
<glyph name="uni00AC" format="2">
  <advance width="600"/>
  <unicode hex="00AC"/>
  <outline>
    <contour>
      <point x="367" y="0" type="line"/>
      <point x="475" y="0" type="line"/>
      <point x="546" y="332" type="line"/>
      <point x="79" y="332" type="line"/>
      <point x="59" y="238" type="line"/>
      <point x="417" y="238" type="line"/>
    </contour>
  </outline>
</glyph>
<glyph name="registered" format="2">
  <advance width="600"/>
  <unicode hex="00AE"/>
  <outline>
    <contour>
      <point x="269" y="413" type="line"/>
      <point x="308" y="413" type="line"/>
      <point x="323" y="482" type="line"/>
      <point x="349" y="482" type="line"/>
      <point x="372" y="413" type="line"/>
      <point x="413" y="413" type="line"/>
      <point x="390" y="487" type="line"/>
      <point x="415" y="498"/>
      <point x="431" y="523"/>
      <point x="431" y="548" type="curve" smooth="yes"/>
      <point x="431" y="582"/>
      <point x="412" y="601"/>
      <point x="378" y="601" type="curve" smooth="yes"/>
      <point x="309" y="601" type="line"/>
    </contour>
    <contour>
      <point x="368" y="568" type="line" smooth="yes"/>
      <point x="384" y="568"/>
      <point x="391" y="560"/>
      <point x="391" y="544" type="curve" smooth="yes"/>
      <point x="391" y="525"/>
      <point x="380" y="513"/>
      <point x="361" y="513" type="curve" smooth="yes"/>
      <point x="330" y="513" type="line"/>
      <point x="341" y="568" type="line"/>
    </contour>
    <contour>
      <point x="334" y="302" type="curve" smooth="yes"/>
      <point x="449" y="302"/>
      <point x="548" y="407"/>
      <point x="548" y="530" type="curve" smooth="yes"/>
      <point x="548" y="634"/>
      <point x="477" y="711"/>
      <point x="376" y="711" type="curve" smooth="yes"/>
      <point x="261" y="711"/>
      <point x="162" y="606"/>
      <point x="162" y="482" type="curve" smooth="yes"/>
      <point x="162" y="378"/>
      <point x="233" y="302"/>
    </contour>
    <contour>
      <point x="337" y="342" type="curve" smooth="yes"/>
      <point x="258" y="342"/>
      <point x="205" y="398"/>
      <point x="205" y="482" type="curve" smooth="yes"/>
      <point x="205" y="586"/>
      <point x="280" y="671"/>
      <point x="373" y="671" type="curve" smooth="yes"/>
      <point x="452" y="671"/>
      <point x="505" y="614"/>
      <point x="505" y="530" type="curve" smooth="yes"/>
      <point x="505" y="426"/>
      <point x="429" y="342"/>
    </contour>
  </outline>
</glyph>
<glyph name="macron" format="2">
  <advance width="600"/>
  <unicode hex="00AF"/>
  <anchor x="354" y="501" name="_top"/>
  <outline>
    <contour>
      <point x="234" y="629" type="line"/>
      <point x="526" y="629" type="line"/>
      <point x="542" y="702" type="line"/>
      <point x="249" y="702" type="line"/>
    </contour>
  </outline>
</glyph>
<glyph name="degree" format="2">
  <advance width="600"/>
  <unicode hex="00B0"/>
  <outline>
    <contour>
      <point x="349" y="420" type="curve" smooth="yes"/>
      <point x="439" y="420"/>
      <point x="513" y="496"/>
      <point x="513" y="587" type="curve" smooth="yes"/>
      <point x="513" y="657"/>
      <point x="457" y="710"/>
      <point x="384" y="710" type="curve" smooth="yes"/>
      <point x="295" y="710"/>
      <point x="221" y="634"/>
      <point x="221" y="543" type="curve" smooth="yes"/>
      <point x="221" y="474"/>
      <point x="277" y="420"/>
    </contour>
    <contour>
      <point x="352" y="483" type="curve" smooth="yes"/>
      <point x="316" y="483"/>
      <point x="286" y="514"/>
      <point x="286" y="552" type="curve" smooth="yes"/>
      <point x="286" y="604"/>
      <point x="329" y="647"/>
      <point x="381" y="647" type="curve" smooth="yes"/>
      <point x="419" y="647"/>
      <point x="449" y="616"/>
      <point x="449" y="578" type="curve" smooth="yes"/>
      <point x="449" y="526"/>
      <point x="405" y="483"/>
    </contour>
  </outline>
</glyph>
<glyph name="plusminus" format="2">
  <advance width="600"/>
  <unicode hex="00B1"/>
  <outline>
    <contour>
      <point x="36" y="-1" type="line"/>
      <point x="456" y="-1" type="line"/>
      <point x="475" y="89" type="line"/>
      <point x="55" y="89" type="line"/>
    </contour>
    <contour>
      <point x="244" y="189" type="line"/>
      <point x="330" y="189" type="line"/>
      <point x="365" y="353" type="line"/>
      <point x="531" y="353" type="line"/>
      <point x="550" y="442" type="line"/>
      <point x="384" y="442" type="line"/>
      <point x="419" y="605" type="line"/>
      <point x="332" y="605" type="line"/>
      <point x="297" y="442" type="line"/>
      <point x="131" y="442" type="line"/>
      <point x="111" y="353" type="line"/>
      <point x="278" y="353" type="line"/>
    </contour>
  </outline>
</glyph>
<glyph name="acute" format="2">
  <advance width="600"/>
  <unicode hex="00B4"/>
  <outline>
    <contour>
      <point x="279" y="603" type="line"/>
      <point x="382" y="603" type="line"/>
      <point x="571" y="736" type="line"/>
      <point x="428" y="736" type="line"/>
    </contour>
  </outline>
</glyph>
<glyph name="uni00B5" format="2">
  <advance width="600"/>
  <unicode hex="00B5"/>
  <outline>
    <contour>
      <point x="-22" y="-209" type="line"/>
      <point x="90" y="-209" type="line"/>
      <point x="138" y="15" type="line"/>
      <point x="154" y="1"/>
      <point x="176" y="-7"/>
      <point x="204" y="-7" type="curve" smooth="yes"/>
      <point x="266" y="-7"/>
      <point x="322" y="22"/>
      <point x="369" y="77" type="curve"/>
      <point x="353" y="0" type="line"/>
      <point x="465" y="0" type="line"/>
      <point x="572" y="501" type="line"/>
      <point x="461" y="501" type="line"/>
      <point x="383" y="141" type="line"/>
      <point x="350" y="102"/>
      <point x="310" y="82"/>
      <point x="266" y="82" type="curve" smooth="yes"/>
      <point x="199" y="82"/>
      <point x="165" y="132"/>
      <point x="180" y="207" type="curve"/>
      <point x="243" y="501" type="line"/>
      <point x="131" y="501" type="line"/>
    </contour>
  </outline>
</glyph>
<glyph name="paragraph" format="2">
  <advance width="600"/>
  <unicode hex="00B6"/>
  <outline>
    <contour>
      <point x="228" y="0" type="line"/>
      <point x="314" y="0" type="line"/>
      <point x="370" y="264" type="line"/>
      <point x="465" y="264" type="line"/>
      <point x="409" y="0" type="line"/>
      <point x="499" y="0" type="line"/>
      <point x="648" y="700" type="line"/>
      <point x="330" y="700" type="line" smooth="yes"/>
      <point x="183" y="700"/>
      <point x="84" y="598"/>
      <point x="84" y="457" type="curve" smooth="yes"/>
      <point x="84" y="345"/>
      <point x="156" y="265"/>
      <point x="274" y="265" type="curve" smooth="yes"/>
      <point x="284" y="265" type="line"/>
    </contour>
    <contour>
      <point x="485" y="356" type="line"/>
      <point x="390" y="356" type="line"/>
      <point x="443" y="607" type="line"/>
      <point x="538" y="607" type="line"/>
    </contour>
    <contour>
      <point x="282" y="356" type="line" smooth="yes"/>
      <point x="217" y="356"/>
      <point x="176" y="398"/>
      <point x="176" y="467" type="curve" smooth="yes"/>
      <point x="176" y="548"/>
      <point x="231" y="607"/>
      <point x="308" y="607" type="curve" smooth="yes"/>
      <point x="357" y="607" type="line"/>
      <point x="304" y="356" type="line"/>
    </contour>
  </outline>
</glyph>
<glyph name="periodcentered" format="2">
  <advance width="600"/>
  <unicode hex="00B7"/>
  <outline>
    <contour>
      <point x="302" y="213" type="curve" smooth="yes"/>
      <point x="351" y="213"/>
      <point x="392" y="257"/>
      <point x="392" y="304" type="curve" smooth="yes"/>
      <point x="392" y="347"/>
      <point x="360" y="381"/>
      <point x="318" y="381" type="curve" smooth="yes"/>
      <point x="268" y="381"/>
      <point x="226" y="339"/>
      <point x="226" y="290" type="curve" smooth="yes"/>
      <point x="226" y="246"/>
      <point x="259" y="213"/>
    </contour>
  </outline>
</glyph>
<glyph name="ordmasculine" format="2">
  <advance width="600"/>
  <unicode hex="00BA"/>
  <outline>
    <contour>
      <point x="339" y="307" type="curve" smooth="yes"/>
      <point x="458" y="307"/>
      <point x="559" y="407"/>
      <point x="559" y="526" type="curve" smooth="yes"/>
      <point x="559" y="631"/>
      <point x="479" y="710"/>
      <point x="370" y="710" type="curve" smooth="yes"/>
      <point x="251" y="710"/>
      <point x="150" y="610"/>
      <point x="150" y="490" type="curve" smooth="yes"/>
      <point x="150" y="385"/>
      <point x="230" y="307"/>
    </contour>
    <contour>
      <point x="343" y="386" type="curve" smooth="yes"/>
      <point x="282" y="386"/>
      <point x="239" y="433"/>
      <point x="239" y="495" type="curve" smooth="yes"/>
      <point x="239" y="565"/>
      <point x="293" y="630"/>
      <point x="366" y="630" type="curve" smooth="yes"/>
      <point x="427" y="630"/>
      <point x="470" y="583"/>
      <point x="470" y="521" type="curve" smooth="yes"/>
      <point x="470" y="452"/>
      <point x="416" y="386"/>
    </contour>
  </outline>
</glyph>
<glyph name="guillemotright" format="2">
  <advance width="600"/>
  <unicode hex="00BB"/>
  <outline>
    <contour>
      <point x="436" y="501" type="line"/>
      <point x="324" y="501" type="line"/>
      <point x="472" y="252" type="line"/>
      <point x="218" y="0" type="line"/>
      <point x="334" y="0" type="line"/>
      <point x="589" y="249" type="line"/>
    </contour>
    <contour>
      <point x="194" y="501" type="line"/>
      <point x="82" y="501" type="line"/>
      <point x="230" y="252" type="line"/>
      <point x="-24" y="0" type="line"/>
      <point x="92" y="0" type="line"/>
      <point x="346" y="249" type="line"/>
    </contour>
  </outline>
</glyph>
<glyph name="onequarter" format="2">
  <advance width="600"/>
  <unicode hex="00BC"/>
  <outline>
    <contour>
      <point x="138" y="416" type="line"/>
      <point x="204" y="416" type="line"/>
      <point x="264" y="700" type="line"/>
      <point x="223" y="700" type="line"/>
      <point x="134" y="666" type="line"/>
      <point x="121" y="608" type="line"/>
      <point x="183" y="631" type="line"/>
    </contour>
    <contour>
      <point x="411" y="0" type="line"/>
      <point x="477" y="0" type="line"/>
      <point x="490" y="63" type="line"/>
      <point x="524" y="63" type="line"/>
      <point x="535" y="115" type="line"/>
      <point x="501" y="115" type="line"/>
      <point x="537" y="284" type="line"/>
      <point x="461" y="284" type="line"/>
      <point x="283" y="116" type="line"/>
      <point x="272" y="63" type="line"/>
      <point x="425" y="63" type="line"/>
    </contour>
    <contour>
      <point x="349" y="115" type="line"/>
      <point x="457" y="216" type="line"/>
      <point x="436" y="115" type="line"/>
    </contour>
    <component base="fraction" xOffset="11"/>
  </outline>
</glyph>
<glyph name="onehalf" format="2">
  <advance width="600"/>
  <unicode hex="00BD"/>
  <outline>
    <contour>
      <point x="138" y="416" type="line"/>
      <point x="204" y="416" type="line"/>
      <point x="264" y="700" type="line"/>
      <point x="223" y="700" type="line"/>
      <point x="134" y="666" type="line"/>
      <point x="121" y="608" type="line"/>
      <point x="183" y="631" type="line"/>
    </contour>
    <contour>
      <point x="284" y="0" type="line"/>
      <point x="492" y="0" type="line"/>
      <point x="504" y="55" type="line"/>
      <point x="385" y="55" type="line"/>
      <point x="466" y="117" type="line" smooth="yes"/>
      <point x="510" y="151"/>
      <point x="528" y="178"/>
      <point x="528" y="213" type="curve" smooth="yes"/>
      <point x="528" y="257"/>
      <point x="491" y="288"/>
      <point x="434" y="288" type="curve" smooth="yes"/>
      <point x="396" y="288"/>
      <point x="357" y="271"/>
      <point x="320" y="243" type="curve"/>
      <point x="351" y="199" type="line"/>
      <point x="381" y="221"/>
      <point x="404" y="230"/>
      <point x="428" y="230" type="curve" smooth="yes"/>
      <point x="450" y="230"/>
      <point x="464" y="218"/>
      <point x="464" y="201" type="curve" smooth="yes"/>
      <point x="464" y="185"/>
      <point x="453" y="173"/>
      <point x="427" y="152" type="curve" smooth="yes"/>
      <point x="294" y="46" type="line"/>
    </contour>
    <component base="fraction" xOffset="-2"/>
  </outline>
</glyph>
<glyph name="threequarters" format="2">
  <advance width="600"/>
  <unicode hex="00BE"/>
  <outline>
    <contour>
      <point x="187" y="414" type="curve" smooth="yes"/>
      <point x="253" y="414"/>
      <point x="304" y="451"/>
      <point x="304" y="501" type="curve" smooth="yes"/>
      <point x="304" y="528"/>
      <point x="284" y="549"/>
      <point x="254" y="557" type="curve"/>
      <point x="297" y="565"/>
      <point x="325" y="596"/>
      <point x="325" y="633" type="curve" smooth="yes"/>
      <point x="325" y="676"/>
      <point x="286" y="706"/>
      <point x="226" y="706" type="curve" smooth="yes"/>
      <point x="187" y="706"/>
      <point x="145" y="692"/>
      <point x="113" y="668" type="curve"/>
      <point x="142" y="621" type="line"/>
      <point x="170" y="639"/>
      <point x="194" y="648"/>
      <point x="218" y="648" type="curve" smooth="yes"/>
      <point x="241" y="648"/>
      <point x="258" y="637"/>
      <point x="258" y="621" type="curve" smooth="yes"/>
      <point x="258" y="599"/>
      <point x="238" y="584"/>
      <point x="205" y="584" type="curve" smooth="yes"/>
      <point x="183" y="584" type="line"/>
      <point x="172" y="532" type="line"/>
      <point x="200" y="532" type="line" smooth="yes"/>
      <point x="225" y="532"/>
      <point x="240" y="522"/>
      <point x="240" y="506" type="curve" smooth="yes"/>
      <point x="240" y="487"/>
      <point x="222" y="471"/>
      <point x="189" y="471" type="curve" smooth="yes"/>
      <point x="159" y="471"/>
      <point x="134" y="484"/>
      <point x="115" y="505" type="curve"/>
      <point x="73" y="463" type="line"/>
      <point x="98" y="432"/>
      <point x="139" y="414"/>
    </contour>
    <contour>
      <point x="411" y="0" type="line"/>
      <point x="476" y="0" type="line"/>
      <point x="489" y="63" type="line"/>
      <point x="523" y="63" type="line"/>
      <point x="535" y="115" type="line"/>
      <point x="501" y="115" type="line"/>
      <point x="536" y="284" type="line"/>
      <point x="461" y="284" type="line"/>
      <point x="282" y="116" type="line"/>
      <point x="271" y="63" type="line"/>
      <point x="424" y="63" type="line"/>
    </contour>
    <contour>
      <point x="348" y="115" type="line"/>
      <point x="457" y="216" type="line"/>
      <point x="435" y="115" type="line"/>
    </contour>
    <component base="fraction" xOffset="32"/>
  </outline>
</glyph>
<glyph name="questiondown" format="2">
  <advance width="600"/>
  <unicode hex="00BF"/>
  <outline>
    <contour>
      <point x="377" y="261" type="curve"/>
      <point x="286" y="261" type="line"/>
      <point x="270" y="128"/>
      <point x="24" y="143"/>
      <point x="24" y="-57" type="curve" smooth="yes"/>
      <point x="24" y="-151"/>
      <point x="106" y="-219"/>
      <point x="224" y="-219" type="curve" smooth="yes"/>
      <point x="314" y="-219"/>
      <point x="402" y="-173"/>
      <point x="461" y="-94" type="curve"/>
      <point x="383" y="-44" type="line"/>
      <point x="345" y="-92"/>
      <point x="291" y="-122"/>
      <point x="236" y="-122" type="curve" smooth="yes"/>
      <point x="173" y="-122"/>
      <point x="132" y="-89"/>
      <point x="132" y="-42" type="curve" smooth="yes"/>
      <point x="132" y="90"/>
      <point x="359" y="71"/>
    </contour>
    <contour>
      <point x="367" y="499" type="curve" smooth="yes"/>
      <point x="321" y="499"/>
      <point x="281" y="456"/>
      <point x="281" y="409" type="curve" smooth="yes"/>
      <point x="281" y="368"/>
      <point x="310" y="337"/>
      <point x="349" y="337" type="curve" smooth="yes"/>
      <point x="396" y="337"/>
      <point x="437" y="379"/>
      <point x="437" y="427" type="curve" smooth="yes"/>
      <point x="437" y="468"/>
      <point x="407" y="499"/>
    </contour>
  </outline>
</glyph>
<glyph name="AE" format="2">
  <advance width="600"/>
  <unicode hex="00C6"/>
  <outline>
    <contour>
      <point x="-46" y="0" type="line"/>
      <point x="63" y="0" type="line"/>
      <point x="136" y="149" type="line"/>
      <point x="257" y="149" type="line"/>
      <point x="225" y="0" type="line"/>
      <point x="530" y="0" type="line"/>
      <point x="551" y="101" type="line"/>
      <point x="356" y="101" type="line"/>
      <point x="400" y="304" type="line"/>
      <point x="521" y="304" type="line"/>
      <point x="542" y="403" type="line"/>
      <point x="420" y="403" type="line"/>
      <point x="462" y="599" type="line"/>
      <point x="652" y="599" type="line"/>
      <point x="674" y="700" type="line"/>
      <point x="303" y="700" type="line"/>
    </contour>
    <contour>
      <point x="177" y="239" type="line"/>
      <point x="351" y="595" type="line"/>
      <point x="276" y="239" type="line"/>
    </contour>
  </outline>
</glyph>
<glyph name="Ccedilla" format="2">
  <advance width="600"/>
  <unicode hex="00C7"/>
  <outline>
    <contour>
      <point x="240" y="-245" type="curve"/>
      <point x="311" y="-245"/>
      <point x="366" y="-198"/>
      <point x="366" y="-137" type="curve"/>
      <point x="366" y="-97"/>
      <point x="335" y="-68"/>
      <point x="283" y="-63" type="curve"/>
      <point x="307" y="-9" type="line"/>
      <point x="421" y="0"/>
      <point x="513" y="83"/>
      <point x="563" y="215" type="curve"/>
      <point x="456" y="249" type="line"/>
      <point x="423" y="151"/>
      <point x="362" y="97"/>
      <point x="293" y="97" type="curve" smooth="yes"/>
      <point x="218" y="97"/>
      <point x="169" y="166"/>
      <point x="169" y="287" type="curve" smooth="yes"/>
      <point x="169" y="470"/>
      <point x="253" y="603"/>
      <point x="354" y="603" type="curve" smooth="yes"/>
      <point x="421" y="603"/>
      <point x="469" y="550"/>
      <point x="480" y="454" type="curve"/>
      <point x="597" y="479" type="line"/>
      <point x="578" y="623"/>
      <point x="490" y="710"/>
      <point x="361" y="710" type="curve" smooth="yes"/>
      <point x="191" y="710"/>
      <point x="49" y="532"/>
      <point x="49" y="277" type="curve" smooth="yes"/>
      <point x="49" y="112"/>
      <point x="130" y="8"/>
      <point x="251" y="-8" type="curve"/>
      <point x="209" y="-104" type="line"/>
      <point x="243" y="-104" type="line" smooth="yes"/>
      <point x="279" y="-104"/>
      <point x="301" y="-119"/>
      <point x="301" y="-144" type="curve"/>
      <point x="301" y="-172"/>
      <point x="276" y="-191"/>
      <point x="238" y="-191" type="curve"/>
      <point x="208" y="-191"/>
      <point x="183" y="-180"/>
      <point x="163" y="-159" type="curve"/>
      <point x="121" y="-201" type="line"/>
      <point x="146" y="-230"/>
      <point x="188" y="-245"/>
    </contour>
  </outline>
</glyph>
<glyph name="multiply" format="2">
  <advance width="600"/>
  <unicode hex="00D7"/>
  <outline>
    <contour>
      <point x="133" y="148" type="line"/>
      <point x="309" y="302" type="line"/>
      <point x="421" y="148" type="line"/>
      <point x="487" y="204" type="line"/>
      <point x="375" y="358" type="line"/>
      <point x="554" y="513" type="line"/>
      <point x="511" y="570" type="line"/>
      <point x="334" y="416" type="line"/>
      <point x="222" y="569" type="line"/>
      <point x="157" y="513" type="line"/>
      <point x="268" y="359" type="line"/>
      <point x="91" y="205" type="line"/>
    </contour>
  </outline>
</glyph>
<glyph name="Oslash" format="2">
  <advance width="600"/>
  <unicode hex="00D8"/>
  <outline>
    <contour>
      <point x="-29" y="0" type="line"/>
      <point x="76" y="0" type="line"/>
      <point x="122" y="54" type="line"/>
      <point x="161" y="11"/>
      <point x="215" y="-11"/>
      <point x="277" y="-11" type="curve" smooth="yes"/>
      <point x="450" y="-11"/>
      <point x="594" y="181"/>
      <point x="594" y="432" type="curve" smooth="yes"/>
      <point x="594" y="488"/>
      <point x="584" y="536"/>
      <point x="567" y="577" type="curve"/>
      <point x="671" y="700" type="line"/>
      <point x="566" y="700" type="line"/>
      <point x="520" y="646" type="line"/>
      <point x="480" y="689"/>
      <point x="426" y="711"/>
      <point x="364" y="711" type="curve" smooth="yes"/>
      <point x="191" y="711"/>
      <point x="47" y="519"/>
      <point x="47" y="268" type="curve" smooth="yes"/>
      <point x="47" y="211"/>
      <point x="57" y="163"/>
      <point x="75" y="122" type="curve"/>
    </contour>
    <contour>
      <point x="167" y="298" type="curve" smooth="yes"/>
      <point x="172" y="470"/>
      <point x="257" y="604"/>
      <point x="357" y="604" type="curve" smooth="yes"/>
      <point x="393" y="604"/>
      <point x="423" y="587"/>
      <point x="444" y="555" type="curve"/>
      <point x="171" y="237" type="line"/>
      <point x="168" y="256"/>
      <point x="166" y="275"/>
    </contour>
    <contour>
      <point x="282" y="96" type="curve" smooth="yes"/>
      <point x="247" y="96"/>
      <point x="218" y="112"/>
      <point x="197" y="143" type="curve"/>
      <point x="470" y="462" type="line"/>
      <point x="473" y="441"/>
      <point x="474" y="419"/>
      <point x="474" y="397" type="curve" smooth="yes"/>
      <point x="467" y="227"/>
      <point x="382" y="96"/>
    </contour>
  </outline>
</glyph>
<glyph name="Thorn" format="2">
  <advance width="600"/>
  <unicode hex="00DE"/>
  <outline>
    <contour>
      <point x="20" y="0" type="line"/>
      <point x="140" y="0" type="line"/>
      <point x="168" y="133" type="line"/>
      <point x="326" y="133" type="line" smooth="yes"/>
      <point x="474" y="133"/>
      <point x="584" y="235"/>
      <point x="584" y="372" type="curve" smooth="yes"/>
      <point x="584" y="491"/>
      <point x="501" y="567"/>
      <point x="372" y="567" type="curve" smooth="yes"/>
      <point x="261" y="567" type="line"/>
      <point x="289" y="700" type="line"/>
      <point x="169" y="700" type="line"/>
    </contour>
    <contour>
      <point x="189" y="232" type="line"/>
      <point x="239" y="466" type="line"/>
      <point x="347" y="466" type="line" smooth="yes"/>
      <point x="421" y="466"/>
      <point x="465" y="428"/>
      <point x="465" y="365" type="curve" smooth="yes"/>
      <point x="465" y="286"/>
      <point x="406" y="232"/>
      <point x="318" y="232" type="curve" smooth="yes"/>
    </contour>
  </outline>
</glyph>
<glyph name="germandbls" format="2">
  <advance width="600"/>
  <unicode hex="00DF"/>
  <outline>
    <contour>
      <point x="369" y="-11" type="curve"/>
      <point x="482" y="-11"/>
      <point x="562" y="60"/>
      <point x="562" y="149" type="curve" smooth="yes"/>
      <point x="562" y="298"/>
      <point x="381" y="287"/>
      <point x="381" y="352" type="curve" smooth="yes"/>
      <point x="381" y="415"/>
      <point x="564" y="421"/>
      <point x="564" y="570" type="curve" smooth="yes"/>
      <point x="564" y="671"/>
      <point x="477" y="737"/>
      <point x="366" y="737" type="curve" smooth="yes"/>
      <point x="230" y="737"/>
      <point x="147" y="660"/>
      <point x="120" y="535" type="curve" smooth="yes"/>
      <point x="7" y="0" type="line"/>
      <point x="120" y="0" type="line"/>
      <point x="230" y="521" type="line" smooth="yes"/>
      <point x="248" y="601"/>
      <point x="290" y="642"/>
      <point x="361" y="642" type="curve" smooth="yes"/>
      <point x="420" y="642"/>
      <point x="455" y="606"/>
      <point x="455" y="560" type="curve" smooth="yes"/>
      <point x="455" y="462"/>
      <point x="276" y="466"/>
      <point x="276" y="341" type="curve" smooth="yes"/>
      <point x="276" y="219"/>
      <point x="458" y="235"/>
      <point x="458" y="143" type="curve" smooth="yes"/>
      <point x="458" y="104"/>
      <point x="424" y="72"/>
      <point x="371" y="72" type="curve"/>
      <point x="326" y="72"/>
      <point x="284" y="93"/>
      <point x="256" y="131" type="curve"/>
      <point x="193" y="65" type="line"/>
      <point x="232" y="15"/>
      <point x="296" y="-11"/>
    </contour>
  </outline>
</glyph>
<glyph name="ae" format="2">
  <advance width="600"/>
  <unicode hex="00E6"/>
  <outline>
    <contour>
      <point x="336" y="292" type="line"/>
      <point x="355" y="369"/>
      <point x="397" y="419"/>
      <point x="438" y="419" type="curve" smooth="yes"/>
      <point x="481" y="419"/>
      <point x="502" y="370"/>
      <point x="491" y="292" type="curve"/>
    </contour>
    <contour>
      <point x="157" y="69" type="curve" smooth="yes"/>
      <point x="120" y="69"/>
      <point x="97" y="94"/>
      <point x="97" y="134" type="curve" smooth="yes"/>
      <point x="97" y="181"/>
      <point x="129" y="219"/>
      <point x="177" y="219" type="curve" smooth="yes"/>
      <point x="198" y="219"/>
      <point x="213" y="214"/>
      <point x="226" y="206" type="curve"/>
      <point x="226" y="199"/>
      <point x="226" y="193"/>
      <point x="226" y="187" type="curve" smooth="yes"/>
      <point x="226" y="160"/>
      <point x="230" y="135"/>
      <point x="237" y="112" type="curve"/>
      <point x="213" y="85"/>
      <point x="185" y="69"/>
    </contour>
    <contour>
      <point x="126" y="-9" type="curve" smooth="yes"/>
      <point x="178" y="-9"/>
      <point x="225" y="15"/>
      <point x="264" y="57" type="curve"/>
      <point x="295" y="15"/>
      <point x="341" y="-10"/>
      <point x="399" y="-10" type="curve" smooth="yes"/>
      <point x="447" y="-10"/>
      <point x="494" y="6"/>
      <point x="538" y="36" type="curve"/>
      <point x="492" y="112" type="line"/>
      <point x="464" y="92"/>
      <point x="434" y="82"/>
      <point x="407" y="82" type="curve" smooth="yes"/>
      <point x="357" y="82"/>
      <point x="324" y="124"/>
      <point x="324" y="192" type="curve" smooth="yes"/>
      <point x="324" y="202"/>
      <point x="325" y="213"/>
      <point x="325" y="223" type="curve"/>
      <point x="572" y="223" type="line"/>
      <point x="582" y="278"/>
      <point x="585" y="306"/>
      <point x="585" y="330" type="curve" smooth="yes"/>
      <point x="585" y="437"/>
      <point x="533" y="508"/>
      <point x="447" y="508" type="curve" smooth="yes"/>
      <point x="402" y="508"/>
      <point x="359" y="487"/>
      <point x="325" y="451" type="curve"/>
      <point x="302" y="488"/>
      <point x="258" y="508"/>
      <point x="205" y="508" type="curve" smooth="yes"/>
      <point x="156" y="508"/>
      <point x="105" y="490"/>
      <point x="60" y="457" type="curve"/>
      <point x="98" y="381" type="line"/>
      <point x="131" y="403"/>
      <point x="162" y="416"/>
      <point x="192" y="416" type="curve" smooth="yes"/>
      <point x="236" y="416"/>
      <point x="259" y="387"/>
      <point x="247" y="328" type="curve" smooth="yes"/>
      <point x="234" y="270" type="line"/>
      <point x="211" y="281"/>
      <point x="186" y="288"/>
      <point x="158" y="288" type="curve" smooth="yes"/>
      <point x="61" y="288"/>
      <point x="-4" y="216"/>
      <point x="-4" y="125" type="curve" smooth="yes"/>
      <point x="-4" y="41"/>
      <point x="55" y="-9"/>
    </contour>
  </outline>
</glyph>
<glyph name="ccedilla" format="2">
  <advance width="600"/>
  <unicode hex="00E7"/>
  <outline>
    <contour>
      <point x="241" y="-245" type="curve"/>
      <point x="312" y="-245"/>
      <point x="367" y="-198"/>
      <point x="367" y="-137" type="curve"/>
      <point x="367" y="-97"/>
      <point x="337" y="-68"/>
      <point x="284" y="-63" type="curve"/>
      <point x="308" y="-9" type="line"/>
      <point x="389" y="-4"/>
      <point x="460" y="33"/>
      <point x="509" y="96" type="curve"/>
      <point x="438" y="156" type="line"/>
      <point x="401" y="112"/>
      <point x="352" y="86"/>
      <point x="299" y="86" type="curve" smooth="yes"/>
      <point x="220" y="86"/>
      <point x="164" y="145"/>
      <point x="164" y="228" type="curve" smooth="yes"/>
      <point x="164" y="330"/>
      <point x="237" y="411"/>
      <point x="330" y="411" type="curve" smooth="yes"/>
      <point x="390" y="411"/>
      <point x="436" y="378"/>
      <point x="461" y="323" type="curve"/>
      <point x="553" y="378" type="line"/>
      <point x="518" y="458"/>
      <point x="434" y="509"/>
      <point x="335" y="509" type="curve" smooth="yes"/>
      <point x="179" y="509"/>
      <point x="54" y="380"/>
      <point x="54" y="218" type="curve" smooth="yes"/>
      <point x="54" y="96"/>
      <point x="134" y="6"/>
      <point x="252" y="-9" type="curve"/>
      <point x="211" y="-104" type="line"/>
      <point x="244" y="-104" type="line" smooth="yes"/>
      <point x="280" y="-104"/>
      <point x="303" y="-119"/>
      <point x="303" y="-144" type="curve"/>
      <point x="303" y="-172"/>
      <point x="278" y="-191"/>
      <point x="239" y="-191" type="curve"/>
      <point x="210" y="-191"/>
      <point x="184" y="-180"/>
      <point x="164" y="-159" type="curve"/>
      <point x="122" y="-201" type="line"/>
      <point x="148" y="-230"/>
      <point x="189" y="-245"/>
    </contour>
  </outline>
</glyph>
<glyph name="eth" format="2">
  <advance width="600"/>
  <unicode hex="00F0"/>
  <outline>
    <contour>
      <point x="269" y="-10" type="curve" smooth="yes"/>
      <point x="435" y="-10"/>
      <point x="556" y="152"/>
      <point x="556" y="376" type="curve" smooth="yes"/>
      <point x="556" y="470"/>
      <point x="535" y="552"/>
      <point x="494" y="620" type="curve"/>
      <point x="585" y="666" type="line"/>
      <point x="560" y="727" type="line"/>
      <point x="454" y="674" type="line"/>
      <point x="426" y="705"/>
      <point x="393" y="733"/>
      <point x="354" y="755" type="curve"/>
      <point x="287" y="684" type="line"/>
      <point x="316" y="669"/>
      <point x="342" y="651"/>
      <point x="363" y="628" type="curve"/>
      <point x="282" y="587" type="line"/>
      <point x="307" y="525" type="line"/>
      <point x="406" y="575" type="line"/>
      <point x="441" y="520"/>
      <point x="461" y="450"/>
      <point x="460" y="370" type="curve"/>
      <point x="439" y="430"/>
      <point x="374" y="471"/>
      <point x="293" y="471" type="curve" smooth="yes"/>
      <point x="156" y="471"/>
      <point x="51" y="358"/>
      <point x="51" y="212" type="curve" smooth="yes"/>
      <point x="51" y="81"/>
      <point x="140" y="-10"/>
    </contour>
    <contour>
      <point x="273" y="87" type="curve" smooth="yes"/>
      <point x="204" y="87"/>
      <point x="153" y="142"/>
      <point x="153" y="218" type="curve" smooth="yes"/>
      <point x="153" y="308"/>
      <point x="223" y="384"/>
      <point x="305" y="384" type="curve" smooth="yes"/>
      <point x="374" y="384"/>
      <point x="426" y="329"/>
      <point x="426" y="255" type="curve" smooth="yes"/>
      <point x="426" y="166"/>
      <point x="355" y="87"/>
    </contour>
  </outline>
</glyph>
<glyph name="divide" format="2">
  <advance width="600"/>
  <unicode hex="00F7"/>
  <outline>
    <contour>
      <point x="103" y="313" type="line"/>
      <point x="523" y="313" type="line"/>
      <point x="541" y="402" type="line"/>
      <point x="122" y="402" type="line"/>
    </contour>
    <contour>
      <point x="274" y="84" type="curve" smooth="yes"/>
      <point x="317" y="84"/>
      <point x="351" y="120"/>
      <point x="351" y="160" type="curve" smooth="yes"/>
      <point x="351" y="198"/>
      <point x="323" y="227"/>
      <point x="287" y="227" type="curve" smooth="yes"/>
      <point x="244" y="227"/>
      <point x="208" y="191"/>
      <point x="208" y="150" type="curve" smooth="yes"/>
      <point x="208" y="113"/>
      <point x="237" y="84"/>
    </contour>
    <contour>
      <point x="361" y="494" type="curve" smooth="yes"/>
      <point x="404" y="494"/>
      <point x="438" y="530"/>
      <point x="438" y="569" type="curve" smooth="yes"/>
      <point x="438" y="607"/>
      <point x="410" y="636"/>
      <point x="374" y="636" type="curve" smooth="yes"/>
      <point x="331" y="636"/>
      <point x="295" y="601"/>
      <point x="295" y="560" type="curve" smooth="yes"/>
      <point x="295" y="522"/>
      <point x="324" y="494"/>
    </contour>
  </outline>
</glyph>
<glyph name="oslash" format="2">
  <advance width="600"/>
  <unicode hex="00F8"/>
  <outline>
    <contour>
      <point x="276" y="-10" type="curve" smooth="yes"/>
      <point x="425" y="-10"/>
      <point x="547" y="119"/>
      <point x="547" y="276" type="curve" smooth="yes"/>
      <point x="547" y="328"/>
      <point x="533" y="375"/>
      <point x="509" y="412" type="curve"/>
      <point x="599" y="501" type="line"/>
      <point x="508" y="501" type="line"/>
      <point x="467" y="460" type="line"/>
      <point x="429" y="491"/>
      <point x="379" y="509"/>
      <point x="322" y="509" type="curve" smooth="yes"/>
      <point x="173" y="509"/>
      <point x="52" y="381"/>
      <point x="52" y="224" type="curve" smooth="yes"/>
      <point x="52" y="172"/>
      <point x="66" y="125"/>
      <point x="91" y="88" type="curve"/>
      <point x="1" y="0" type="line"/>
      <point x="91" y="0" type="line"/>
      <point x="132" y="40" type="line"/>
      <point x="170" y="8"/>
      <point x="220" y="-10"/>
    </contour>
    <contour>
      <point x="173" y="167" type="line"/>
      <point x="165" y="185"/>
      <point x="161" y="204"/>
      <point x="161" y="227" type="curve" smooth="yes"/>
      <point x="161" y="330"/>
      <point x="230" y="412"/>
      <point x="316" y="412" type="curve" smooth="yes"/>
      <point x="346" y="412"/>
      <point x="371" y="403"/>
      <point x="391" y="386" type="curve"/>
    </contour>
    <contour>
      <point x="283" y="88" type="curve" smooth="yes"/>
      <point x="253" y="88"/>
      <point x="227" y="97"/>
      <point x="207" y="114" type="curve"/>
      <point x="427" y="332" type="line"/>
      <point x="434" y="315"/>
      <point x="437" y="295"/>
      <point x="437" y="273" type="curve" smooth="yes"/>
      <point x="437" y="168"/>
      <point x="370" y="88"/>
    </contour>
  </outline>
</glyph>
<glyph name="thorn" format="2">
  <advance width="600"/>
  <unicode hex="00FE"/>
  <outline>
    <contour>
      <point x="-22" y="-209" type="line"/>
      <point x="90" y="-209" type="line"/>
      <point x="150" y="71" type="line"/>
      <point x="181" y="23"/>
      <point x="236" y="-5"/>
      <point x="299" y="-5" type="curve" smooth="yes"/>
      <point x="439" y="-5"/>
      <point x="552" y="125"/>
      <point x="552" y="280" type="curve" smooth="yes"/>
      <point x="552" y="408"/>
      <point x="470" y="505"/>
      <point x="362" y="505" type="curve" smooth="yes"/>
      <point x="313" y="505"/>
      <point x="269" y="489"/>
      <point x="231" y="452" type="curve"/>
      <point x="292" y="737" type="line"/>
      <point x="176" y="717" type="line"/>
    </contour>
    <contour>
      <point x="280" y="89" type="curve" smooth="yes"/>
      <point x="233" y="89"/>
      <point x="190" y="113"/>
      <point x="167" y="149" type="curve"/>
      <point x="214" y="370" type="line"/>
      <point x="244" y="398"/>
      <point x="281" y="414"/>
      <point x="319" y="414" type="curve" smooth="yes"/>
      <point x="395" y="414"/>
      <point x="443" y="355"/>
      <point x="443" y="272" type="curve" smooth="yes"/>
      <point x="443" y="169"/>
      <point x="372" y="89"/>
    </contour>
  </outline>
</glyph>
<glyph name="Aogonek" format="2">
  <advance width="600"/>
  <unicode hex="0104"/>
  <outline>
    <contour>
      <point x="-45" y="0" type="line"/>
      <point x="75" y="0" type="line"/>
      <point x="162" y="169" type="line"/>
      <point x="403" y="169" type="line"/>
      <point x="418" y="0" type="line"/>
      <point x="468" y="0" type="line"/>
      <point x="388" y="-48"/>
      <point x="349" y="-98"/>
      <point x="349" y="-154" type="curve" smooth="yes"/>
      <point x="349" y="-201"/>
      <point x="385" y="-232"/>
      <point x="441" y="-232" type="curve" smooth="yes"/>
      <point x="470" y="-232"/>
      <point x="499" y="-225"/>
      <point x="521" y="-213" type="curve"/>
      <point x="516" y="-160" type="line"/>
      <point x="504" y="-166"/>
      <point x="485" y="-170"/>
      <point x="470" y="-170" type="curve" smooth="yes"/>
      <point x="439" y="-170"/>
      <point x="419" y="-154"/>
      <point x="419" y="-127" type="curve" smooth="yes"/>
      <point x="419" y="-85"/>
      <point x="457" y="-43"/>
      <point x="538" y="0" type="curve"/>
      <point x="468" y="700" type="line"/>
      <point x="324" y="700" type="line"/>
    </contour>
    <contour>
      <point x="209" y="262" type="line"/>
      <point x="369" y="572" type="line"/>
      <point x="397" y="262" type="line"/>
    </contour>
  </outline>
</glyph>
<glyph name="aogonek" format="2">
  <advance width="600"/>
  <unicode hex="0105"/>
  <outline>
    <contour>
      <point x="354" y="-232" type="curve" smooth="yes"/>
      <point x="383" y="-232"/>
      <point x="412" y="-225"/>
      <point x="433" y="-213" type="curve"/>
      <point x="429" y="-160" type="line"/>
      <point x="417" y="-166"/>
      <point x="398" y="-170"/>
      <point x="382" y="-170" type="curve" smooth="yes"/>
      <point x="352" y="-170"/>
      <point x="332" y="-154"/>
      <point x="332" y="-127" type="curve" smooth="yes"/>
      <point x="332" y="-85"/>
      <point x="370" y="-43"/>
      <point x="451" y="0" type="curve"/>
      <point x="518" y="304" type="line" smooth="yes"/>
      <point x="545" y="428"/>
      <point x="470" y="508"/>
      <point x="326" y="508" type="curve" smooth="yes"/>
      <point x="265" y="508"/>
      <point x="203" y="494"/>
      <point x="132" y="464" type="curve"/>
      <point x="160" y="382" type="line"/>
      <point x="217" y="405"/>
      <point x="261" y="416"/>
      <point x="300" y="416" type="curve" smooth="yes"/>
      <point x="388" y="416"/>
      <point x="424" y="377"/>
      <point x="407" y="300" type="curve" smooth="yes"/>
      <point x="397" y="254" type="line"/>
      <point x="355" y="279"/>
      <point x="302" y="292"/>
      <point x="249" y="292" type="curve" smooth="yes"/>
      <point x="126" y="292"/>
      <point x="47" y="229"/>
      <point x="47" y="130" type="curve" smooth="yes"/>
      <point x="47" y="46"/>
      <point x="111" y="-7"/>
      <point x="211" y="-7" type="curve" smooth="yes"/>
      <point x="259" y="-7"/>
      <point x="302" y="7"/>
      <point x="350" y="43" type="curve"/>
      <point x="341" y="0" type="line"/>
      <point x="381" y="0" type="line"/>
      <point x="301" y="-48"/>
      <point x="262" y="-98"/>
      <point x="262" y="-154" type="curve" smooth="yes"/>
      <point x="262" y="-201"/>
      <point x="298" y="-232"/>
    </contour>
    <contour>
      <point x="249" y="70" type="curve" smooth="yes"/>
      <point x="187" y="70"/>
      <point x="150" y="97"/>
      <point x="150" y="140" type="curve" smooth="yes"/>
      <point x="150" y="189"/>
      <point x="194" y="220"/>
      <point x="262" y="220" type="curve" smooth="yes"/>
      <point x="311" y="220"/>
      <point x="351" y="210"/>
      <point x="382" y="190" type="curve"/>
      <point x="364" y="107" type="line"/>
      <point x="328" y="81"/>
      <point x="291" y="70"/>
    </contour>
  </outline>
</glyph>
<glyph name="dcaron" format="2">
  <advance width="600"/>
  <unicode hex="010F"/>
  <outline>
    <contour>
      <point x="188" y="-5" type="curve" smooth="yes"/>
      <point x="234" y="-5"/>
      <point x="276" y="12"/>
      <point x="312" y="46" type="curve"/>
      <point x="302" y="0" type="line"/>
      <point x="408" y="0" type="line"/>
      <point x="564" y="737" type="line"/>
      <point x="454" y="717" type="line"/>
      <point x="396" y="444" type="line"/>
      <point x="365" y="483"/>
      <point x="320" y="505"/>
      <point x="264" y="505" type="curve" smooth="yes"/>
      <point x="135" y="505"/>
      <point x="26" y="373"/>
      <point x="26" y="209" type="curve" smooth="yes"/>
      <point x="26" y="81"/>
      <point x="99" y="-5"/>
    </contour>
    <contour>
      <point x="233" y="87" type="curve" smooth="yes"/>
      <point x="173" y="87"/>
      <point x="131" y="136"/>
      <point x="131" y="217" type="curve" smooth="yes"/>
      <point x="131" y="328"/>
      <point x="197" y="412"/>
      <point x="278" y="412" type="curve" smooth="yes"/>
      <point x="319" y="412"/>
      <point x="355" y="393"/>
      <point x="378" y="362" type="curve"/>
      <point x="327" y="121" type="line"/>
      <point x="299" y="99"/>
      <point x="267" y="87"/>
    </contour>
    <contour>
      <point x="582" y="514" type="line"/>
      <point x="654" y="514" type="line"/>
      <point x="731" y="737" type="line"/>
      <point x="634" y="717" type="line"/>
    </contour>
  </outline>
</glyph>
<glyph name="Dcroat" format="2">
  <advance width="600"/>
  <unicode hex="0110"/>
  <outline>
    <contour>
      <point x="25" y="0" type="line"/>
      <point x="234" y="0" type="line" smooth="yes"/>
      <point x="437" y="0"/>
      <point x="591" y="176"/>
      <point x="591" y="418" type="curve" smooth="yes"/>
      <point x="591" y="599"/>
      <point x="483" y="700"/>
      <point x="326" y="700" type="curve" smooth="yes"/>
      <point x="174" y="700" type="line"/>
      <point x="110" y="396" type="line"/>
      <point x="41" y="396" type="line"/>
      <point x="22" y="309" type="line"/>
      <point x="91" y="309" type="line"/>
    </contour>
    <contour>
      <point x="167" y="103" type="line"/>
      <point x="211" y="309" type="line"/>
      <point x="303" y="309" type="line"/>
      <point x="322" y="396" type="line"/>
      <point x="230" y="396" type="line"/>
      <point x="272" y="597" type="line"/>
      <point x="318" y="597" type="line" smooth="yes"/>
      <point x="416" y="597"/>
      <point x="473" y="537"/>
      <point x="473" y="414" type="curve" smooth="yes"/>
      <point x="473" y="240"/>
      <point x="377" y="103"/>
      <point x="234" y="103" type="curve" smooth="yes"/>
    </contour>
  </outline>
</glyph>
<glyph name="dcroat" format="2">
  <advance width="600"/>
  <unicode hex="0111"/>
  <outline>
    <contour>
      <point x="235" y="-5" type="curve"/>
      <point x="287" y="-5"/>
      <point x="333" y="13"/>
      <point x="373" y="55" type="curve"/>
      <point x="361" y="0" type="line"/>
      <point x="471" y="0" type="line"/>
      <point x="591" y="567" type="line"/>
      <point x="657" y="567" type="line"/>
      <point x="672" y="637" type="line"/>
      <point x="605" y="637" type="line"/>
      <point x="626" y="737" type="line"/>
      <point x="512" y="717" type="line"/>
      <point x="495" y="637" type="line"/>
      <point x="358" y="637" type="line"/>
      <point x="343" y="567" type="line"/>
      <point x="480" y="567" type="line"/>
      <point x="451" y="430" type="line"/>
      <point x="420" y="478"/>
      <point x="366" y="505"/>
      <point x="304" y="505" type="curve" smooth="yes"/>
      <point x="164" y="505"/>
      <point x="47" y="375"/>
      <point x="47" y="220" type="curve" smooth="yes"/>
      <point x="47" y="92"/>
      <point x="127" y="-5"/>
    </contour>
    <contour>
      <point x="281" y="86" type="curve"/>
      <point x="205" y="86"/>
      <point x="156" y="145"/>
      <point x="156" y="228" type="curve" smooth="yes"/>
      <point x="156" y="331"/>
      <point x="227" y="411"/>
      <point x="319" y="411" type="curve" smooth="yes"/>
      <point x="368" y="411"/>
      <point x="411" y="387"/>
      <point x="434" y="348" type="curve"/>
      <point x="388" y="132" type="line"/>
      <point x="358" y="103"/>
      <point x="320" y="86"/>
    </contour>
  </outline>
</glyph>
<glyph name="Eogonek" format="2">
  <advance width="600"/>
  <unicode hex="0118"/>
  <outline>
    <contour>
      <point x="32" y="0" type="line"/>
      <point x="426" y="0" type="line"/>
      <point x="346" y="-48"/>
      <point x="307" y="-98"/>
      <point x="307" y="-154" type="curve" smooth="yes"/>
      <point x="307" y="-201"/>
      <point x="343" y="-232"/>
      <point x="399" y="-232" type="curve" smooth="yes"/>
      <point x="428" y="-232"/>
      <point x="457" y="-225"/>
      <point x="478" y="-213" type="curve"/>
      <point x="474" y="-160" type="line"/>
      <point x="462" y="-166"/>
      <point x="443" y="-170"/>
      <point x="427" y="-170" type="curve" smooth="yes"/>
      <point x="397" y="-170"/>
      <point x="376" y="-154"/>
      <point x="376" y="-127" type="curve" smooth="yes"/>
      <point x="376" y="-85"/>
      <point x="415" y="-43"/>
      <point x="496" y="0" type="curve"/>
      <point x="518" y="102" type="line"/>
      <point x="172" y="102" type="line"/>
      <point x="215" y="303" type="line"/>
      <point x="440" y="303" type="line"/>
      <point x="461" y="403" type="line"/>
      <point x="236" y="403" type="line"/>
      <point x="278" y="598" type="line"/>
      <point x="618" y="598" type="line"/>
      <point x="641" y="700" type="line"/>
      <point x="181" y="700" type="line"/>
    </contour>
  </outline>
</glyph>
<glyph name="eogonek" format="2">
  <advance width="600"/>
  <unicode hex="0119"/>
  <outline>
    <contour>
      <point x="271" y="-232" type="curve" smooth="yes"/>
      <point x="300" y="-232"/>
      <point x="329" y="-225"/>
      <point x="350" y="-213" type="curve"/>
      <point x="346" y="-160" type="line"/>
      <point x="334" y="-166"/>
      <point x="315" y="-170"/>
      <point x="299" y="-170" type="curve" smooth="yes"/>
      <point x="269" y="-170"/>
      <point x="248" y="-154"/>
      <point x="248" y="-127" type="curve" smooth="yes"/>
      <point x="248" y="-85"/>
      <point x="285" y="-45"/>
      <point x="363" y="-3" type="curve"/>
      <point x="413" y="9"/>
      <point x="458" y="33"/>
      <point x="493" y="68" type="curve"/>
      <point x="438" y="136" type="line"/>
      <point x="395" y="100"/>
      <point x="352" y="83"/>
      <point x="304" y="83" type="curve" smooth="yes"/>
      <point x="224" y="83"/>
      <point x="164" y="139"/>
      <point x="160" y="223" type="curve"/>
      <point x="542" y="223" type="line"/>
      <point x="545" y="243"/>
      <point x="547" y="263"/>
      <point x="547" y="286" type="curve" smooth="yes"/>
      <point x="547" y="417"/>
      <point x="456" y="509"/>
      <point x="326" y="509" type="curve" smooth="yes"/>
      <point x="175" y="509"/>
      <point x="52" y="380"/>
      <point x="52" y="225" type="curve" smooth="yes"/>
      <point x="52" y="91"/>
      <point x="148" y="-5"/>
      <point x="282" y="-10" type="curve"/>
      <point x="213" y="-55"/>
      <point x="179" y="-102"/>
      <point x="179" y="-154" type="curve" smooth="yes"/>
      <point x="179" y="-201"/>
      <point x="215" y="-232"/>
    </contour>
    <contour>
      <point x="169" y="294" type="line"/>
      <point x="190" y="366"/>
      <point x="249" y="417"/>
      <point x="321" y="417" type="curve" smooth="yes"/>
      <point x="392" y="417"/>
      <point x="442" y="366"/>
      <point x="445" y="294" type="curve"/>
    </contour>
  </outline>
</glyph>
<glyph name="gcommaaccent" format="2">
  <advance width="600"/>
  <unicode hex="0123"/>
  <outline>
    <contour>
      <point x="500" y="817" type="line"/>
      <point x="421" y="817" type="line"/>
      <point x="297" y="618" type="line"/>
      <point x="403" y="618" type="line"/>
    </contour>
    <component base="g"/>
  </outline>
</glyph>
<glyph name="hcircumflex" format="2">
  <advance width="600"/>
  <unicode hex="0125"/>
  <outline>
    <contour>
      <point x="31" y="0" type="line"/>
      <point x="143" y="0" type="line"/>
      <point x="220" y="360" type="line"/>
      <point x="254" y="399"/>
      <point x="294" y="418"/>
      <point x="337" y="418" type="curve" smooth="yes"/>
      <point x="404" y="418"/>
      <point x="439" y="367"/>
      <point x="422" y="292" type="curve" smooth="yes"/>
      <point x="360" y="0" type="line"/>
      <point x="472" y="0" type="line"/>
      <point x="539" y="316" type="line" smooth="yes"/>
      <point x="563" y="429"/>
      <point x="506" y="508"/>
      <point x="399" y="508" type="curve" smooth="yes"/>
      <point x="337" y="508"/>
      <point x="281" y="479"/>
      <point x="234" y="424" type="curve"/>
      <point x="299" y="727" type="line"/>
      <point x="187" y="727" type="line"/>
    </contour>
    <component base="circumflex" xOffset="-117" yOffset="199"/>
  </outline>
</glyph>
<glyph name="Hbar" format="2">
  <advance width="600"/>
  <unicode hex="0126"/>
  <outline>
    <contour>
      <point x="7" y="0" type="line"/>
      <point x="127" y="0" type="line"/>
      <point x="191" y="300" type="line"/>
      <point x="430" y="300" type="line"/>
      <point x="366" y="0" type="line"/>
      <point x="486" y="0" type="line"/>
      <point x="594" y="508" type="line"/>
      <point x="652" y="508" type="line"/>
      <point x="671" y="596" type="line"/>
      <point x="613" y="596" type="line"/>
      <point x="635" y="700" type="line"/>
      <point x="515" y="700" type="line"/>
      <point x="493" y="596" type="line"/>
      <point x="254" y="596" type="line"/>
      <point x="276" y="700" type="line"/>
      <point x="156" y="700" type="line"/>
      <point x="134" y="596" type="line"/>
      <point x="76" y="596" type="line"/>
      <point x="58" y="508" type="line"/>
      <point x="116" y="508" type="line"/>
    </contour>
    <contour>
      <point x="212" y="400" type="line"/>
      <point x="236" y="508" type="line"/>
      <point x="474" y="508" type="line"/>
      <point x="451" y="400" type="line"/>
    </contour>
  </outline>
</glyph>
<glyph name="hbar" format="2">
  <advance width="600"/>
  <unicode hex="0127"/>
  <outline>
    <contour>
      <point x="31" y="0" type="line"/>
      <point x="143" y="0" type="line"/>
      <point x="220" y="360" type="line"/>
      <point x="254" y="399"/>
      <point x="294" y="418"/>
      <point x="337" y="418" type="curve" smooth="yes"/>
      <point x="404" y="418"/>
      <point x="439" y="367"/>
      <point x="422" y="292" type="curve" smooth="yes"/>
      <point x="360" y="0" type="line"/>
      <point x="472" y="0" type="line"/>
      <point x="539" y="316" type="line" smooth="yes"/>
      <point x="563" y="429"/>
      <point x="506" y="508"/>
      <point x="399" y="508" type="curve" smooth="yes"/>
      <point x="337" y="508"/>
      <point x="281" y="479"/>
      <point x="233" y="423" type="curve"/>
      <point x="264" y="567" type="line"/>
      <point x="393" y="567" type="line"/>
      <point x="408" y="636" type="line"/>
      <point x="279" y="636" type="line"/>
      <point x="300" y="737" type="line"/>
      <point x="184" y="717" type="line"/>
      <point x="167" y="636" type="line"/>
      <point x="93" y="636" type="line"/>
      <point x="79" y="567" type="line"/>
      <point x="152" y="567" type="line"/>
    </contour>
  </outline>
</glyph>
<glyph name="Iogonek" format="2">
  <advance width="600"/>
  <unicode hex="012E"/>
  <outline>
    <contour>
      <point x="10" y="0" type="line"/>
      <point x="413" y="0" type="line"/>
      <point x="333" y="-48"/>
      <point x="294" y="-98"/>
      <point x="294" y="-154" type="curve" smooth="yes"/>
      <point x="294" y="-201"/>
      <point x="330" y="-232"/>
      <point x="386" y="-232" type="curve" smooth="yes"/>
      <point x="415" y="-232"/>
      <point x="444" y="-225"/>
      <point x="466" y="-213" type="curve"/>
      <point x="461" y="-160" type="line"/>
      <point x="449" y="-166"/>
      <point x="430" y="-170"/>
      <point x="415" y="-170" type="curve" smooth="yes"/>
      <point x="384" y="-170"/>
      <point x="364" y="-154"/>
      <point x="364" y="-127" type="curve" smooth="yes"/>
      <point x="364" y="-85"/>
      <point x="403" y="-43"/>
      <point x="483" y="0" type="curve"/>
      <point x="504" y="101" type="line"/>
      <point x="328" y="101" type="line"/>
      <point x="435" y="599" type="line"/>
      <point x="610" y="599" type="line"/>
      <point x="632" y="700" type="line"/>
      <point x="159" y="700" type="line"/>
      <point x="138" y="599" type="line"/>
      <point x="315" y="599" type="line"/>
      <point x="208" y="101" type="line"/>
      <point x="32" y="101" type="line"/>
    </contour>
  </outline>
</glyph>
<glyph name="iogonek" format="2">
  <advance width="600"/>
  <unicode hex="012F"/>
  <outline>
    <contour>
      <point x="376" y="600" type="curve" smooth="yes"/>
      <point x="425" y="600"/>
      <point x="465" y="640"/>
      <point x="465" y="688" type="curve" smooth="yes"/>
      <point x="465" y="728"/>
      <point x="432" y="760"/>
      <point x="392" y="760" type="curve" smooth="yes"/>
      <point x="345" y="760"/>
      <point x="304" y="718"/>
      <point x="304" y="671" type="curve" smooth="yes"/>
      <point x="304" y="631"/>
      <point x="335" y="600"/>
    </contour>
    <contour>
      <point x="348" y="-232" type="curve" smooth="yes"/>
      <point x="377" y="-232"/>
      <point x="407" y="-225"/>
      <point x="428" y="-213" type="curve"/>
      <point x="423" y="-160" type="line"/>
      <point x="411" y="-166"/>
      <point x="393" y="-170"/>
      <point x="377" y="-170" type="curve" smooth="yes"/>
      <point x="346" y="-170"/>
      <point x="326" y="-154"/>
      <point x="326" y="-127" type="curve" smooth="yes"/>
      <point x="326" y="-86"/>
      <point x="363" y="-45"/>
      <point x="440" y="-3" type="curve"/>
      <point x="457" y="0"/>
      <point x="474" y="5"/>
      <point x="488" y="10" type="curve"/>
      <point x="508" y="106" type="line"/>
      <point x="469" y="92"/>
      <point x="439" y="88"/>
      <point x="407" y="88" type="curve" smooth="yes"/>
      <point x="348" y="88"/>
      <point x="322" y="115"/>
      <point x="336" y="182" type="curve" smooth="yes"/>
      <point x="406" y="501" type="line"/>
      <point x="113" y="501" type="line"/>
      <point x="93" y="411" type="line"/>
      <point x="273" y="411" type="line"/>
      <point x="223" y="185" type="line" smooth="yes"/>
      <point x="196" y="64"/>
      <point x="252" y="-4"/>
      <point x="362" y="-8" type="curve"/>
      <point x="291" y="-53"/>
      <point x="256" y="-101"/>
      <point x="256" y="-154" type="curve" smooth="yes"/>
      <point x="256" y="-201"/>
      <point x="292" y="-232"/>
    </contour>
  </outline>
</glyph>
<glyph name="dotlessi" format="2">
  <advance width="600"/>
  <unicode hex="0131"/>
  <anchor x="355" y="501" name="top"/>
  <anchor x="445" y="0" name="bottom"/>
  <outline>
    <contour>
      <point x="374" y="-9" type="curve" smooth="yes"/>
      <point x="411" y="-9"/>
      <point x="454" y="-3"/>
      <point x="488" y="10" type="curve"/>
      <point x="508" y="106" type="line"/>
      <point x="469" y="92"/>
      <point x="439" y="88"/>
      <point x="407" y="88" type="curve" smooth="yes"/>
      <point x="348" y="88"/>
      <point x="322" y="115"/>
      <point x="336" y="182" type="curve"/>
      <point x="406" y="501" type="line"/>
      <point x="113" y="501" type="line"/>
      <point x="93" y="411" type="line"/>
      <point x="273" y="411" type="line"/>
      <point x="223" y="185" type="line"/>
      <point x="195" y="60"/>
      <point x="256" y="-9"/>
    </contour>
  </outline>
</glyph>
<glyph name="IJ" format="2">
  <advance width="600"/>
  <unicode hex="0132"/>
  <outline>
    <contour>
      <point x="331" y="-11" type="curve"/>
      <point x="437" y="-11"/>
      <point x="506" y="53"/>
      <point x="531" y="175" type="curve" smooth="yes"/>
      <point x="642" y="700" type="line"/>
      <point x="522" y="700" type="line"/>
      <point x="415" y="191" type="line" smooth="yes"/>
      <point x="401" y="124"/>
      <point x="373" y="97"/>
      <point x="319" y="97" type="curve"/>
      <point x="291" y="97"/>
      <point x="261" y="107"/>
      <point x="238" y="124" type="curve"/>
      <point x="201" y="28" type="line"/>
      <point x="230" y="5"/>
      <point x="279" y="-11"/>
    </contour>
    <contour>
      <point x="8" y="0" type="line"/>
      <point x="128" y="0" type="line"/>
      <point x="276" y="700" type="line"/>
      <point x="156" y="700" type="line"/>
    </contour>
  </outline>
</glyph>
<glyph name="ij" format="2">
  <advance width="600"/>
  <unicode hex="0133"/>
  <outline>
    <contour>
      <point x="246" y="600" type="curve" smooth="yes"/>
      <point x="295" y="600"/>
      <point x="335" y="640"/>
      <point x="335" y="688" type="curve" smooth="yes"/>
      <point x="335" y="728"/>
      <point x="302" y="760"/>
      <point x="262" y="760" type="curve" smooth="yes"/>
      <point x="215" y="760"/>
      <point x="174" y="718"/>
      <point x="174" y="671" type="curve" smooth="yes"/>
      <point x="174" y="631"/>
      <point x="205" y="600"/>
    </contour>
    <contour>
      <point x="517" y="600" type="curve" smooth="yes"/>
      <point x="566" y="600"/>
      <point x="606" y="640"/>
      <point x="606" y="688" type="curve" smooth="yes"/>
      <point x="606" y="728"/>
      <point x="574" y="760"/>
      <point x="533" y="760" type="curve" smooth="yes"/>
      <point x="486" y="760"/>
      <point x="445" y="718"/>
      <point x="445" y="671" type="curve" smooth="yes"/>
      <point x="445" y="631"/>
      <point x="476" y="600"/>
    </contour>
    <contour>
      <point x="53" y="0" type="line"/>
      <point x="166" y="0" type="line"/>
      <point x="273" y="501" type="line"/>
      <point x="160" y="501" type="line"/>
    </contour>
    <contour>
      <point x="252" y="-219" type="curve"/>
      <point x="343" y="-219"/>
      <point x="402" y="-170"/>
      <point x="423" y="-75" type="curve" smooth="yes"/>
      <point x="545" y="501" type="line"/>
      <point x="432" y="501" type="line"/>
      <point x="312" y="-62" type="line" smooth="yes"/>
      <point x="303" y="-102"/>
      <point x="283" y="-121"/>
      <point x="246" y="-121" type="curve"/>
      <point x="229" y="-121"/>
      <point x="213" y="-118"/>
      <point x="197" y="-114" type="curve"/>
      <point x="177" y="-208" type="line"/>
      <point x="198" y="-214"/>
      <point x="225" y="-219"/>
    </contour>
  </outline>
</glyph>
<glyph name="kgreenlandic" format="2">
  <advance width="600"/>
  <unicode hex="0138"/>
  <outline>
    <contour>
      <point x="36" y="0" type="line"/>
      <point x="148" y="0" type="line"/>
      <point x="196" y="231" type="line"/>
      <point x="375" y="0" type="line"/>
      <point x="511" y="0" type="line"/>
      <point x="308" y="254" type="line"/>
      <point x="606" y="501" type="line"/>
      <point x="467" y="501" type="line"/>
      <point x="207" y="281" type="line"/>
      <point x="254" y="501" type="line"/>
      <point x="142" y="501" type="line"/>
    </contour>
  </outline>
</glyph>
<glyph name="Lslash" format="2">
  <advance width="600"/>
  <unicode hex="0141"/>
  <outline>
    <contour>
      <point x="41" y="0" type="line"/>
      <point x="502" y="0" type="line"/>
      <point x="524" y="102" type="line"/>
      <point x="181" y="102" type="line"/>
      <point x="222" y="296" type="line"/>
      <point x="427" y="417" type="line"/>
      <point x="449" y="526" type="line"/>
      <point x="245" y="405" type="line"/>
      <point x="308" y="700" type="line"/>
      <point x="190" y="700" type="line"/>
      <point x="112" y="332" type="line"/>
      <point x="8" y="269" type="line"/>
      <point x="-14" y="161" type="line"/>
      <point x="89" y="223" type="line"/>
    </contour>
  </outline>
</glyph>
<glyph name="lslash" format="2">
  <advance width="600"/>
  <unicode hex="0142"/>
  <outline>
    <contour>
      <point x="357" y="-9" type="curve" smooth="yes"/>
      <point x="394" y="-9"/>
      <point x="437" y="-3"/>
      <point x="472" y="10" type="curve"/>
      <point x="492" y="106" type="line"/>
      <point x="453" y="92"/>
      <point x="423" y="88"/>
      <point x="391" y="88" type="curve" smooth="yes"/>
      <point x="331" y="88"/>
      <point x="305" y="115"/>
      <point x="320" y="182" type="curve" smooth="yes"/>
      <point x="350" y="322" type="line"/>
      <point x="571" y="424" type="line"/>
      <point x="593" y="527" type="line"/>
      <point x="371" y="424" type="line"/>
      <point x="436" y="727" type="line"/>
      <point x="143" y="727" type="line"/>
      <point x="124" y="638" type="line"/>
      <point x="303" y="638" type="line"/>
      <point x="247" y="371" type="line"/>
      <point x="77" y="294" type="line"/>
      <point x="55" y="191" type="line"/>
      <point x="225" y="269" type="line"/>
      <point x="207" y="185" type="line" smooth="yes"/>
      <point x="180" y="60"/>
      <point x="240" y="-9"/>
    </contour>
  </outline>
</glyph>
<glyph name="Eng" format="2">
  <advance width="600"/>
  <unicode hex="014A"/>
  <outline>
    <contour>
      <point x="288" y="-219" type="curve" smooth="yes"/>
      <point x="395" y="-219"/>
      <point x="449" y="-161"/>
      <point x="472" y="-51" type="curve" smooth="yes"/>
      <point x="632" y="700" type="line"/>
      <point x="528" y="700" type="line"/>
      <point x="426" y="210" type="line"/>
      <point x="279" y="700" type="line"/>
      <point x="159" y="700" type="line"/>
      <point x="10" y="0" type="line"/>
      <point x="114" y="0" type="line"/>
      <point x="220" y="506" type="line"/>
      <point x="375" y="-7" type="line"/>
      <point x="369" y="-39" type="line" smooth="yes"/>
      <point x="357" y="-100"/>
      <point x="330" y="-123"/>
      <point x="281" y="-123" type="curve" smooth="yes"/>
      <point x="259" y="-123"/>
      <point x="233" y="-117"/>
      <point x="205" y="-107" type="curve"/>
      <point x="185" y="-201" type="line"/>
      <point x="210" y="-212"/>
      <point x="256" y="-219"/>
    </contour>
  </outline>
</glyph>
<glyph name="eng" format="2">
  <advance width="600"/>
  <unicode hex="014B"/>
  <outline>
    <contour>
      <point x="288" y="-219" type="curve" smooth="yes"/>
      <point x="379" y="-219"/>
      <point x="437" y="-168"/>
      <point x="456" y="-79" type="curve" smooth="yes"/>
      <point x="540" y="318" type="line" smooth="yes"/>
      <point x="564" y="429"/>
      <point x="506" y="508"/>
      <point x="399" y="508" type="curve" smooth="yes"/>
      <point x="338" y="508"/>
      <point x="282" y="480"/>
      <point x="235" y="427" type="curve"/>
      <point x="251" y="501" type="line"/>
      <point x="137" y="501" type="line"/>
      <point x="31" y="0" type="line"/>
      <point x="144" y="0" type="line"/>
      <point x="222" y="364" type="line"/>
      <point x="254" y="400"/>
      <point x="294" y="418"/>
      <point x="336" y="418" type="curve" smooth="yes"/>
      <point x="405" y="418"/>
      <point x="439" y="367"/>
      <point x="423" y="292" type="curve" smooth="yes"/>
      <point x="347" y="-68" type="line" smooth="yes"/>
      <point x="338" y="-106"/>
      <point x="318" y="-123"/>
      <point x="276" y="-123" type="curve" smooth="yes"/>
      <point x="257" y="-123"/>
      <point x="239" y="-119"/>
      <point x="223" y="-113" type="curve"/>
      <point x="206" y="-206" type="line"/>
      <point x="226" y="-213"/>
      <point x="258" y="-219"/>
    </contour>
  </outline>
</glyph>
<glyph name="OE" format="2">
  <advance width="600"/>
  <unicode hex="0152"/>
  <outline>
    <contour>
      <point x="289" y="0" type="curve" smooth="yes"/>
      <point x="535" y="0" type="line"/>
      <point x="556" y="102" type="line"/>
      <point x="361" y="102" type="line"/>
      <point x="404" y="303" type="line"/>
      <point x="526" y="303" type="line"/>
      <point x="547" y="403" type="line"/>
      <point x="426" y="403" type="line"/>
      <point x="467" y="598" type="line"/>
      <point x="658" y="598" type="line"/>
      <point x="679" y="700" type="line"/>
      <point x="387" y="700" type="line"/>
      <point x="181" y="700"/>
      <point x="35" y="518"/>
      <point x="35" y="270" type="curve" smooth="yes"/>
      <point x="35" y="93"/>
      <point x="135" y="0"/>
    </contour>
    <contour>
      <point x="251" y="108" type="line"/>
      <point x="186" y="124"/>
      <point x="149" y="183"/>
      <point x="149" y="278" type="curve" smooth="yes"/>
      <point x="149" y="442"/>
      <point x="239" y="588"/>
      <point x="356" y="598" type="curve"/>
    </contour>
  </outline>
</glyph>
<glyph name="oe" format="2">
  <advance width="600"/>
  <unicode hex="0153"/>
  <outline>
    <contour>
      <point x="458" y="421" type="curve" smooth="yes"/>
      <point x="499" y="421"/>
      <point x="513" y="373"/>
      <point x="498" y="292" type="curve"/>
      <point x="368" y="292" type="line"/>
      <point x="387" y="369"/>
      <point x="423" y="421"/>
    </contour>
    <contour>
      <point x="161" y="82" type="curve" smooth="yes"/>
      <point x="132" y="82"/>
      <point x="114" y="115"/>
      <point x="114" y="173" type="curve" smooth="yes"/>
      <point x="114" y="295"/>
      <point x="167" y="419"/>
      <point x="220" y="419" type="curve" smooth="yes"/>
      <point x="250" y="419"/>
      <point x="268" y="385"/>
      <point x="268" y="327" type="curve" smooth="yes"/>
      <point x="268" y="205"/>
      <point x="214" y="82"/>
    </contour>
    <contour>
      <point x="146" y="-10" type="curve" smooth="yes"/>
      <point x="198" y="-10"/>
      <point x="245" y="19"/>
      <point x="282" y="70" type="curve"/>
      <point x="305" y="18"/>
      <point x="350" y="-10"/>
      <point x="412" y="-10" type="curve" smooth="yes"/>
      <point x="460" y="-10"/>
      <point x="504" y="7"/>
      <point x="549" y="41" type="curve"/>
      <point x="499" y="114" type="line"/>
      <point x="473" y="93"/>
      <point x="445" y="82"/>
      <point x="420" y="82" type="curve" smooth="yes"/>
      <point x="378" y="82"/>
      <point x="354" y="119"/>
      <point x="354" y="184" type="curve" smooth="yes"/>
      <point x="354" y="199"/>
      <point x="355" y="211"/>
      <point x="357" y="223" type="curve"/>
      <point x="580" y="223" type="line"/>
      <point x="593" y="282"/>
      <point x="597" y="313"/>
      <point x="597" y="342" type="curve" smooth="yes"/>
      <point x="597" y="446"/>
      <point x="550" y="509"/>
      <point x="470" y="509" type="curve" smooth="yes"/>
      <point x="419" y="509"/>
      <point x="371" y="479"/>
      <point x="334" y="430" type="curve"/>
      <point x="313" y="481"/>
      <point x="275" y="509"/>
      <point x="223" y="509" type="curve" smooth="yes"/>
      <point x="107" y="509"/>
      <point x="13" y="360"/>
      <point x="13" y="175" type="curve" smooth="yes"/>
      <point x="13" y="60"/>
      <point x="64" y="-10"/>
    </contour>
  </outline>
</glyph>
<glyph name="Scedilla" format="2">
  <advance width="600"/>
  <unicode hex="015E"/>
  <outline>
    <contour>
      <point x="244" y="-245" type="curve"/>
      <point x="315" y="-245"/>
      <point x="370" y="-198"/>
      <point x="370" y="-137" type="curve"/>
      <point x="370" y="-97"/>
      <point x="339" y="-68"/>
      <point x="287" y="-63" type="curve"/>
      <point x="310" y="-11" type="line"/>
      <point x="445" y="-8"/>
      <point x="551" y="79"/>
      <point x="551" y="209" type="curve" smooth="yes"/>
      <point x="551" y="436"/>
      <point x="222" y="374"/>
      <point x="222" y="517" type="curve" smooth="yes"/>
      <point x="222" y="571"/>
      <point x="268" y="612"/>
      <point x="345" y="612" type="curve" smooth="yes"/>
      <point x="414" y="612"/>
      <point x="481" y="581"/>
      <point x="544" y="523" type="curve"/>
      <point x="613" y="605" type="line"/>
      <point x="541" y="676"/>
      <point x="446" y="711"/>
      <point x="347" y="711" type="curve" smooth="yes"/>
      <point x="201" y="711"/>
      <point x="108" y="623"/>
      <point x="108" y="506" type="curve" smooth="yes"/>
      <point x="108" y="274"/>
      <point x="433" y="346"/>
      <point x="433" y="197" type="curve" smooth="yes"/>
      <point x="433" y="132"/>
      <point x="377" y="88"/>
      <point x="303" y="88" type="curve" smooth="yes"/>
      <point x="230" y="88"/>
      <point x="156" y="125"/>
      <point x="88" y="196" type="curve"/>
      <point x="19" y="114" type="line"/>
      <point x="82" y="44"/>
      <point x="167" y="2"/>
      <point x="255" y="-8" type="curve"/>
      <point x="213" y="-104" type="line"/>
      <point x="247" y="-104" type="line" smooth="yes"/>
      <point x="283" y="-104"/>
      <point x="305" y="-119"/>
      <point x="305" y="-144" type="curve"/>
      <point x="305" y="-172"/>
      <point x="280" y="-191"/>
      <point x="242" y="-191" type="curve"/>
      <point x="212" y="-191"/>
      <point x="186" y="-180"/>
      <point x="167" y="-159" type="curve"/>
      <point x="125" y="-201" type="line"/>
      <point x="151" y="-230"/>
      <point x="192" y="-245"/>
    </contour>
  </outline>
</glyph>
<glyph name="scedilla" format="2">
  <advance width="600"/>
  <unicode hex="015F"/>
  <outline>
    <contour>
      <point x="232" y="-245" type="curve"/>
      <point x="303" y="-245"/>
      <point x="358" y="-198"/>
      <point x="358" y="-137" type="curve"/>
      <point x="358" y="-97"/>
      <point x="327" y="-68"/>
      <point x="275" y="-63" type="curve"/>
      <point x="299" y="-10" type="line"/>
      <point x="413" y="-5"/>
      <point x="497" y="61"/>
      <point x="497" y="153" type="curve"/>
      <point x="497" y="338"/>
      <point x="201" y="262"/>
      <point x="201" y="364" type="curve" smooth="yes"/>
      <point x="201" y="400"/>
      <point x="235" y="423"/>
      <point x="295" y="423" type="curve" smooth="yes"/>
      <point x="351" y="423"/>
      <point x="411" y="398"/>
      <point x="464" y="352" type="curve"/>
      <point x="522" y="424" type="line"/>
      <point x="461" y="480"/>
      <point x="381" y="509"/>
      <point x="297" y="509" type="curve" smooth="yes"/>
      <point x="173" y="509"/>
      <point x="102" y="447"/>
      <point x="102" y="354" type="curve" smooth="yes"/>
      <point x="102" y="162"/>
      <point x="392" y="244"/>
      <point x="392" y="143" type="curve"/>
      <point x="392" y="103"/>
      <point x="352" y="76"/>
      <point x="290" y="76" type="curve" smooth="yes"/>
      <point x="229" y="76"/>
      <point x="171" y="96"/>
      <point x="104" y="156" type="curve"/>
      <point x="46" y="83" type="line"/>
      <point x="96" y="34"/>
      <point x="168" y="1"/>
      <point x="243" y="-8" type="curve"/>
      <point x="201" y="-104" type="line"/>
      <point x="235" y="-104" type="line" smooth="yes"/>
      <point x="271" y="-104"/>
      <point x="293" y="-119"/>
      <point x="293" y="-144" type="curve"/>
      <point x="293" y="-172"/>
      <point x="269" y="-191"/>
      <point x="230" y="-191" type="curve"/>
      <point x="201" y="-191"/>
      <point x="175" y="-180"/>
      <point x="155" y="-159" type="curve"/>
      <point x="113" y="-201" type="line"/>
      <point x="139" y="-230"/>
      <point x="180" y="-245"/>
    </contour>
  </outline>
</glyph>
<glyph name="Tcedilla" format="2">
  <advance width="600"/>
  <unicode hex="0162"/>
  <outline>
    <contour>
      <point x="187" y="0" type="line"/>
      <point x="219" y="0" type="line"/>
      <point x="173" y="-104" type="line"/>
      <point x="207" y="-104" type="line" smooth="yes"/>
      <point x="243" y="-104"/>
      <point x="265" y="-119"/>
      <point x="265" y="-144" type="curve"/>
      <point x="265" y="-172"/>
      <point x="241" y="-191"/>
      <point x="202" y="-191" type="curve"/>
      <point x="173" y="-191"/>
      <point x="147" y="-180"/>
      <point x="127" y="-159" type="curve"/>
      <point x="85" y="-201" type="line"/>
      <point x="111" y="-230"/>
      <point x="152" y="-245"/>
      <point x="204" y="-245" type="curve"/>
      <point x="275" y="-245"/>
      <point x="330" y="-198"/>
      <point x="330" y="-137" type="curve"/>
      <point x="330" y="-97"/>
      <point x="300" y="-68"/>
      <point x="247" y="-63" type="curve"/>
      <point x="275" y="0" type="line"/>
      <point x="307" y="0" type="line"/>
      <point x="434" y="596" type="line"/>
      <point x="651" y="596" type="line"/>
      <point x="673" y="700" type="line"/>
      <point x="118" y="700" type="line"/>
      <point x="96" y="596" type="line"/>
      <point x="314" y="596" type="line"/>
    </contour>
  </outline>
</glyph>
<glyph name="tcedilla" format="2">
  <advance width="600"/>
  <unicode hex="0163"/>
  <outline>
    <contour>
      <point x="269" y="-245" type="curve"/>
      <point x="340" y="-245"/>
      <point x="395" y="-198"/>
      <point x="395" y="-137" type="curve"/>
      <point x="395" y="-97"/>
      <point x="365" y="-68"/>
      <point x="313" y="-63" type="curve"/>
      <point x="337" y="-9" type="line"/>
      <point x="339" y="-9"/>
      <point x="341" y="-9"/>
      <point x="343" y="-9" type="curve" smooth="yes"/>
      <point x="384" y="-9"/>
      <point x="434" y="0"/>
      <point x="470" y="14" type="curve"/>
      <point x="490" y="109" type="line"/>
      <point x="447" y="95"/>
      <point x="410" y="88"/>
      <point x="376" y="88" type="curve" smooth="yes"/>
      <point x="307" y="88"/>
      <point x="278" y="113"/>
      <point x="292" y="178" type="curve" smooth="yes"/>
      <point x="342" y="411" type="line"/>
      <point x="553" y="411" type="line"/>
      <point x="572" y="501" type="line"/>
      <point x="361" y="501" type="line"/>
      <point x="395" y="663" type="line"/>
      <point x="277" y="639" type="line"/>
      <point x="247" y="501" type="line"/>
      <point x="88" y="501" type="line"/>
      <point x="69" y="411" type="line"/>
      <point x="228" y="411" type="line"/>
      <point x="178" y="174" type="line" smooth="yes"/>
      <point x="158" y="81"/>
      <point x="197" y="17"/>
      <point x="283" y="-2" type="curve"/>
      <point x="239" y="-104" type="line"/>
      <point x="273" y="-104" type="line" smooth="yes"/>
      <point x="309" y="-104"/>
      <point x="331" y="-119"/>
      <point x="331" y="-144" type="curve"/>
      <point x="331" y="-172"/>
      <point x="306" y="-191"/>
      <point x="267" y="-191" type="curve"/>
      <point x="238" y="-191"/>
      <point x="212" y="-180"/>
      <point x="193" y="-159" type="curve"/>
      <point x="151" y="-201" type="line"/>
      <point x="176" y="-230"/>
      <point x="218" y="-245"/>
    </contour>
  </outline>
</glyph>
<glyph name="tcaron" format="2">
  <advance width="600"/>
  <unicode hex="0165"/>
  <outline>
    <contour>
      <point x="453" y="577" type="line"/>
      <point x="525" y="577" type="line"/>
      <point x="602" y="796" type="line"/>
      <point x="502" y="777" type="line"/>
    </contour>
    <component base="t"/>
  </outline>
</glyph>
<glyph name="Tbar" format="2">
  <advance width="600"/>
  <unicode hex="0166"/>
  <outline>
    <contour>
      <point x="187" y="0" type="line"/>
      <point x="307" y="0" type="line"/>
      <point x="370" y="295" type="line"/>
      <point x="509" y="295" type="line"/>
      <point x="528" y="385" type="line"/>
      <point x="389" y="385" type="line"/>
      <point x="434" y="596" type="line"/>
      <point x="651" y="596" type="line"/>
      <point x="673" y="700" type="line"/>
      <point x="118" y="700" type="line"/>
      <point x="96" y="596" type="line"/>
      <point x="314" y="596" type="line"/>
      <point x="269" y="385" type="line"/>
      <point x="130" y="385" type="line"/>
      <point x="110" y="295" type="line"/>
      <point x="250" y="295" type="line"/>
    </contour>
  </outline>
</glyph>
<glyph name="tbar" format="2">
  <advance width="600"/>
  <unicode hex="0167"/>
  <outline>
    <contour>
      <point x="48" y="311" type="line"/>
      <point x="32" y="236" type="line"/>
      <point x="191" y="236" type="line"/>
      <point x="178" y="174" type="line" smooth="yes"/>
      <point x="154" y="61"/>
      <point x="215" y="-9"/>
      <point x="343" y="-9" type="curve" smooth="yes"/>
      <point x="384" y="-9"/>
      <point x="434" y="0"/>
      <point x="470" y="14" type="curve"/>
      <point x="490" y="109" type="line"/>
      <point x="447" y="95"/>
      <point x="410" y="88"/>
      <point x="376" y="88" type="curve" smooth="yes"/>
      <point x="308" y="88"/>
      <point x="278" y="112"/>
      <point x="292" y="175" type="curve" smooth="yes"/>
      <point x="304" y="236" type="line"/>
      <point x="517" y="236" type="line"/>
      <point x="533" y="311" type="line"/>
      <point x="320" y="311" type="line"/>
      <point x="342" y="411" type="line"/>
      <point x="553" y="411" type="line"/>
      <point x="572" y="501" type="line"/>
      <point x="361" y="501" type="line"/>
      <point x="395" y="663" type="line"/>
      <point x="277" y="639" type="line"/>
      <point x="247" y="501" type="line"/>
      <point x="88" y="501" type="line"/>
      <point x="69" y="411" type="line"/>
      <point x="228" y="411" type="line"/>
      <point x="207" y="311" type="line"/>
    </contour>
  </outline>
</glyph>
<glyph name="Uogonek" format="2">
  <advance width="600"/>
  <unicode hex="0172"/>
  <outline>
    <contour>
      <point x="256" y="-232" type="curve" smooth="yes"/>
      <point x="285" y="-232"/>
      <point x="315" y="-225"/>
      <point x="336" y="-213" type="curve"/>
      <point x="332" y="-160" type="line"/>
      <point x="319" y="-166"/>
      <point x="301" y="-170"/>
      <point x="285" y="-170" type="curve" smooth="yes"/>
      <point x="255" y="-170"/>
      <point x="234" y="-154"/>
      <point x="234" y="-127" type="curve" smooth="yes"/>
      <point x="234" y="-85"/>
      <point x="272" y="-44"/>
      <point x="352" y="-1" type="curve"/>
      <point x="454" y="26"/>
      <point x="518" y="111"/>
      <point x="545" y="236" type="curve" smooth="yes"/>
      <point x="645" y="700" type="line"/>
      <point x="525" y="700" type="line"/>
      <point x="428" y="247" type="line" smooth="yes"/>
      <point x="408" y="153"/>
      <point x="361" y="97"/>
      <point x="279" y="97" type="curve" smooth="yes"/>
      <point x="197" y="97"/>
      <point x="151" y="159"/>
      <point x="172" y="258" type="curve" smooth="yes"/>
      <point x="267" y="700" type="line"/>
      <point x="147" y="700" type="line"/>
      <point x="54" y="268" type="line" smooth="yes"/>
      <point x="17" y="95"/>
      <point x="114" y="-7"/>
      <point x="267" y="-11" type="curve"/>
      <point x="199" y="-55"/>
      <point x="165" y="-102"/>
      <point x="165" y="-154" type="curve" smooth="yes"/>
      <point x="165" y="-201"/>
      <point x="201" y="-232"/>
    </contour>
  </outline>
</glyph>
<glyph name="uogonek" format="2">
  <advance width="600"/>
  <unicode hex="0173"/>
  <outline>
    <contour>
      <point x="368" y="-232" type="curve" smooth="yes"/>
      <point x="397" y="-232"/>
      <point x="426" y="-225"/>
      <point x="447" y="-213" type="curve"/>
      <point x="443" y="-160" type="line"/>
      <point x="431" y="-166"/>
      <point x="412" y="-170"/>
      <point x="397" y="-170" type="curve" smooth="yes"/>
      <point x="366" y="-170"/>
      <point x="346" y="-154"/>
      <point x="346" y="-127" type="curve" smooth="yes"/>
      <point x="346" y="-85"/>
      <point x="384" y="-43"/>
      <point x="465" y="0" type="curve"/>
      <point x="572" y="501" type="line"/>
      <point x="461" y="501" type="line"/>
      <point x="383" y="141" type="line"/>
      <point x="350" y="102"/>
      <point x="310" y="82"/>
      <point x="266" y="82" type="curve" smooth="yes"/>
      <point x="199" y="82"/>
      <point x="165" y="133"/>
      <point x="181" y="209" type="curve" smooth="yes"/>
      <point x="243" y="501" type="line"/>
      <point x="131" y="501" type="line"/>
      <point x="64" y="185" type="line" smooth="yes"/>
      <point x="40" y="71"/>
      <point x="97" y="-7"/>
      <point x="204" y="-7" type="curve" smooth="yes"/>
      <point x="266" y="-7"/>
      <point x="322" y="22"/>
      <point x="369" y="77" type="curve"/>
      <point x="353" y="0" type="line"/>
      <point x="395" y="0" type="line"/>
      <point x="315" y="-48"/>
      <point x="276" y="-98"/>
      <point x="276" y="-154" type="curve" smooth="yes"/>
      <point x="276" y="-201"/>
      <point x="312" y="-232"/>
    </contour>
  </outline>
</glyph>
<glyph name="dotlessj" format="2">
  <advance width="600"/>
  <unicode hex="0237"/>
  <anchor x="442" y="501" name="top"/>
  <outline>
    <contour>
      <point x="167" y="-219" type="curve" smooth="yes"/>
      <point x="282" y="-219"/>
      <point x="355" y="-168"/>
      <point x="380" y="-46" type="curve" smooth="yes"/>
      <point x="497" y="501" type="line"/>
      <point x="140" y="501" type="line"/>
      <point x="121" y="411" type="line"/>
      <point x="364" y="411" type="line"/>
      <point x="271" y="-22" type="line" smooth="yes"/>
      <point x="255" y="-95"/>
      <point x="225" y="-121"/>
      <point x="164" y="-121" type="curve" smooth="yes"/>
      <point x="120" y="-121"/>
      <point x="71" y="-107"/>
      <point x="14" y="-81" type="curve"/>
      <point x="-6" y="-178" type="line"/>
      <point x="43" y="-204"/>
      <point x="106" y="-219"/>
    </contour>
  </outline>
</glyph>
<glyph name="circumflex" format="2">
  <advance width="600"/>
  <unicode hex="02C6"/>
  <outline>
    <contour>
      <point x="200" y="599" type="line"/>
      <point x="290" y="599" type="line"/>
      <point x="395" y="683" type="line"/>
      <point x="464" y="599" type="line"/>
      <point x="547" y="599" type="line"/>
      <point x="457" y="737" type="line"/>
      <point x="345" y="737" type="line"/>
    </contour>
  </outline>
</glyph>
<glyph name="caron" format="2">
  <advance width="600"/>
  <unicode hex="02C7"/>
  <outline>
    <contour>
      <point x="316" y="603" type="line"/>
      <point x="428" y="603" type="line"/>
      <point x="573" y="741" type="line"/>
      <point x="482" y="741" type="line"/>
      <point x="379" y="658" type="line"/>
      <point x="311" y="741" type="line"/>
      <point x="226" y="741" type="line"/>
    </contour>
  </outline>
</glyph>
<glyph name="dotaccent" format="2">
  <advance width="600"/>
  <unicode hex="02D9"/>
  <outline>
    <contour>
      <point x="379" y="600" type="curve" smooth="yes"/>
      <point x="424" y="600"/>
      <point x="462" y="637"/>
      <point x="462" y="680" type="curve" smooth="yes"/>
      <point x="462" y="718"/>
      <point x="431" y="748"/>
      <point x="393" y="748" type="curve" smooth="yes"/>
      <point x="348" y="748"/>
      <point x="311" y="710"/>
      <point x="311" y="667" type="curve" smooth="yes"/>
      <point x="311" y="629"/>
      <point x="341" y="600"/>
    </contour>
  </outline>
</glyph>
<glyph name="ogonek" format="2">
  <advance width="600"/>
  <unicode hex="02DB"/>
  <outline>
    <contour>
      <point x="198" y="-232" type="curve" smooth="yes"/>
      <point x="227" y="-232"/>
      <point x="257" y="-225"/>
      <point x="278" y="-213" type="curve"/>
      <point x="273" y="-160" type="line"/>
      <point x="261" y="-166"/>
      <point x="243" y="-170"/>
      <point x="227" y="-170" type="curve" smooth="yes"/>
      <point x="197" y="-170"/>
      <point x="176" y="-154"/>
      <point x="176" y="-127" type="curve" smooth="yes"/>
      <point x="176" y="-85"/>
      <point x="215" y="-43"/>
      <point x="295" y="0" type="curve"/>
      <point x="261" y="20" type="line"/>
      <point x="157" y="-34"/>
      <point x="106" y="-90"/>
      <point x="106" y="-154" type="curve" smooth="yes"/>
      <point x="106" y="-201"/>
      <point x="143" y="-232"/>
    </contour>
  </outline>
</glyph>
<glyph name="tilde" format="2">
  <advance width="600"/>
  <unicode hex="02DC"/>
  <outline>
    <contour>
      <point x="260" y="600" type="line"/>
      <point x="280" y="647"/>
      <point x="295" y="663"/>
      <point x="316" y="663" type="curve" smooth="yes"/>
      <point x="357" y="663"/>
      <point x="398" y="597"/>
      <point x="463" y="597" type="curve" smooth="yes"/>
      <point x="507" y="597"/>
      <point x="546" y="635"/>
      <point x="580" y="710" type="curve"/>
      <point x="516" y="732" type="line"/>
      <point x="492" y="681"/>
      <point x="482" y="669"/>
      <point x="465" y="669" type="curve" smooth="yes"/>
      <point x="426" y="669"/>
      <point x="380" y="736"/>
      <point x="317" y="736" type="curve" smooth="yes"/>
      <point x="271" y="736"/>
      <point x="231" y="698"/>
      <point x="196" y="622" type="curve"/>
    </contour>
  </outline>
</glyph>
<glyph name="hungarumlaut" format="2">
  <advance width="600"/>
  <unicode hex="02DD"/>
  <outline>
    <contour>
      <point x="206" y="592" type="line"/>
      <point x="298" y="592" type="line"/>
      <point x="472" y="724" type="line"/>
      <point x="362" y="724" type="line"/>
    </contour>
    <contour>
      <point x="400" y="592" type="line"/>
      <point x="487" y="592" type="line"/>
      <point x="667" y="724" type="line"/>
      <point x="556" y="724" type="line"/>
    </contour>
  </outline>
</glyph>
<glyph name="uni0327" format="2">
  <unicode hex="0327"/>
  <guideline x="270" y="0" angle="77.99999999999999" color="0.999,0.001,0.001,0.999" identifier="eAwEMm5V8S"/>
  <anchor x="248" y="0" name="_bottom"/>
  <outline>
    <contour>
      <point x="206" y="-245" type="curve"/>
      <point x="277" y="-245"/>
      <point x="332" y="-198"/>
      <point x="332" y="-137" type="curve"/>
      <point x="332" y="-97"/>
      <point x="301" y="-68"/>
      <point x="249" y="-63" type="curve"/>
      <point x="277" y="0" type="line"/>
      <point x="221" y="0" type="line"/>
      <point x="175" y="-104" type="line"/>
      <point x="209" y="-104" type="line" smooth="yes"/>
      <point x="245" y="-104"/>
      <point x="267" y="-119"/>
      <point x="267" y="-144" type="curve"/>
      <point x="267" y="-172"/>
      <point x="242" y="-191"/>
      <point x="204" y="-191" type="curve"/>
      <point x="174" y="-191"/>
      <point x="149" y="-180"/>
      <point x="129" y="-159" type="curve"/>
      <point x="87" y="-201" type="line"/>
      <point x="113" y="-230"/>
      <point x="154" y="-245"/>
    </contour>
  </outline>
</glyph>
<glyph name="endash" format="2">
  <advance width="600"/>
  <unicode hex="2013"/>
  <outline>
    <contour>
      <point x="75" y="236" type="line"/>
      <point x="519" y="236" type="line"/>
      <point x="538" y="330" type="line"/>
      <point x="95" y="330" type="line"/>
    </contour>
  </outline>
</glyph>
<glyph name="emdash" format="2">
  <advance width="600"/>
  <unicode hex="2014"/>
  <outline>
    <contour>
      <point x="12" y="236" type="line"/>
      <point x="582" y="236" type="line"/>
      <point x="602" y="330" type="line"/>
      <point x="32" y="330" type="line"/>
    </contour>
  </outline>
</glyph>
<glyph name="uni2015" format="2">
  <advance width="600"/>
  <unicode hex="2015"/>
  <outline>
    <contour>
      <point x="-3" y="236" type="line"/>
      <point x="597" y="236" type="line"/>
      <point x="617" y="330" type="line"/>
      <point x="17" y="330" type="line"/>
    </contour>
  </outline>
</glyph>
<glyph name="quotedblleft" format="2">
  <advance width="600"/>
  <unicode hex="201C"/>
  <outline>
    <contour>
      <point x="389" y="750" type="line"/>
      <point x="306" y="750" type="line"/>
      <point x="146" y="486" type="line"/>
      <point x="279" y="486" type="line"/>
    </contour>
    <contour>
      <point x="580" y="750" type="line"/>
      <point x="497" y="750" type="line"/>
      <point x="337" y="486" type="line"/>
      <point x="470" y="486" type="line"/>
    </contour>
  </outline>
</glyph>
<glyph name="dagger" format="2">
  <advance width="600"/>
  <unicode hex="2020"/>
  <outline>
    <contour>
      <point x="202" y="0" type="line"/>
      <point x="292" y="0" type="line"/>
      <point x="383" y="427" type="line"/>
      <point x="514" y="427" type="line"/>
      <point x="531" y="507" type="line"/>
      <point x="400" y="507" type="line"/>
      <point x="441" y="700" type="line"/>
      <point x="351" y="700" type="line"/>
      <point x="309" y="507" type="line"/>
      <point x="177" y="507" type="line"/>
      <point x="161" y="427" type="line"/>
      <point x="292" y="427" type="line"/>
    </contour>
  </outline>
</glyph>
<glyph name="daggerdbl" format="2">
  <advance width="600"/>
  <unicode hex="2021"/>
  <outline>
    <contour>
      <point x="202" y="0" type="line"/>
      <point x="292" y="0" type="line"/>
      <point x="333" y="193" type="line"/>
      <point x="465" y="193" type="line"/>
      <point x="482" y="273" type="line"/>
      <point x="350" y="273" type="line"/>
      <point x="383" y="427" type="line"/>
      <point x="514" y="427" type="line"/>
      <point x="531" y="507" type="line"/>
      <point x="400" y="507" type="line"/>
      <point x="441" y="700" type="line"/>
      <point x="351" y="700" type="line"/>
      <point x="309" y="507" type="line"/>
      <point x="177" y="507" type="line"/>
      <point x="161" y="427" type="line"/>
      <point x="292" y="427" type="line"/>
      <point x="260" y="273" type="line"/>
      <point x="128" y="273" type="line"/>
      <point x="111" y="193" type="line"/>
      <point x="243" y="193" type="line"/>
    </contour>
  </outline>
</glyph>
<glyph name="bullet" format="2">
  <advance width="600"/>
  <unicode hex="2022"/>
  <outline>
    <contour>
      <point x="310" y="230" type="curve" smooth="yes"/>
      <point x="372" y="230"/>
      <point x="427" y="288"/>
      <point x="427" y="352" type="curve" smooth="yes"/>
      <point x="427" y="407"/>
      <point x="382" y="450"/>
      <point x="330" y="450" type="curve" smooth="yes"/>
      <point x="266" y="450"/>
      <point x="211" y="393"/>
      <point x="211" y="328" type="curve" smooth="yes"/>
      <point x="211" y="273"/>
      <point x="256" y="230"/>
    </contour>
  </outline>
</glyph>
